%TF.GenerationSoftware,KiCad,Pcbnew,7.0.10*%
%TF.CreationDate,2025-02-23T01:37:13-06:00*%
%TF.ProjectId,Portal_Radio,506f7274-616c-45f5-9261-64696f2e6b69,rev?*%
%TF.SameCoordinates,Original*%
%TF.FileFunction,Legend,Top*%
%TF.FilePolarity,Positive*%
%FSLAX46Y46*%
G04 Gerber Fmt 4.6, Leading zero omitted, Abs format (unit mm)*
G04 Created by KiCad (PCBNEW 7.0.10) date 2025-02-23 01:37:13*
%MOMM*%
%LPD*%
G01*
G04 APERTURE LIST*
%ADD10C,0.150000*%
%ADD11C,0.200000*%
%ADD12C,0.000000*%
%ADD13C,0.120000*%
G04 APERTURE END LIST*
D10*
X141210660Y-73103467D02*
X141432031Y-72628734D01*
X141432031Y-72628734D02*
X141429123Y-72522294D01*
X141429123Y-72522294D02*
X141362933Y-72438887D01*
X141362933Y-72438887D02*
X141190303Y-72358389D01*
X141190303Y-72358389D02*
X141083863Y-72361297D01*
X141230784Y-73060309D02*
X141124345Y-73063217D01*
X141124345Y-73063217D02*
X140908557Y-72962594D01*
X140908557Y-72962594D02*
X140842367Y-72879187D01*
X140842367Y-72879187D02*
X140839459Y-72772747D01*
X140839459Y-72772747D02*
X140879708Y-72686432D01*
X140879708Y-72686432D02*
X140963115Y-72620242D01*
X140963115Y-72620242D02*
X141069554Y-72617334D01*
X141069554Y-72617334D02*
X141285342Y-72717957D01*
X141285342Y-72717957D02*
X141391782Y-72715049D01*
X142030652Y-73485836D02*
X142453271Y-72579528D01*
X142050777Y-73442678D02*
X141944337Y-73445586D01*
X141944337Y-73445586D02*
X141771707Y-73365088D01*
X141771707Y-73365088D02*
X141705517Y-73281681D01*
X141705517Y-73281681D02*
X141682484Y-73218398D01*
X141682484Y-73218398D02*
X141679576Y-73111959D01*
X141679576Y-73111959D02*
X141800324Y-72853014D01*
X141800324Y-72853014D02*
X141883731Y-72786823D01*
X141883731Y-72786823D02*
X141947013Y-72763790D01*
X141947013Y-72763790D02*
X142053453Y-72760882D01*
X142053453Y-72760882D02*
X142226083Y-72841381D01*
X142226083Y-72841381D02*
X142292273Y-72924788D01*
X142462228Y-73687082D02*
X142743973Y-73082877D01*
X142884846Y-72780775D02*
X142821564Y-72803807D01*
X142821564Y-72803807D02*
X142844597Y-72867090D01*
X142844597Y-72867090D02*
X142907879Y-72844057D01*
X142907879Y-72844057D02*
X142884846Y-72780775D01*
X142884846Y-72780775D02*
X142844597Y-72867090D01*
X143023275Y-73948703D02*
X142957085Y-73865296D01*
X142957085Y-73865296D02*
X142934052Y-73802014D01*
X142934052Y-73802014D02*
X142931144Y-73695574D01*
X142931144Y-73695574D02*
X143051892Y-73436629D01*
X143051892Y-73436629D02*
X143135299Y-73370439D01*
X143135299Y-73370439D02*
X143198581Y-73347406D01*
X143198581Y-73347406D02*
X143305020Y-73344498D01*
X143305020Y-73344498D02*
X143434493Y-73404872D01*
X143434493Y-73404872D02*
X143500683Y-73488279D01*
X143500683Y-73488279D02*
X143523716Y-73551561D01*
X143523716Y-73551561D02*
X143526624Y-73658001D01*
X143526624Y-73658001D02*
X143405876Y-73916946D01*
X143405876Y-73916946D02*
X143322469Y-73983136D01*
X143322469Y-73983136D02*
X143259187Y-74006169D01*
X143259187Y-74006169D02*
X143152747Y-74009077D01*
X143152747Y-74009077D02*
X143023275Y-73948703D01*
X138173423Y-72323818D02*
X138347071Y-71339011D01*
X138347071Y-71339011D02*
X138722236Y-71405162D01*
X138722236Y-71405162D02*
X138807758Y-71468596D01*
X138807758Y-71468596D02*
X138846385Y-71523760D01*
X138846385Y-71523760D02*
X138876743Y-71625821D01*
X138876743Y-71625821D02*
X138851936Y-71766507D01*
X138851936Y-71766507D02*
X138788502Y-71852030D01*
X138788502Y-71852030D02*
X138733338Y-71890656D01*
X138733338Y-71890656D02*
X138631277Y-71921014D01*
X138631277Y-71921014D02*
X138256113Y-71854862D01*
X138907215Y-72549913D02*
X139657545Y-72682216D01*
X140471308Y-72728998D02*
X140225728Y-72202159D01*
X139908561Y-72629770D02*
X140082209Y-71644962D01*
X140082209Y-71644962D02*
X140457374Y-71711114D01*
X140457374Y-71711114D02*
X140542896Y-71774547D01*
X140542896Y-71774547D02*
X140581523Y-71829712D01*
X140581523Y-71829712D02*
X140611880Y-71931772D01*
X140611880Y-71931772D02*
X140587073Y-72072459D01*
X140587073Y-72072459D02*
X140523640Y-72157981D01*
X140523640Y-72157981D02*
X140468475Y-72196608D01*
X140468475Y-72196608D02*
X140366415Y-72226966D01*
X140366415Y-72226966D02*
X139991250Y-72160814D01*
X135759734Y-71579283D02*
X136139237Y-71546081D01*
X135872995Y-71234767D02*
X135947700Y-72088648D01*
X135947700Y-72088648D02*
X136003439Y-72179374D01*
X136003439Y-72179374D02*
X136102465Y-72218511D01*
X136102465Y-72218511D02*
X136197340Y-72210210D01*
X136904758Y-72100518D02*
X136814033Y-72156257D01*
X136814033Y-72156257D02*
X136624281Y-72172858D01*
X136624281Y-72172858D02*
X136525255Y-72133721D01*
X136525255Y-72133721D02*
X136469517Y-72042995D01*
X136469517Y-72042995D02*
X136436315Y-71663492D01*
X136436315Y-71663492D02*
X136475452Y-71564466D01*
X136475452Y-71564466D02*
X136566178Y-71508728D01*
X136566178Y-71508728D02*
X136755929Y-71492127D01*
X136755929Y-71492127D02*
X136854955Y-71531264D01*
X136854955Y-71531264D02*
X136910693Y-71621990D01*
X136910693Y-71621990D02*
X136918994Y-71716865D01*
X136918994Y-71716865D02*
X136452916Y-71853244D01*
X138003549Y-71000567D02*
X137261725Y-72356093D01*
X132931211Y-73054426D02*
X133621731Y-72732431D01*
X134214303Y-72876445D02*
X133791685Y-71970137D01*
X133791685Y-71970137D02*
X134136945Y-71809140D01*
X134136945Y-71809140D02*
X134243385Y-71812048D01*
X134243385Y-71812048D02*
X134306667Y-71835081D01*
X134306667Y-71835081D02*
X134390074Y-71901271D01*
X134390074Y-71901271D02*
X134450448Y-72030744D01*
X134450448Y-72030744D02*
X134447540Y-72137183D01*
X134447540Y-72137183D02*
X134424507Y-72200465D01*
X134424507Y-72200465D02*
X134358317Y-72283872D01*
X134358317Y-72283872D02*
X134013057Y-72444870D01*
X135445747Y-72249672D02*
X135379556Y-72333079D01*
X135379556Y-72333079D02*
X135206926Y-72413577D01*
X135206926Y-72413577D02*
X135100487Y-72410669D01*
X135100487Y-72410669D02*
X135017080Y-72344479D01*
X135017080Y-72344479D02*
X134856082Y-71999219D01*
X134856082Y-71999219D02*
X134858990Y-71892779D01*
X134858990Y-71892779D02*
X134925181Y-71809372D01*
X134925181Y-71809372D02*
X135097811Y-71728873D01*
X135097811Y-71728873D02*
X135204251Y-71731782D01*
X135204251Y-71731782D02*
X135287657Y-71797972D01*
X135287657Y-71797972D02*
X135327907Y-71884287D01*
X135327907Y-71884287D02*
X134936581Y-72171849D01*
X131523681Y-74476367D02*
X131477950Y-74572526D01*
X131477950Y-74572526D02*
X131327852Y-74689795D01*
X131327852Y-74689795D02*
X131223487Y-74710905D01*
X131223487Y-74710905D02*
X131127328Y-74665174D01*
X131127328Y-74665174D02*
X130892790Y-74364979D01*
X130892790Y-74364979D02*
X130871680Y-74260613D01*
X130871680Y-74260613D02*
X130917411Y-74164455D01*
X130917411Y-74164455D02*
X131067509Y-74047186D01*
X131067509Y-74047186D02*
X131171875Y-74026076D01*
X131171875Y-74026076D02*
X131268033Y-74071807D01*
X131268033Y-74071807D02*
X131326668Y-74146856D01*
X131326668Y-74146856D02*
X131010059Y-74515076D01*
X132199119Y-73948658D02*
X132153388Y-74044816D01*
X132153388Y-74044816D02*
X132003290Y-74162085D01*
X132003290Y-74162085D02*
X131898924Y-74183195D01*
X131898924Y-74183195D02*
X131802766Y-74137464D01*
X131802766Y-74137464D02*
X131568228Y-73837269D01*
X131568228Y-73837269D02*
X131547118Y-73732903D01*
X131547118Y-73732903D02*
X131592849Y-73636745D01*
X131592849Y-73636745D02*
X131742947Y-73519476D01*
X131742947Y-73519476D02*
X131847312Y-73498366D01*
X131847312Y-73498366D02*
X131943471Y-73544097D01*
X131943471Y-73544097D02*
X132002106Y-73619146D01*
X132002106Y-73619146D02*
X131685497Y-73987367D01*
X132603680Y-73693010D02*
X132193239Y-73167669D01*
X132310507Y-73317766D02*
X132289397Y-73213401D01*
X132289397Y-73213401D02*
X132297604Y-73146559D01*
X132297604Y-73146559D02*
X132343336Y-73050400D01*
X132343336Y-73050400D02*
X132418385Y-72991766D01*
X129674474Y-76372912D02*
X129186905Y-75918246D01*
X128943120Y-75690913D02*
X128945471Y-75758216D01*
X128945471Y-75758216D02*
X129012773Y-75755865D01*
X129012773Y-75755865D02*
X129010423Y-75688563D01*
X129010423Y-75688563D02*
X128943120Y-75690913D01*
X128943120Y-75690913D02*
X129012773Y-75755865D01*
X130096663Y-75920169D02*
X129996885Y-75957346D01*
X129996885Y-75957346D02*
X129929582Y-75959696D01*
X129929582Y-75959696D02*
X129827453Y-75929570D01*
X129827453Y-75929570D02*
X129618495Y-75734713D01*
X129618495Y-75734713D02*
X129581318Y-75634935D01*
X129581318Y-75634935D02*
X129578968Y-75567632D01*
X129578968Y-75567632D02*
X129609094Y-75465504D01*
X129609094Y-75465504D02*
X129706522Y-75361024D01*
X129706522Y-75361024D02*
X129806301Y-75323848D01*
X129806301Y-75323848D02*
X129873603Y-75321498D01*
X129873603Y-75321498D02*
X129975732Y-75351623D01*
X129975732Y-75351623D02*
X130184691Y-75546480D01*
X130184691Y-75546480D02*
X130221867Y-75646259D01*
X130221867Y-75646259D02*
X130224217Y-75713561D01*
X130224217Y-75713561D02*
X130194092Y-75815690D01*
X130194092Y-75815690D02*
X130096663Y-75920169D01*
X130128712Y-74908282D02*
X130616281Y-75362947D01*
X130198365Y-74973234D02*
X130196014Y-74905931D01*
X130196014Y-74905931D02*
X130226140Y-74803803D01*
X130226140Y-74803803D02*
X130323569Y-74699323D01*
X130323569Y-74699323D02*
X130423347Y-74662147D01*
X130423347Y-74662147D02*
X130525476Y-74692273D01*
X130525476Y-74692273D02*
X130908566Y-75049510D01*
X127745738Y-79049671D02*
X127199637Y-78667287D01*
X127277651Y-78721913D02*
X127265957Y-78655593D01*
X127265957Y-78655593D02*
X127281576Y-78550265D01*
X127281576Y-78550265D02*
X127363516Y-78433244D01*
X127363516Y-78433244D02*
X127457149Y-78382542D01*
X127457149Y-78382542D02*
X127562477Y-78398161D01*
X127562477Y-78398161D02*
X127991557Y-78698606D01*
X127562477Y-78398161D02*
X127511776Y-78304528D01*
X127511776Y-78304528D02*
X127527395Y-78199200D01*
X127527395Y-78199200D02*
X127609334Y-78082178D01*
X127609334Y-78082178D02*
X127702968Y-78031477D01*
X127702968Y-78031477D02*
X127808295Y-78047096D01*
X127808295Y-78047096D02*
X128237375Y-78347541D01*
X128062045Y-76771471D02*
X128623603Y-78211056D01*
X129111396Y-77099310D02*
X128292244Y-76525733D01*
X128292244Y-76525733D02*
X128510749Y-76213675D01*
X128510749Y-76213675D02*
X128604383Y-76162974D01*
X128604383Y-76162974D02*
X128670703Y-76151280D01*
X128670703Y-76151280D02*
X128776031Y-76166899D01*
X128776031Y-76166899D02*
X128893053Y-76248839D01*
X128893053Y-76248839D02*
X128943754Y-76342472D01*
X128943754Y-76342472D02*
X128955448Y-76408792D01*
X128955448Y-76408792D02*
X128939829Y-76514120D01*
X128939829Y-76514120D02*
X128721324Y-76826178D01*
X126684030Y-80879508D02*
X126747312Y-80856475D01*
X126747312Y-80856475D02*
X126770345Y-80919757D01*
X126770345Y-80919757D02*
X126707062Y-80942790D01*
X126707062Y-80942790D02*
X126684030Y-80879508D01*
X126684030Y-80879508D02*
X126770345Y-80919757D01*
X127109556Y-80079640D02*
X127112464Y-80186080D01*
X127112464Y-80186080D02*
X127031965Y-80358710D01*
X127031965Y-80358710D02*
X126948558Y-80424900D01*
X126948558Y-80424900D02*
X126885276Y-80447933D01*
X126885276Y-80447933D02*
X126778836Y-80450841D01*
X126778836Y-80450841D02*
X126519891Y-80330093D01*
X126519891Y-80330093D02*
X126453701Y-80246686D01*
X126453701Y-80246686D02*
X126430668Y-80183404D01*
X126430668Y-80183404D02*
X126427760Y-80076964D01*
X126427760Y-80076964D02*
X126508259Y-79904334D01*
X126508259Y-79904334D02*
X126591666Y-79838144D01*
X127394209Y-79581874D02*
X127310803Y-79648065D01*
X127310803Y-79648065D02*
X127247520Y-79671098D01*
X127247520Y-79671098D02*
X127141081Y-79674006D01*
X127141081Y-79674006D02*
X126882136Y-79553258D01*
X126882136Y-79553258D02*
X126815945Y-79469851D01*
X126815945Y-79469851D02*
X126792912Y-79406569D01*
X126792912Y-79406569D02*
X126790004Y-79300129D01*
X126790004Y-79300129D02*
X126850378Y-79170656D01*
X126850378Y-79170656D02*
X126933785Y-79104466D01*
X126933785Y-79104466D02*
X126997067Y-79081433D01*
X126997067Y-79081433D02*
X127103507Y-79078525D01*
X127103507Y-79078525D02*
X127362452Y-79199273D01*
X127362452Y-79199273D02*
X127428643Y-79282680D01*
X127428643Y-79282680D02*
X127451675Y-79345962D01*
X127451675Y-79345962D02*
X127454583Y-79452402D01*
X127454583Y-79452402D02*
X127394209Y-79581874D01*
X125741757Y-83459127D02*
X124821253Y-83068396D01*
X125909214Y-83064625D02*
X125427044Y-82859956D01*
X125427044Y-82859956D02*
X125320771Y-82866577D01*
X125320771Y-82866577D02*
X125239725Y-82935638D01*
X125239725Y-82935638D02*
X125183906Y-83067139D01*
X125183906Y-83067139D02*
X125190527Y-83173412D01*
X125190527Y-83173412D02*
X125215755Y-83235852D01*
X125649062Y-81971300D02*
X126262732Y-82231787D01*
X125481606Y-82365802D02*
X125963775Y-82570470D01*
X125963775Y-82570470D02*
X126070049Y-82563849D01*
X126070049Y-82563849D02*
X126151095Y-82494788D01*
X126151095Y-82494788D02*
X126206914Y-82363288D01*
X126206914Y-82363288D02*
X126200292Y-82257014D01*
X126200292Y-82257014D02*
X126175065Y-82194574D01*
X126448795Y-81793451D02*
X125528290Y-81402720D01*
X125878958Y-81551570D02*
X125872337Y-81445297D01*
X125872337Y-81445297D02*
X125946762Y-81269962D01*
X125946762Y-81269962D02*
X126027808Y-81200902D01*
X126027808Y-81200902D02*
X126090248Y-81175674D01*
X126090248Y-81175674D02*
X126196522Y-81169053D01*
X126196522Y-81169053D02*
X126459523Y-81280691D01*
X126459523Y-81280691D02*
X126528584Y-81361737D01*
X126528584Y-81361737D02*
X126553811Y-81424176D01*
X126553811Y-81424176D02*
X126560432Y-81530450D01*
X126560432Y-81530450D02*
X126486007Y-81705784D01*
X126486007Y-81705784D02*
X126404961Y-81774845D01*
X124480973Y-84860267D02*
X125241677Y-85137141D01*
X125241677Y-85137141D02*
X125314884Y-85214461D01*
X125314884Y-85214461D02*
X125343345Y-85275495D01*
X125343345Y-85275495D02*
X125355519Y-85381276D01*
X125355519Y-85381276D02*
X125306659Y-85515518D01*
X125306659Y-85515518D02*
X125229338Y-85588726D01*
X125062687Y-85071994D02*
X125074861Y-85177775D01*
X125074861Y-85177775D02*
X125009715Y-85356764D01*
X125009715Y-85356764D02*
X124932394Y-85429972D01*
X124932394Y-85429972D02*
X124871360Y-85458433D01*
X124871360Y-85458433D02*
X124765579Y-85470607D01*
X124765579Y-85470607D02*
X124497095Y-85372887D01*
X124497095Y-85372887D02*
X124423887Y-85295566D01*
X124423887Y-85295566D02*
X124395427Y-85234532D01*
X124395427Y-85234532D02*
X124383253Y-85128751D01*
X124383253Y-85128751D02*
X124448400Y-84949762D01*
X124448400Y-84949762D02*
X124525720Y-84876554D01*
X125270302Y-84640808D02*
X124643840Y-84412794D01*
X124330609Y-84298788D02*
X124359070Y-84359822D01*
X124359070Y-84359822D02*
X124420103Y-84331361D01*
X124420103Y-84331361D02*
X124391643Y-84270327D01*
X124391643Y-84270327D02*
X124330609Y-84298788D01*
X124330609Y-84298788D02*
X124420103Y-84331361D01*
X124757846Y-84099564D02*
X124888140Y-83741586D01*
X124493475Y-83851315D02*
X125298926Y-84144476D01*
X125298926Y-84144476D02*
X125404708Y-84132302D01*
X125404708Y-84132302D02*
X125482028Y-84059094D01*
X125482028Y-84059094D02*
X125514601Y-83969599D01*
X140290779Y-94738866D02*
X141052684Y-94738866D01*
X140671731Y-95119819D02*
X140671731Y-94357914D01*
X141433636Y-94119819D02*
X142052683Y-94119819D01*
X142052683Y-94119819D02*
X141719350Y-94500771D01*
X141719350Y-94500771D02*
X141862207Y-94500771D01*
X141862207Y-94500771D02*
X141957445Y-94548390D01*
X141957445Y-94548390D02*
X142005064Y-94596009D01*
X142005064Y-94596009D02*
X142052683Y-94691247D01*
X142052683Y-94691247D02*
X142052683Y-94929342D01*
X142052683Y-94929342D02*
X142005064Y-95024580D01*
X142005064Y-95024580D02*
X141957445Y-95072200D01*
X141957445Y-95072200D02*
X141862207Y-95119819D01*
X141862207Y-95119819D02*
X141576493Y-95119819D01*
X141576493Y-95119819D02*
X141481255Y-95072200D01*
X141481255Y-95072200D02*
X141433636Y-95024580D01*
X142338398Y-94119819D02*
X142671731Y-95119819D01*
X142671731Y-95119819D02*
X143005064Y-94119819D01*
X132178588Y-94167438D02*
X132083350Y-94119819D01*
X132083350Y-94119819D02*
X131940493Y-94119819D01*
X131940493Y-94119819D02*
X131797636Y-94167438D01*
X131797636Y-94167438D02*
X131702398Y-94262676D01*
X131702398Y-94262676D02*
X131654779Y-94357914D01*
X131654779Y-94357914D02*
X131607160Y-94548390D01*
X131607160Y-94548390D02*
X131607160Y-94691247D01*
X131607160Y-94691247D02*
X131654779Y-94881723D01*
X131654779Y-94881723D02*
X131702398Y-94976961D01*
X131702398Y-94976961D02*
X131797636Y-95072200D01*
X131797636Y-95072200D02*
X131940493Y-95119819D01*
X131940493Y-95119819D02*
X132035731Y-95119819D01*
X132035731Y-95119819D02*
X132178588Y-95072200D01*
X132178588Y-95072200D02*
X132226207Y-95024580D01*
X132226207Y-95024580D02*
X132226207Y-94691247D01*
X132226207Y-94691247D02*
X132035731Y-94691247D01*
X132654779Y-95119819D02*
X132654779Y-94119819D01*
X132654779Y-94119819D02*
X133226207Y-95119819D01*
X133226207Y-95119819D02*
X133226207Y-94119819D01*
X133702398Y-95119819D02*
X133702398Y-94119819D01*
X133702398Y-94119819D02*
X133940493Y-94119819D01*
X133940493Y-94119819D02*
X134083350Y-94167438D01*
X134083350Y-94167438D02*
X134178588Y-94262676D01*
X134178588Y-94262676D02*
X134226207Y-94357914D01*
X134226207Y-94357914D02*
X134273826Y-94548390D01*
X134273826Y-94548390D02*
X134273826Y-94691247D01*
X134273826Y-94691247D02*
X134226207Y-94881723D01*
X134226207Y-94881723D02*
X134178588Y-94976961D01*
X134178588Y-94976961D02*
X134083350Y-95072200D01*
X134083350Y-95072200D02*
X133940493Y-95119819D01*
X133940493Y-95119819D02*
X133702398Y-95119819D01*
D11*
X140387101Y-83941219D02*
X140053768Y-83465028D01*
X139815673Y-83941219D02*
X139815673Y-82941219D01*
X139815673Y-82941219D02*
X140196625Y-82941219D01*
X140196625Y-82941219D02*
X140291863Y-82988838D01*
X140291863Y-82988838D02*
X140339482Y-83036457D01*
X140339482Y-83036457D02*
X140387101Y-83131695D01*
X140387101Y-83131695D02*
X140387101Y-83274552D01*
X140387101Y-83274552D02*
X140339482Y-83369790D01*
X140339482Y-83369790D02*
X140291863Y-83417409D01*
X140291863Y-83417409D02*
X140196625Y-83465028D01*
X140196625Y-83465028D02*
X139815673Y-83465028D01*
X141196625Y-83893600D02*
X141101387Y-83941219D01*
X141101387Y-83941219D02*
X140910911Y-83941219D01*
X140910911Y-83941219D02*
X140815673Y-83893600D01*
X140815673Y-83893600D02*
X140768054Y-83798361D01*
X140768054Y-83798361D02*
X140768054Y-83417409D01*
X140768054Y-83417409D02*
X140815673Y-83322171D01*
X140815673Y-83322171D02*
X140910911Y-83274552D01*
X140910911Y-83274552D02*
X141101387Y-83274552D01*
X141101387Y-83274552D02*
X141196625Y-83322171D01*
X141196625Y-83322171D02*
X141244244Y-83417409D01*
X141244244Y-83417409D02*
X141244244Y-83512647D01*
X141244244Y-83512647D02*
X140768054Y-83607885D01*
X141577578Y-83274552D02*
X141815673Y-83941219D01*
X141815673Y-83941219D02*
X142053768Y-83274552D01*
X142196626Y-84036457D02*
X142958530Y-84036457D01*
X143625197Y-83941219D02*
X143625197Y-83417409D01*
X143625197Y-83417409D02*
X143577578Y-83322171D01*
X143577578Y-83322171D02*
X143482340Y-83274552D01*
X143482340Y-83274552D02*
X143291864Y-83274552D01*
X143291864Y-83274552D02*
X143196626Y-83322171D01*
X143625197Y-83893600D02*
X143529959Y-83941219D01*
X143529959Y-83941219D02*
X143291864Y-83941219D01*
X143291864Y-83941219D02*
X143196626Y-83893600D01*
X143196626Y-83893600D02*
X143149007Y-83798361D01*
X143149007Y-83798361D02*
X143149007Y-83703123D01*
X143149007Y-83703123D02*
X143196626Y-83607885D01*
X143196626Y-83607885D02*
X143291864Y-83560266D01*
X143291864Y-83560266D02*
X143529959Y-83560266D01*
X143529959Y-83560266D02*
X143625197Y-83512647D01*
D12*
G36*
X148867812Y-92313125D02*
G01*
X148784468Y-92313125D01*
X148784468Y-91741625D01*
X148867812Y-91741625D01*
X148867812Y-92313125D01*
G37*
G36*
X140160375Y-92245656D02*
G01*
X140489781Y-92245656D01*
X140489781Y-92313125D01*
X140073062Y-92313125D01*
X140073062Y-91741625D01*
X140160375Y-91741625D01*
X140160375Y-92245656D01*
G37*
G36*
X146371468Y-91809094D02*
G01*
X146367499Y-91813063D01*
X146125406Y-91813063D01*
X146125406Y-92313125D01*
X146042062Y-92313125D01*
X146040325Y-92300651D01*
X146039566Y-92294663D01*
X146038905Y-92288753D01*
X146038358Y-92282857D01*
X146037945Y-92276910D01*
X146037683Y-92270848D01*
X146037589Y-92264606D01*
X146037555Y-92252804D01*
X146037580Y-92240118D01*
X146037558Y-92226557D01*
X146037566Y-92182342D01*
X146037554Y-92151581D01*
X146037576Y-92087208D01*
X146037569Y-92012792D01*
X146037563Y-91941115D01*
X146037552Y-91910638D01*
X146037580Y-91868141D01*
X146037555Y-91855358D01*
X146037589Y-91843691D01*
X146037595Y-91833546D01*
X146037767Y-91830692D01*
X146037945Y-91828401D01*
X146038052Y-91827393D01*
X146038181Y-91826435D01*
X146038337Y-91825498D01*
X146038527Y-91824553D01*
X146038758Y-91823568D01*
X146039036Y-91822514D01*
X146039368Y-91821362D01*
X146039760Y-91820080D01*
X146040751Y-91817009D01*
X146042062Y-91813063D01*
X145796000Y-91813063D01*
X145796000Y-91741625D01*
X146371468Y-91741625D01*
X146371468Y-91809094D01*
G37*
G36*
X149772687Y-91809094D02*
G01*
X149427406Y-91809094D01*
X149427406Y-91983719D01*
X149748874Y-91983719D01*
X149748874Y-92051188D01*
X149427406Y-92051188D01*
X149427406Y-92245656D01*
X149780625Y-92245656D01*
X149780625Y-92313125D01*
X149340093Y-92313125D01*
X149340093Y-91741625D01*
X149772687Y-91741625D01*
X149772687Y-91809094D01*
G37*
G36*
X141242737Y-91775791D02*
G01*
X141261209Y-91810053D01*
X141279293Y-91844517D01*
X141296866Y-91879288D01*
X141304961Y-91895501D01*
X141313167Y-91911650D01*
X141321485Y-91927742D01*
X141329916Y-91943783D01*
X141354842Y-91991221D01*
X141379525Y-92038785D01*
X141383335Y-92046158D01*
X141406630Y-92091259D01*
X141437293Y-92150595D01*
X141448440Y-92172175D01*
X141466344Y-92206696D01*
X141484387Y-92241145D01*
X141491151Y-92254007D01*
X141503784Y-92277893D01*
X141509362Y-92288491D01*
X141514260Y-92297734D01*
X141515391Y-92300209D01*
X141515849Y-92301242D01*
X141516241Y-92302167D01*
X141516574Y-92303007D01*
X141516851Y-92303786D01*
X141517077Y-92304525D01*
X141517259Y-92305248D01*
X141517400Y-92305976D01*
X141517507Y-92306732D01*
X141517583Y-92307539D01*
X141517634Y-92308420D01*
X141517665Y-92309396D01*
X141517681Y-92310490D01*
X141517687Y-92313125D01*
X141422437Y-92313125D01*
X141404826Y-92279887D01*
X141399533Y-92269928D01*
X141386135Y-92244153D01*
X141373003Y-92218265D01*
X141347031Y-92166281D01*
X140997781Y-92166281D01*
X140926344Y-92309156D01*
X140925643Y-92309855D01*
X140925016Y-92310467D01*
X140924443Y-92310999D01*
X140924171Y-92311237D01*
X140923906Y-92311458D01*
X140923644Y-92311661D01*
X140923384Y-92311849D01*
X140923123Y-92312022D01*
X140922859Y-92312180D01*
X140922589Y-92312324D01*
X140922311Y-92312456D01*
X140922023Y-92312576D01*
X140921722Y-92312685D01*
X140921405Y-92312784D01*
X140921071Y-92312873D01*
X140920716Y-92312953D01*
X140920339Y-92313026D01*
X140919938Y-92313091D01*
X140919508Y-92313150D01*
X140919049Y-92313204D01*
X140918558Y-92313253D01*
X140917469Y-92313340D01*
X140916223Y-92313419D01*
X140913181Y-92313575D01*
X140901151Y-92313513D01*
X140888168Y-92313474D01*
X140874502Y-92313373D01*
X140860789Y-92313319D01*
X140827125Y-92313125D01*
X140837930Y-92289989D01*
X140848961Y-92266979D01*
X140871596Y-92221264D01*
X140894815Y-92175839D01*
X140918406Y-92130562D01*
X140938242Y-92092598D01*
X141033395Y-92092598D01*
X141033415Y-92093263D01*
X141033500Y-92094844D01*
X141311312Y-92094844D01*
X141309056Y-92088229D01*
X141306764Y-92081830D01*
X141304411Y-92075594D01*
X141301970Y-92069469D01*
X141299416Y-92063400D01*
X141296722Y-92057336D01*
X141293864Y-92051224D01*
X141290816Y-92045011D01*
X141287058Y-92037494D01*
X141274819Y-92013143D01*
X141266310Y-91996161D01*
X141243957Y-91951651D01*
X141221132Y-91906157D01*
X141176375Y-91817031D01*
X141172406Y-91817031D01*
X141150689Y-91858220D01*
X141129313Y-91899574D01*
X141108216Y-91941071D01*
X141087334Y-91982690D01*
X141066831Y-92023670D01*
X141053808Y-92049730D01*
X141047609Y-92062104D01*
X141041978Y-92073405D01*
X141036999Y-92083371D01*
X141035752Y-92085600D01*
X141035249Y-92086520D01*
X141034819Y-92087333D01*
X141034457Y-92088055D01*
X141034157Y-92088704D01*
X141033916Y-92089296D01*
X141033727Y-92089848D01*
X141033586Y-92090377D01*
X141033488Y-92090900D01*
X141033426Y-92091433D01*
X141033397Y-92091993D01*
X141033395Y-92092598D01*
X140938242Y-92092598D01*
X140941475Y-92086410D01*
X140947159Y-92075535D01*
X140973788Y-92024210D01*
X141000261Y-91972805D01*
X141031738Y-91911889D01*
X141063560Y-91851153D01*
X141092266Y-91796430D01*
X141120812Y-91741625D01*
X141224000Y-91741625D01*
X141242737Y-91775791D01*
G37*
G36*
X145254110Y-91776305D02*
G01*
X145271530Y-91810395D01*
X145283421Y-91833680D01*
X145316047Y-91897237D01*
X145349121Y-91960560D01*
X145372025Y-92004422D01*
X145394658Y-92048424D01*
X145424977Y-92107452D01*
X145455679Y-92166281D01*
X145478380Y-92209407D01*
X145500928Y-92252613D01*
X145508626Y-92267391D01*
X145519335Y-92287979D01*
X145525622Y-92300066D01*
X145527098Y-92303074D01*
X145528207Y-92305383D01*
X145529002Y-92307146D01*
X145529297Y-92307871D01*
X145529534Y-92308516D01*
X145529719Y-92309101D01*
X145529857Y-92309646D01*
X145529957Y-92310168D01*
X145530023Y-92310688D01*
X145530064Y-92311225D01*
X145530084Y-92311797D01*
X145530093Y-92313125D01*
X145430875Y-92313125D01*
X145413263Y-92279887D01*
X145407970Y-92269928D01*
X145394572Y-92244153D01*
X145381440Y-92218265D01*
X145355468Y-92166281D01*
X145010187Y-92166281D01*
X144992084Y-92200535D01*
X144979797Y-92224019D01*
X144967698Y-92247594D01*
X144950160Y-92282119D01*
X144934781Y-92313125D01*
X144839531Y-92313125D01*
X144843345Y-92301920D01*
X144845253Y-92296601D01*
X144847218Y-92291399D01*
X144849281Y-92286261D01*
X144851485Y-92281131D01*
X144853872Y-92275956D01*
X144856483Y-92270683D01*
X144861872Y-92260109D01*
X144867684Y-92248834D01*
X144873771Y-92236932D01*
X144893108Y-92199271D01*
X144905759Y-92174552D01*
X144939437Y-92109285D01*
X144947003Y-92094844D01*
X145045905Y-92094844D01*
X145323719Y-92094844D01*
X145293707Y-92031669D01*
X145263086Y-91968805D01*
X145256622Y-91955810D01*
X145243350Y-91929185D01*
X145223003Y-91888205D01*
X145210005Y-91862145D01*
X145203892Y-91849771D01*
X145198223Y-91838470D01*
X145193262Y-91828503D01*
X145191946Y-91825816D01*
X145191381Y-91824716D01*
X145190854Y-91823755D01*
X145190346Y-91822918D01*
X145189839Y-91822188D01*
X145189581Y-91821857D01*
X145189316Y-91821546D01*
X145189042Y-91821254D01*
X145188757Y-91820978D01*
X145188459Y-91820716D01*
X145188145Y-91820465D01*
X145187814Y-91820225D01*
X145187462Y-91819992D01*
X145186689Y-91819541D01*
X145185809Y-91819095D01*
X145184802Y-91818638D01*
X145183651Y-91818153D01*
X145180843Y-91817031D01*
X145128063Y-91922182D01*
X145103557Y-91971004D01*
X145079935Y-92018095D01*
X145070896Y-92036087D01*
X145058292Y-92061231D01*
X145054469Y-92068792D01*
X145052315Y-92072919D01*
X145050671Y-92076186D01*
X145050009Y-92077593D01*
X145049437Y-92078899D01*
X145048942Y-92080144D01*
X145048513Y-92081364D01*
X145048135Y-92082599D01*
X145047798Y-92083886D01*
X145047487Y-92085263D01*
X145047192Y-92086769D01*
X145046594Y-92090320D01*
X145045905Y-92094844D01*
X144947003Y-92094844D01*
X144973523Y-92044229D01*
X144992436Y-92008065D01*
X145011179Y-91971813D01*
X145018755Y-91957159D01*
X145053172Y-91890453D01*
X145072619Y-91852922D01*
X145092342Y-91815576D01*
X145112491Y-91778463D01*
X145133218Y-91741625D01*
X145236406Y-91741625D01*
X145254110Y-91776305D01*
G37*
G36*
X150493278Y-91719572D02*
G01*
X150519795Y-91721418D01*
X150545964Y-91724922D01*
X150571532Y-91730094D01*
X150596248Y-91736944D01*
X150619858Y-91745481D01*
X150642110Y-91755715D01*
X150652648Y-91761472D01*
X150662752Y-91767656D01*
X150672389Y-91774269D01*
X150681530Y-91781312D01*
X150687562Y-91787299D01*
X150693164Y-91793337D01*
X150698349Y-91799444D01*
X150703128Y-91805637D01*
X150707513Y-91811930D01*
X150711516Y-91818340D01*
X150715148Y-91824883D01*
X150718422Y-91831576D01*
X150721349Y-91838435D01*
X150723942Y-91845475D01*
X150726211Y-91852713D01*
X150728169Y-91860166D01*
X150729828Y-91867848D01*
X150731199Y-91875777D01*
X150732294Y-91883968D01*
X150733125Y-91892437D01*
X150732424Y-91893136D01*
X150731798Y-91893748D01*
X150731229Y-91894280D01*
X150730960Y-91894518D01*
X150730698Y-91894739D01*
X150730441Y-91894943D01*
X150730187Y-91895130D01*
X150729934Y-91895303D01*
X150729678Y-91895461D01*
X150729419Y-91895606D01*
X150729153Y-91895738D01*
X150728879Y-91895858D01*
X150728594Y-91895966D01*
X150728295Y-91896065D01*
X150727981Y-91896154D01*
X150727650Y-91896234D01*
X150727298Y-91896307D01*
X150726924Y-91896372D01*
X150726526Y-91896431D01*
X150726101Y-91896485D01*
X150725646Y-91896534D01*
X150724641Y-91896622D01*
X150723492Y-91896700D01*
X150720690Y-91896857D01*
X150709668Y-91896794D01*
X150697770Y-91896755D01*
X150685251Y-91896654D01*
X150672686Y-91896600D01*
X150641843Y-91896406D01*
X150638774Y-91886992D01*
X150634895Y-91875896D01*
X150632876Y-91870655D01*
X150630768Y-91865610D01*
X150628546Y-91860757D01*
X150626182Y-91856088D01*
X150623652Y-91851598D01*
X150620927Y-91847282D01*
X150617983Y-91843132D01*
X150614793Y-91839144D01*
X150611330Y-91835311D01*
X150607569Y-91831628D01*
X150603482Y-91828088D01*
X150599044Y-91824686D01*
X150594228Y-91821416D01*
X150589009Y-91818271D01*
X150577927Y-91813568D01*
X150566387Y-91809366D01*
X150554449Y-91805670D01*
X150542173Y-91802481D01*
X150529619Y-91799803D01*
X150516848Y-91797639D01*
X150503920Y-91795992D01*
X150490895Y-91794866D01*
X150477833Y-91794264D01*
X150464794Y-91794188D01*
X150451838Y-91794642D01*
X150439026Y-91795630D01*
X150426417Y-91797153D01*
X150414073Y-91799215D01*
X150402052Y-91801820D01*
X150390416Y-91804970D01*
X150384684Y-91807290D01*
X150379162Y-91809681D01*
X150373844Y-91812160D01*
X150368724Y-91814745D01*
X150363794Y-91817456D01*
X150359049Y-91820309D01*
X150354483Y-91823324D01*
X150350089Y-91826517D01*
X150345860Y-91829908D01*
X150341792Y-91833514D01*
X150337876Y-91837354D01*
X150334107Y-91841445D01*
X150330479Y-91845806D01*
X150326985Y-91850454D01*
X150323619Y-91855409D01*
X150320375Y-91860687D01*
X150319046Y-91864958D01*
X150317900Y-91869254D01*
X150316936Y-91873571D01*
X150316157Y-91877905D01*
X150315563Y-91882252D01*
X150315156Y-91886606D01*
X150314937Y-91890965D01*
X150314907Y-91895322D01*
X150315067Y-91899675D01*
X150315418Y-91904019D01*
X150315962Y-91908349D01*
X150316700Y-91912661D01*
X150317633Y-91916951D01*
X150318762Y-91921214D01*
X150320089Y-91925447D01*
X150321614Y-91929644D01*
X150327055Y-91934590D01*
X150332744Y-91939074D01*
X150338661Y-91943125D01*
X150344788Y-91946774D01*
X150351103Y-91950050D01*
X150357589Y-91952983D01*
X150364224Y-91955602D01*
X150370990Y-91957937D01*
X150377866Y-91960019D01*
X150384834Y-91961876D01*
X150391873Y-91963538D01*
X150398964Y-91965035D01*
X150413223Y-91967653D01*
X150427453Y-91969967D01*
X150442024Y-91972438D01*
X150464910Y-91976252D01*
X150487805Y-91979998D01*
X150554016Y-91991034D01*
X150604249Y-91999928D01*
X150624251Y-92003874D01*
X150641311Y-92007647D01*
X150655780Y-92011368D01*
X150668009Y-92015158D01*
X150678348Y-92019136D01*
X150687148Y-92023425D01*
X150694760Y-92028144D01*
X150701535Y-92033415D01*
X150707824Y-92039358D01*
X150713977Y-92046094D01*
X150727280Y-92062427D01*
X150731575Y-92069152D01*
X150735377Y-92075935D01*
X150738706Y-92082776D01*
X150741585Y-92089679D01*
X150744035Y-92096646D01*
X150746080Y-92103679D01*
X150747739Y-92110782D01*
X150749037Y-92117955D01*
X150749994Y-92125202D01*
X150750632Y-92132524D01*
X150750974Y-92139925D01*
X150751040Y-92147407D01*
X150750854Y-92154972D01*
X150750438Y-92162622D01*
X150749812Y-92170360D01*
X150748999Y-92178188D01*
X150747739Y-92183646D01*
X150746316Y-92188977D01*
X150744732Y-92194186D01*
X150742984Y-92199281D01*
X150741074Y-92204265D01*
X150739002Y-92209147D01*
X150736767Y-92213931D01*
X150734368Y-92218623D01*
X150731807Y-92223230D01*
X150729083Y-92227758D01*
X150726196Y-92232212D01*
X150723146Y-92236599D01*
X150719932Y-92240925D01*
X150716556Y-92245195D01*
X150713015Y-92249416D01*
X150709312Y-92253594D01*
X150702816Y-92260741D01*
X150697234Y-92265972D01*
X150691461Y-92270938D01*
X150685507Y-92275646D01*
X150679380Y-92280103D01*
X150666645Y-92288287D01*
X150653327Y-92295543D01*
X150639498Y-92301922D01*
X150625227Y-92307478D01*
X150610587Y-92312261D01*
X150595649Y-92316324D01*
X150580483Y-92319719D01*
X150565162Y-92322499D01*
X150549756Y-92324714D01*
X150534336Y-92326417D01*
X150518974Y-92327661D01*
X150503741Y-92328497D01*
X150473946Y-92329155D01*
X150458624Y-92328778D01*
X150443368Y-92328063D01*
X150428203Y-92326962D01*
X150413154Y-92325428D01*
X150398243Y-92323417D01*
X150383497Y-92320880D01*
X150368938Y-92317771D01*
X150354592Y-92314045D01*
X150340483Y-92309653D01*
X150326635Y-92304551D01*
X150313073Y-92298691D01*
X150299820Y-92292027D01*
X150286901Y-92284513D01*
X150274341Y-92276101D01*
X150262164Y-92266745D01*
X150250394Y-92256400D01*
X150244980Y-92249898D01*
X150240004Y-92243286D01*
X150235445Y-92236564D01*
X150231284Y-92229731D01*
X150227502Y-92222783D01*
X150224078Y-92215721D01*
X150220994Y-92208543D01*
X150218229Y-92201248D01*
X150215765Y-92193834D01*
X150213581Y-92186300D01*
X150211659Y-92178645D01*
X150209978Y-92170867D01*
X150208519Y-92162965D01*
X150207263Y-92154937D01*
X150206190Y-92146783D01*
X150205280Y-92138500D01*
X150296562Y-92138500D01*
X150308468Y-92178188D01*
X150311566Y-92184485D01*
X150314884Y-92190361D01*
X150318420Y-92195841D01*
X150322174Y-92200950D01*
X150326146Y-92205715D01*
X150330336Y-92210160D01*
X150334744Y-92214312D01*
X150339368Y-92218196D01*
X150344210Y-92221837D01*
X150349267Y-92225262D01*
X150354541Y-92228496D01*
X150360030Y-92231564D01*
X150365735Y-92234493D01*
X150371655Y-92237307D01*
X150377789Y-92240032D01*
X150384138Y-92242695D01*
X150397185Y-92246601D01*
X150410716Y-92249964D01*
X150424655Y-92252769D01*
X150438929Y-92255003D01*
X150453463Y-92256652D01*
X150468183Y-92257701D01*
X150483015Y-92258138D01*
X150497883Y-92257948D01*
X150512715Y-92257117D01*
X150527435Y-92255632D01*
X150541970Y-92253479D01*
X150556244Y-92250643D01*
X150570184Y-92247111D01*
X150583716Y-92242869D01*
X150596764Y-92237903D01*
X150609256Y-92232200D01*
X150613464Y-92229527D01*
X150617528Y-92226799D01*
X150621449Y-92224005D01*
X150625225Y-92221135D01*
X150628857Y-92218178D01*
X150632345Y-92215125D01*
X150635687Y-92211964D01*
X150638885Y-92208684D01*
X150641937Y-92205277D01*
X150644843Y-92201730D01*
X150647603Y-92198034D01*
X150650217Y-92194178D01*
X150652685Y-92190152D01*
X150655006Y-92185945D01*
X150657179Y-92181547D01*
X150659206Y-92176947D01*
X150659920Y-92172467D01*
X150660512Y-92168119D01*
X150660971Y-92163889D01*
X150661285Y-92159765D01*
X150661442Y-92155731D01*
X150661431Y-92151775D01*
X150661240Y-92147882D01*
X150660858Y-92144039D01*
X150660273Y-92140232D01*
X150659474Y-92136448D01*
X150658449Y-92132673D01*
X150657187Y-92128893D01*
X150655676Y-92125093D01*
X150653904Y-92121262D01*
X150651860Y-92117384D01*
X150649532Y-92113447D01*
X150644999Y-92109495D01*
X150640318Y-92105787D01*
X150635495Y-92102313D01*
X150630538Y-92099065D01*
X150620252Y-92093206D01*
X150609518Y-92088137D01*
X150598395Y-92083784D01*
X150586940Y-92080072D01*
X150575214Y-92076926D01*
X150563275Y-92074274D01*
X150551181Y-92072041D01*
X150538991Y-92070152D01*
X150514557Y-92067112D01*
X150467116Y-92061905D01*
X150411024Y-92054602D01*
X150368295Y-92048470D01*
X150351148Y-92045569D01*
X150336389Y-92042633D01*
X150323700Y-92039552D01*
X150312764Y-92036217D01*
X150303262Y-92032518D01*
X150294877Y-92028347D01*
X150287292Y-92023594D01*
X150280189Y-92018149D01*
X150273250Y-92011904D01*
X150266157Y-92004748D01*
X150250239Y-91987269D01*
X150245717Y-91980412D01*
X150241704Y-91973490D01*
X150238175Y-91966502D01*
X150235106Y-91959444D01*
X150232472Y-91952316D01*
X150230247Y-91945115D01*
X150228409Y-91937838D01*
X150226930Y-91930484D01*
X150225788Y-91923051D01*
X150224957Y-91915537D01*
X150224413Y-91907939D01*
X150224130Y-91900256D01*
X150224085Y-91892485D01*
X150224252Y-91884624D01*
X150224607Y-91876671D01*
X150225124Y-91868625D01*
X150227291Y-91860281D01*
X150229812Y-91852215D01*
X150232681Y-91844420D01*
X150235892Y-91836884D01*
X150239439Y-91829599D01*
X150243316Y-91822556D01*
X150247518Y-91815746D01*
X150252037Y-91809158D01*
X150256868Y-91802784D01*
X150262006Y-91796615D01*
X150267443Y-91790641D01*
X150273174Y-91784853D01*
X150279194Y-91779242D01*
X150285495Y-91773798D01*
X150292072Y-91768512D01*
X150298918Y-91763375D01*
X150319128Y-91752295D01*
X150341010Y-91742797D01*
X150364312Y-91734891D01*
X150388781Y-91728587D01*
X150414164Y-91723893D01*
X150440210Y-91720819D01*
X150466665Y-91719376D01*
X150493278Y-91719572D01*
G37*
G36*
X144253068Y-91740405D02*
G01*
X144277850Y-91741204D01*
X144290148Y-91742023D01*
X144302360Y-91743193D01*
X144314468Y-91744768D01*
X144326452Y-91746802D01*
X144338295Y-91749347D01*
X144349979Y-91752457D01*
X144361486Y-91756187D01*
X144372796Y-91760589D01*
X144383892Y-91765718D01*
X144394755Y-91771625D01*
X144405368Y-91778367D01*
X144415711Y-91785994D01*
X144420531Y-91791269D01*
X144424919Y-91796817D01*
X144428895Y-91802618D01*
X144432479Y-91808646D01*
X144435689Y-91814880D01*
X144438544Y-91821297D01*
X144441065Y-91827874D01*
X144443269Y-91834587D01*
X144445177Y-91841413D01*
X144446807Y-91848331D01*
X144448179Y-91855316D01*
X144449311Y-91862346D01*
X144450224Y-91869397D01*
X144450935Y-91876448D01*
X144451466Y-91883474D01*
X144451833Y-91890453D01*
X144451500Y-91896986D01*
X144450895Y-91903443D01*
X144450020Y-91909820D01*
X144448877Y-91916115D01*
X144447467Y-91922322D01*
X144445792Y-91928437D01*
X144443854Y-91934458D01*
X144441655Y-91940380D01*
X144439196Y-91946198D01*
X144436480Y-91951910D01*
X144433509Y-91957511D01*
X144430283Y-91962998D01*
X144426805Y-91968365D01*
X144423076Y-91973611D01*
X144419099Y-91978730D01*
X144414875Y-91983719D01*
X144410613Y-91987354D01*
X144406323Y-91990819D01*
X144401997Y-91994118D01*
X144397629Y-91997254D01*
X144393212Y-92000230D01*
X144388739Y-92003050D01*
X144384203Y-92005717D01*
X144379598Y-92008234D01*
X144374918Y-92010606D01*
X144370154Y-92012835D01*
X144365302Y-92014925D01*
X144360354Y-92016879D01*
X144355303Y-92018701D01*
X144350143Y-92020394D01*
X144344867Y-92021961D01*
X144339468Y-92023406D01*
X144349049Y-92027499D01*
X144354966Y-92030258D01*
X144360598Y-92033009D01*
X144365956Y-92035785D01*
X144371048Y-92038617D01*
X144375885Y-92041539D01*
X144380475Y-92044581D01*
X144384828Y-92047776D01*
X144388954Y-92051156D01*
X144392863Y-92054753D01*
X144396563Y-92058599D01*
X144400064Y-92062726D01*
X144403376Y-92067165D01*
X144406508Y-92071950D01*
X144409470Y-92077111D01*
X144412271Y-92082682D01*
X144414920Y-92088693D01*
X144419168Y-92101737D01*
X144422929Y-92114810D01*
X144426268Y-92127924D01*
X144429251Y-92141092D01*
X144431944Y-92154327D01*
X144434412Y-92167641D01*
X144438935Y-92194559D01*
X144441832Y-92212189D01*
X144444779Y-92229812D01*
X144446205Y-92238259D01*
X144447513Y-92245355D01*
X144448940Y-92252382D01*
X144450492Y-92259351D01*
X144452175Y-92266275D01*
X144453992Y-92273163D01*
X144455949Y-92280028D01*
X144458052Y-92286879D01*
X144460305Y-92293729D01*
X144461029Y-92296224D01*
X144461322Y-92297280D01*
X144461574Y-92298245D01*
X144461786Y-92299148D01*
X144461964Y-92300018D01*
X144462109Y-92300883D01*
X144462225Y-92301771D01*
X144462316Y-92302710D01*
X144462384Y-92303730D01*
X144462432Y-92304859D01*
X144462465Y-92306124D01*
X144462495Y-92309180D01*
X144462499Y-92313125D01*
X144375187Y-92313125D01*
X144367407Y-92294848D01*
X144364933Y-92288784D01*
X144363155Y-92284068D01*
X144361886Y-92280170D01*
X144360939Y-92276565D01*
X144360128Y-92272724D01*
X144359266Y-92268121D01*
X144357498Y-92258807D01*
X144355731Y-92249020D01*
X144351723Y-92228022D01*
X144345640Y-92195288D01*
X144342648Y-92179362D01*
X144339608Y-92163444D01*
X144337865Y-92153682D01*
X144335864Y-92144185D01*
X144334738Y-92139522D01*
X144333511Y-92134920D01*
X144332172Y-92130382D01*
X144330710Y-92125913D01*
X144329113Y-92121514D01*
X144327369Y-92117190D01*
X144325466Y-92112944D01*
X144323393Y-92108778D01*
X144321139Y-92104697D01*
X144318690Y-92100703D01*
X144316036Y-92096799D01*
X144313166Y-92092990D01*
X144310066Y-92089278D01*
X144306726Y-92085666D01*
X144299993Y-92081782D01*
X144293228Y-92078355D01*
X144286426Y-92075356D01*
X144279583Y-92072755D01*
X144272695Y-92070522D01*
X144265757Y-92068629D01*
X144258767Y-92067044D01*
X144251719Y-92065740D01*
X144244610Y-92064686D01*
X144237435Y-92063853D01*
X144230191Y-92063211D01*
X144222873Y-92062731D01*
X144207998Y-92062138D01*
X144192779Y-92061838D01*
X144180558Y-92061614D01*
X144135574Y-92060861D01*
X144033874Y-92059125D01*
X144033874Y-92313125D01*
X143946562Y-92313125D01*
X143946562Y-91991656D01*
X144033874Y-91991656D01*
X144120909Y-91992092D01*
X144150457Y-91992255D01*
X144193167Y-91992431D01*
X144206303Y-91992555D01*
X144223134Y-91992419D01*
X144240044Y-91991827D01*
X144248485Y-91991278D01*
X144256895Y-91990515D01*
X144265257Y-91989506D01*
X144273552Y-91988218D01*
X144281765Y-91986617D01*
X144289877Y-91984671D01*
X144297873Y-91982345D01*
X144305735Y-91979608D01*
X144313445Y-91976425D01*
X144320988Y-91972764D01*
X144328345Y-91968592D01*
X144335499Y-91963875D01*
X144338002Y-91961284D01*
X144340387Y-91958676D01*
X144342649Y-91956043D01*
X144344785Y-91953378D01*
X144346792Y-91950673D01*
X144348667Y-91947922D01*
X144350405Y-91945117D01*
X144352002Y-91942251D01*
X144353457Y-91939317D01*
X144354763Y-91936307D01*
X144355919Y-91933214D01*
X144356921Y-91930030D01*
X144357765Y-91926750D01*
X144358447Y-91923364D01*
X144358964Y-91919867D01*
X144359312Y-91916250D01*
X144359916Y-91908343D01*
X144360071Y-91903560D01*
X144360111Y-91898816D01*
X144360025Y-91894113D01*
X144359801Y-91889454D01*
X144359428Y-91884840D01*
X144358893Y-91880273D01*
X144358186Y-91875757D01*
X144357294Y-91871292D01*
X144356205Y-91866881D01*
X144354909Y-91862527D01*
X144353393Y-91858230D01*
X144351645Y-91853994D01*
X144349654Y-91849821D01*
X144347408Y-91845712D01*
X144344895Y-91841670D01*
X144342104Y-91837697D01*
X144339333Y-91835082D01*
X144336478Y-91832625D01*
X144333543Y-91830318D01*
X144330531Y-91828159D01*
X144327445Y-91826142D01*
X144324291Y-91824261D01*
X144317789Y-91820893D01*
X144311055Y-91818015D01*
X144304120Y-91815590D01*
X144297013Y-91813578D01*
X144289764Y-91811942D01*
X144282405Y-91810643D01*
X144274964Y-91809642D01*
X144267471Y-91808901D01*
X144259958Y-91808381D01*
X144244989Y-91807851D01*
X144230298Y-91807745D01*
X144215258Y-91807931D01*
X144199447Y-91807982D01*
X144178895Y-91808096D01*
X144158344Y-91808276D01*
X144116195Y-91808512D01*
X144033874Y-91809094D01*
X144033874Y-91991656D01*
X143946562Y-91991656D01*
X143946562Y-91741625D01*
X144119698Y-91740881D01*
X144174046Y-91740552D01*
X144206647Y-91740488D01*
X144217404Y-91740444D01*
X144228160Y-91740368D01*
X144253068Y-91740405D01*
G37*
G36*
X148154000Y-91741011D02*
G01*
X148165997Y-91741716D01*
X148177896Y-91742744D01*
X148189690Y-91744147D01*
X148201368Y-91745977D01*
X148212923Y-91748287D01*
X148224346Y-91751130D01*
X148235627Y-91754558D01*
X148246759Y-91758622D01*
X148257732Y-91763377D01*
X148268539Y-91768874D01*
X148279169Y-91775166D01*
X148289614Y-91782304D01*
X148294878Y-91787989D01*
X148299687Y-91793790D01*
X148304058Y-91799711D01*
X148308010Y-91805753D01*
X148311560Y-91811916D01*
X148314727Y-91818204D01*
X148317528Y-91824616D01*
X148319983Y-91831156D01*
X148322109Y-91837824D01*
X148323924Y-91844621D01*
X148325447Y-91851550D01*
X148326694Y-91858612D01*
X148327686Y-91865809D01*
X148328439Y-91873141D01*
X148328972Y-91880612D01*
X148329302Y-91888221D01*
X148329010Y-91895616D01*
X148328469Y-91902814D01*
X148327668Y-91909823D01*
X148326594Y-91916653D01*
X148325238Y-91923311D01*
X148323586Y-91929806D01*
X148321629Y-91936147D01*
X148319355Y-91942343D01*
X148316752Y-91948401D01*
X148313809Y-91954330D01*
X148310515Y-91960140D01*
X148306858Y-91965838D01*
X148302827Y-91971434D01*
X148298410Y-91976934D01*
X148293596Y-91982350D01*
X148288375Y-91987687D01*
X148280428Y-91993539D01*
X148276455Y-91996314D01*
X148272470Y-91998987D01*
X148268467Y-92001561D01*
X148264437Y-92004036D01*
X148260372Y-92006411D01*
X148256264Y-92008688D01*
X148252106Y-92010866D01*
X148247889Y-92012947D01*
X148243605Y-92014931D01*
X148239246Y-92016818D01*
X148234805Y-92018608D01*
X148230273Y-92020303D01*
X148225643Y-92021902D01*
X148220906Y-92023406D01*
X148227851Y-92026802D01*
X148234196Y-92030120D01*
X148240209Y-92033467D01*
X148245902Y-92036871D01*
X148251288Y-92040360D01*
X148256380Y-92043962D01*
X148261190Y-92047706D01*
X148265731Y-92051621D01*
X148270015Y-92055736D01*
X148274056Y-92060078D01*
X148277865Y-92064677D01*
X148281456Y-92069560D01*
X148284841Y-92074756D01*
X148288033Y-92080295D01*
X148291044Y-92086204D01*
X148293887Y-92092512D01*
X148296575Y-92099247D01*
X148299900Y-92110212D01*
X148302859Y-92121260D01*
X148305508Y-92132380D01*
X148307901Y-92143558D01*
X148310095Y-92154783D01*
X148312144Y-92166040D01*
X148316032Y-92188605D01*
X148318085Y-92200617D01*
X148320051Y-92212349D01*
X148321977Y-92224087D01*
X148323487Y-92232734D01*
X148325122Y-92241314D01*
X148326882Y-92249839D01*
X148328770Y-92258322D01*
X148330788Y-92266776D01*
X148332938Y-92275212D01*
X148335223Y-92283644D01*
X148337643Y-92292085D01*
X148338410Y-92295123D01*
X148338987Y-92297551D01*
X148339213Y-92298614D01*
X148339400Y-92299616D01*
X148339554Y-92300590D01*
X148339678Y-92301565D01*
X148339773Y-92302573D01*
X148339846Y-92303644D01*
X148339897Y-92304809D01*
X148339932Y-92306099D01*
X148339964Y-92309177D01*
X148339968Y-92313125D01*
X148252655Y-92313125D01*
X148244875Y-92292269D01*
X148242402Y-92285414D01*
X148240624Y-92280169D01*
X148239355Y-92275954D01*
X148238408Y-92272191D01*
X148237597Y-92268300D01*
X148236735Y-92263702D01*
X148234966Y-92254388D01*
X148233199Y-92244664D01*
X148229192Y-92223704D01*
X148223108Y-92191102D01*
X148220116Y-92175214D01*
X148217076Y-92159336D01*
X148215333Y-92149612D01*
X148213466Y-92140555D01*
X148211287Y-92131510D01*
X148210043Y-92127027D01*
X148208677Y-92122589D01*
X148207174Y-92118209D01*
X148205518Y-92113902D01*
X148203695Y-92109681D01*
X148201691Y-92105560D01*
X148199490Y-92101553D01*
X148197077Y-92097674D01*
X148194439Y-92093937D01*
X148191559Y-92090355D01*
X148188423Y-92086942D01*
X148185016Y-92083713D01*
X148176505Y-92079465D01*
X148168149Y-92075031D01*
X148162239Y-92072947D01*
X148156338Y-92071089D01*
X148150440Y-92069445D01*
X148144543Y-92068002D01*
X148138641Y-92066746D01*
X148132730Y-92065663D01*
X148126806Y-92064741D01*
X148120865Y-92063965D01*
X148108913Y-92062802D01*
X148096839Y-92062066D01*
X148084608Y-92061651D01*
X148072186Y-92061451D01*
X148059765Y-92061238D01*
X148014282Y-92060613D01*
X147911343Y-92059125D01*
X147911343Y-92313125D01*
X147824031Y-92313125D01*
X147824031Y-91991656D01*
X147911343Y-91991656D01*
X147998378Y-91992092D01*
X148027926Y-91992255D01*
X148070636Y-91992431D01*
X148083772Y-91992555D01*
X148102325Y-91992390D01*
X148121012Y-91991641D01*
X148130334Y-91990932D01*
X148139601Y-91989939D01*
X148148785Y-91988616D01*
X148157857Y-91986915D01*
X148166788Y-91984792D01*
X148175548Y-91982199D01*
X148184108Y-91979091D01*
X148192439Y-91975421D01*
X148200512Y-91971144D01*
X148208297Y-91966212D01*
X148215766Y-91960580D01*
X148222890Y-91954201D01*
X148225725Y-91949067D01*
X148228242Y-91943903D01*
X148230449Y-91938708D01*
X148232357Y-91933480D01*
X148233973Y-91928218D01*
X148235306Y-91922919D01*
X148236367Y-91917581D01*
X148237162Y-91912203D01*
X148237702Y-91906784D01*
X148237995Y-91901320D01*
X148238051Y-91895812D01*
X148237878Y-91890256D01*
X148237484Y-91884651D01*
X148236880Y-91878995D01*
X148236074Y-91873287D01*
X148235075Y-91867524D01*
X148233754Y-91863569D01*
X148232307Y-91859795D01*
X148230731Y-91856194D01*
X148229022Y-91852757D01*
X148227178Y-91849475D01*
X148225197Y-91846338D01*
X148223073Y-91843339D01*
X148220805Y-91840467D01*
X148218390Y-91837713D01*
X148215824Y-91835069D01*
X148213105Y-91832526D01*
X148210228Y-91830074D01*
X148207192Y-91827705D01*
X148203993Y-91825409D01*
X148200627Y-91823177D01*
X148197093Y-91821000D01*
X148190655Y-91818806D01*
X148184225Y-91816862D01*
X148177799Y-91815154D01*
X148171372Y-91813667D01*
X148164941Y-91812388D01*
X148158502Y-91811301D01*
X148152050Y-91810394D01*
X148145581Y-91809651D01*
X148139091Y-91809058D01*
X148132576Y-91808602D01*
X148119454Y-91808042D01*
X148106182Y-91807856D01*
X148092727Y-91807931D01*
X148076915Y-91807982D01*
X148056363Y-91808096D01*
X148035813Y-91808276D01*
X147993664Y-91808512D01*
X147911343Y-91809094D01*
X147911343Y-91991656D01*
X147824031Y-91991656D01*
X147824031Y-91741625D01*
X147996919Y-91740881D01*
X148051157Y-91740552D01*
X148083737Y-91740488D01*
X148094474Y-91740444D01*
X148105211Y-91740368D01*
X148129748Y-91740359D01*
X148154000Y-91741011D01*
G37*
G36*
X147085785Y-91723431D02*
G01*
X147106312Y-91725129D01*
X147126698Y-91727814D01*
X147146873Y-91731521D01*
X147166767Y-91736290D01*
X147186311Y-91742156D01*
X147205435Y-91749156D01*
X147224070Y-91757329D01*
X147242146Y-91766711D01*
X147259594Y-91777339D01*
X147276343Y-91789250D01*
X147287374Y-91799019D01*
X147297848Y-91809261D01*
X147307757Y-91819954D01*
X147317090Y-91831079D01*
X147325837Y-91842613D01*
X147333988Y-91854538D01*
X147341533Y-91866830D01*
X147348461Y-91879471D01*
X147354762Y-91892439D01*
X147360426Y-91905714D01*
X147365444Y-91919274D01*
X147369805Y-91933099D01*
X147373498Y-91947169D01*
X147376514Y-91961462D01*
X147378843Y-91975957D01*
X147380474Y-91990635D01*
X147381043Y-92008189D01*
X147381050Y-92025427D01*
X147380460Y-92042357D01*
X147379240Y-92058989D01*
X147377356Y-92075330D01*
X147374776Y-92091392D01*
X147371466Y-92107181D01*
X147367392Y-92122708D01*
X147362521Y-92137982D01*
X147356819Y-92153010D01*
X147350254Y-92167804D01*
X147342792Y-92182371D01*
X147334399Y-92196721D01*
X147325042Y-92210862D01*
X147314688Y-92224804D01*
X147303303Y-92238556D01*
X147290543Y-92250526D01*
X147277284Y-92261493D01*
X147263557Y-92271492D01*
X147249392Y-92280558D01*
X147234817Y-92288725D01*
X147219865Y-92296028D01*
X147204563Y-92302502D01*
X147188944Y-92308181D01*
X147173035Y-92313101D01*
X147156868Y-92317296D01*
X147140473Y-92320801D01*
X147123879Y-92323650D01*
X147107117Y-92325879D01*
X147090215Y-92327522D01*
X147073206Y-92328614D01*
X147056118Y-92329190D01*
X147040742Y-92328909D01*
X147025356Y-92328159D01*
X147009996Y-92326914D01*
X146994694Y-92325148D01*
X146979484Y-92322833D01*
X146964399Y-92319944D01*
X146949474Y-92316453D01*
X146934742Y-92312335D01*
X146920237Y-92307561D01*
X146905992Y-92302107D01*
X146892041Y-92295945D01*
X146878418Y-92289050D01*
X146865156Y-92281393D01*
X146852289Y-92272949D01*
X146839850Y-92263692D01*
X146827874Y-92253594D01*
X146819177Y-92245997D01*
X146811581Y-92238624D01*
X146804431Y-92231072D01*
X146797708Y-92223340D01*
X146791394Y-92215430D01*
X146785468Y-92207341D01*
X146779913Y-92199075D01*
X146774709Y-92190631D01*
X146769838Y-92182011D01*
X146765280Y-92173214D01*
X146761017Y-92164242D01*
X146757029Y-92155095D01*
X146753298Y-92145773D01*
X146749805Y-92136277D01*
X146746530Y-92126607D01*
X146743456Y-92116765D01*
X146740562Y-92106750D01*
X146737601Y-92096952D01*
X146734268Y-92082026D01*
X146731821Y-92066930D01*
X146730232Y-92051705D01*
X146729475Y-92036390D01*
X146729512Y-92023993D01*
X146821833Y-92023993D01*
X146821942Y-92037046D01*
X146822539Y-92050095D01*
X146823599Y-92063111D01*
X146825097Y-92076062D01*
X146827282Y-92086622D01*
X146829874Y-92096994D01*
X146832877Y-92107168D01*
X146836291Y-92117134D01*
X146840117Y-92126880D01*
X146844359Y-92136397D01*
X146849018Y-92145674D01*
X146854095Y-92154700D01*
X146859592Y-92163465D01*
X146865510Y-92171959D01*
X146871853Y-92180171D01*
X146878620Y-92188090D01*
X146885815Y-92195707D01*
X146893438Y-92203010D01*
X146901492Y-92209989D01*
X146909978Y-92216635D01*
X146921912Y-92224120D01*
X146933986Y-92230781D01*
X146946199Y-92236650D01*
X146958548Y-92241760D01*
X146971030Y-92246144D01*
X146983643Y-92249835D01*
X146996384Y-92252866D01*
X147009252Y-92255269D01*
X147022243Y-92257078D01*
X147035356Y-92258325D01*
X147048587Y-92259044D01*
X147061936Y-92259267D01*
X147075398Y-92259027D01*
X147088972Y-92258356D01*
X147102655Y-92257289D01*
X147116446Y-92255857D01*
X147126987Y-92253290D01*
X147137373Y-92250208D01*
X147147586Y-92246624D01*
X147157606Y-92242552D01*
X147167414Y-92238008D01*
X147176992Y-92233005D01*
X147186322Y-92227556D01*
X147195384Y-92221677D01*
X147204160Y-92215381D01*
X147212631Y-92208682D01*
X147220778Y-92201595D01*
X147228583Y-92194133D01*
X147236026Y-92186311D01*
X147243090Y-92178143D01*
X147249755Y-92169643D01*
X147256003Y-92160824D01*
X147262303Y-92149465D01*
X147267994Y-92137872D01*
X147273080Y-92126066D01*
X147277563Y-92114066D01*
X147281445Y-92101894D01*
X147284730Y-92089568D01*
X147287419Y-92077111D01*
X147289515Y-92064542D01*
X147291021Y-92051880D01*
X147291940Y-92039148D01*
X147292274Y-92026364D01*
X147292025Y-92013549D01*
X147291196Y-92000724D01*
X147289790Y-91987908D01*
X147287810Y-91975122D01*
X147285257Y-91962387D01*
X147281962Y-91951448D01*
X147278322Y-91940811D01*
X147274326Y-91930474D01*
X147269964Y-91920437D01*
X147265228Y-91910699D01*
X147260106Y-91901261D01*
X147254590Y-91892121D01*
X147248669Y-91883280D01*
X147242334Y-91874736D01*
X147235574Y-91866490D01*
X147228381Y-91858540D01*
X147220743Y-91850888D01*
X147212652Y-91843531D01*
X147204097Y-91836470D01*
X147195069Y-91829703D01*
X147185558Y-91823232D01*
X147175574Y-91817995D01*
X147165440Y-91813229D01*
X147144782Y-91805103D01*
X147123708Y-91798835D01*
X147102340Y-91794406D01*
X147080800Y-91791797D01*
X147059210Y-91790989D01*
X147037694Y-91791963D01*
X147016374Y-91794701D01*
X146995371Y-91799182D01*
X146974809Y-91805388D01*
X146954810Y-91813301D01*
X146935497Y-91822900D01*
X146916991Y-91834167D01*
X146899416Y-91847083D01*
X146891016Y-91854154D01*
X146882894Y-91861630D01*
X146875066Y-91869508D01*
X146867547Y-91877787D01*
X146859880Y-91888583D01*
X146852996Y-91899730D01*
X146846872Y-91911199D01*
X146841481Y-91922959D01*
X146836800Y-91934982D01*
X146832805Y-91947237D01*
X146829469Y-91959695D01*
X146826769Y-91972327D01*
X146824680Y-91985102D01*
X146823178Y-91997991D01*
X146822237Y-92010964D01*
X146821833Y-92023993D01*
X146729512Y-92023993D01*
X146729521Y-92021025D01*
X146730344Y-92005650D01*
X146731917Y-91990306D01*
X146734212Y-91975033D01*
X146737201Y-91959870D01*
X146740858Y-91944858D01*
X146745156Y-91930036D01*
X146750066Y-91915446D01*
X146755561Y-91901126D01*
X146761615Y-91887117D01*
X146768200Y-91873459D01*
X146775289Y-91860192D01*
X146783746Y-91847516D01*
X146792702Y-91835510D01*
X146802145Y-91824163D01*
X146812061Y-91813465D01*
X146822439Y-91803406D01*
X146833266Y-91793974D01*
X146844531Y-91785160D01*
X146856219Y-91776952D01*
X146868321Y-91769341D01*
X146880822Y-91762315D01*
X146893711Y-91755865D01*
X146906976Y-91749979D01*
X146920603Y-91744648D01*
X146934581Y-91739860D01*
X146948898Y-91735605D01*
X146963541Y-91731874D01*
X146983457Y-91728434D01*
X147003650Y-91725758D01*
X147024048Y-91723883D01*
X147044583Y-91722845D01*
X147065185Y-91722682D01*
X147085785Y-91723431D01*
G37*
G36*
X143200687Y-91722113D02*
G01*
X143224499Y-91724179D01*
X143247731Y-91727487D01*
X143270199Y-91731993D01*
X143291718Y-91737656D01*
X143306089Y-91741888D01*
X143319878Y-91746752D01*
X143333194Y-91752189D01*
X143346044Y-91758192D01*
X143358431Y-91764752D01*
X143370360Y-91771861D01*
X143381834Y-91779512D01*
X143392859Y-91787697D01*
X143403439Y-91796407D01*
X143413577Y-91805636D01*
X143423279Y-91815374D01*
X143432548Y-91825614D01*
X143441389Y-91836348D01*
X143449807Y-91847568D01*
X143457805Y-91859266D01*
X143465388Y-91871435D01*
X143472560Y-91884066D01*
X143479604Y-91899903D01*
X143485703Y-91915962D01*
X143490875Y-91932217D01*
X143495136Y-91948639D01*
X143498504Y-91965202D01*
X143500995Y-91981879D01*
X143502628Y-91998642D01*
X143503418Y-92015465D01*
X143503384Y-92032319D01*
X143502541Y-92049179D01*
X143500907Y-92066016D01*
X143498500Y-92082804D01*
X143495336Y-92099515D01*
X143491432Y-92116123D01*
X143486806Y-92132599D01*
X143481474Y-92148918D01*
X143475587Y-92162349D01*
X143469100Y-92175291D01*
X143462031Y-92187742D01*
X143454393Y-92199703D01*
X143446202Y-92211171D01*
X143437472Y-92222148D01*
X143428220Y-92232631D01*
X143418460Y-92242620D01*
X143408207Y-92252115D01*
X143397476Y-92261115D01*
X143386282Y-92269619D01*
X143374641Y-92277626D01*
X143362567Y-92285136D01*
X143350076Y-92292148D01*
X143337183Y-92298662D01*
X143323902Y-92304676D01*
X143305913Y-92310731D01*
X143287433Y-92316018D01*
X143268536Y-92320517D01*
X143249296Y-92324208D01*
X143229787Y-92327072D01*
X143210083Y-92329088D01*
X143190259Y-92330238D01*
X143170388Y-92330502D01*
X143150544Y-92329859D01*
X143130801Y-92328292D01*
X143111234Y-92325779D01*
X143091916Y-92322301D01*
X143072922Y-92317839D01*
X143054324Y-92312373D01*
X143036199Y-92305883D01*
X143018619Y-92298351D01*
X143005735Y-92291682D01*
X142993312Y-92284613D01*
X142981355Y-92277133D01*
X142969870Y-92269234D01*
X142958863Y-92260908D01*
X142948340Y-92252144D01*
X142938307Y-92242935D01*
X142928770Y-92233270D01*
X142919735Y-92223142D01*
X142911207Y-92212541D01*
X142903192Y-92201458D01*
X142895698Y-92189884D01*
X142888728Y-92177810D01*
X142882290Y-92165227D01*
X142876389Y-92152127D01*
X142871031Y-92138500D01*
X142866239Y-92122843D01*
X142862144Y-92106967D01*
X142858755Y-92090909D01*
X142856083Y-92074707D01*
X142854140Y-92058398D01*
X142852936Y-92042021D01*
X142852482Y-92025613D01*
X142852490Y-92025143D01*
X142944949Y-92025143D01*
X142945080Y-92037279D01*
X142945540Y-92048746D01*
X142946434Y-92060027D01*
X142947768Y-92071123D01*
X142949552Y-92082031D01*
X142951793Y-92092753D01*
X142954501Y-92103285D01*
X142957684Y-92113629D01*
X142961350Y-92123782D01*
X142965507Y-92133745D01*
X142970165Y-92143515D01*
X142975331Y-92153093D01*
X142981014Y-92162477D01*
X142987222Y-92171667D01*
X142993965Y-92180662D01*
X143001249Y-92189461D01*
X143009085Y-92198062D01*
X143020297Y-92207542D01*
X143031728Y-92216041D01*
X143043375Y-92223606D01*
X143055236Y-92230284D01*
X143067307Y-92236122D01*
X143079586Y-92241166D01*
X143092069Y-92245464D01*
X143104755Y-92249062D01*
X143117640Y-92252007D01*
X143130721Y-92254346D01*
X143143995Y-92256125D01*
X143157461Y-92257393D01*
X143171114Y-92258194D01*
X143184951Y-92258577D01*
X143198971Y-92258588D01*
X143213171Y-92258274D01*
X143223539Y-92257324D01*
X143233835Y-92255821D01*
X143244039Y-92253782D01*
X143254131Y-92251223D01*
X143264092Y-92248162D01*
X143273900Y-92244615D01*
X143283536Y-92240599D01*
X143292979Y-92236130D01*
X143302210Y-92231226D01*
X143311209Y-92225904D01*
X143319954Y-92220180D01*
X143328427Y-92214071D01*
X143336607Y-92207595D01*
X143344474Y-92200767D01*
X143352007Y-92193605D01*
X143359187Y-92186125D01*
X143367807Y-92174334D01*
X143375594Y-92162308D01*
X143382569Y-92150058D01*
X143388755Y-92137591D01*
X143394175Y-92124918D01*
X143398851Y-92112049D01*
X143402806Y-92098991D01*
X143406062Y-92085756D01*
X143408641Y-92072352D01*
X143410567Y-92058789D01*
X143411862Y-92045076D01*
X143412548Y-92031223D01*
X143412647Y-92017239D01*
X143412183Y-92003133D01*
X143411177Y-91988916D01*
X143409653Y-91974595D01*
X143407584Y-91964256D01*
X143405075Y-91954139D01*
X143402133Y-91944248D01*
X143398765Y-91934583D01*
X143394976Y-91925146D01*
X143390774Y-91915939D01*
X143386165Y-91906964D01*
X143381156Y-91898222D01*
X143375752Y-91889715D01*
X143369961Y-91881444D01*
X143363788Y-91873411D01*
X143357241Y-91865618D01*
X143350326Y-91858066D01*
X143343050Y-91850757D01*
X143335418Y-91843693D01*
X143327437Y-91836875D01*
X143317007Y-91830112D01*
X143306441Y-91823914D01*
X143295752Y-91818275D01*
X143284954Y-91813192D01*
X143274059Y-91808658D01*
X143263080Y-91804669D01*
X143252032Y-91801220D01*
X143240925Y-91798306D01*
X143229775Y-91795921D01*
X143218593Y-91794062D01*
X143207392Y-91792722D01*
X143196187Y-91791897D01*
X143184989Y-91791582D01*
X143173813Y-91791772D01*
X143162670Y-91792462D01*
X143151574Y-91793646D01*
X143129576Y-91797480D01*
X143107922Y-91803233D01*
X143086718Y-91810865D01*
X143066067Y-91820337D01*
X143046074Y-91831608D01*
X143026843Y-91844639D01*
X143008479Y-91859389D01*
X142991086Y-91875818D01*
X142985255Y-91884400D01*
X142979829Y-91893050D01*
X142974806Y-91901775D01*
X142970184Y-91910583D01*
X142965959Y-91919479D01*
X142962128Y-91928472D01*
X142958690Y-91937566D01*
X142955641Y-91946770D01*
X142952979Y-91956090D01*
X142950701Y-91965533D01*
X142948805Y-91975105D01*
X142947287Y-91984813D01*
X142946145Y-91994664D01*
X142945377Y-92004665D01*
X142944979Y-92014822D01*
X142944949Y-92025143D01*
X142852490Y-92025143D01*
X142852788Y-92009212D01*
X142853866Y-91992855D01*
X142855727Y-91976580D01*
X142858381Y-91960425D01*
X142861839Y-91944427D01*
X142866112Y-91928624D01*
X142871211Y-91913054D01*
X142877146Y-91897755D01*
X142883929Y-91882763D01*
X142888920Y-91873808D01*
X142894126Y-91865127D01*
X142899560Y-91856691D01*
X142905234Y-91848465D01*
X142911160Y-91840418D01*
X142917348Y-91832519D01*
X142923812Y-91824734D01*
X142930562Y-91817031D01*
X142936934Y-91809543D01*
X142944901Y-91801257D01*
X142953301Y-91793414D01*
X142962110Y-91786008D01*
X142971304Y-91779034D01*
X142980862Y-91772486D01*
X142990759Y-91766360D01*
X143000972Y-91760650D01*
X143011479Y-91755350D01*
X143033282Y-91745963D01*
X143055982Y-91738155D01*
X143079395Y-91731885D01*
X143103336Y-91727109D01*
X143127620Y-91723787D01*
X143152063Y-91721875D01*
X143176480Y-91721331D01*
X143200687Y-91722113D01*
G37*
G36*
X142231303Y-91740921D02*
G01*
X142243641Y-91741615D01*
X142255926Y-91742656D01*
X142268126Y-91744103D01*
X142280207Y-91746018D01*
X142292137Y-91748464D01*
X142303883Y-91751500D01*
X142315411Y-91755189D01*
X142326690Y-91759592D01*
X142337685Y-91764771D01*
X142348364Y-91770787D01*
X142358694Y-91777701D01*
X142368643Y-91785576D01*
X142374128Y-91791587D01*
X142379040Y-91797585D01*
X142383408Y-91803590D01*
X142387261Y-91809623D01*
X142390630Y-91815703D01*
X142393542Y-91821851D01*
X142396029Y-91828086D01*
X142398119Y-91834430D01*
X142399842Y-91840902D01*
X142401228Y-91847522D01*
X142402305Y-91854310D01*
X142403104Y-91861287D01*
X142403655Y-91868473D01*
X142403985Y-91875887D01*
X142404126Y-91883551D01*
X142404107Y-91891483D01*
X142403822Y-91897809D01*
X142403379Y-91903932D01*
X142402763Y-91909865D01*
X142401958Y-91915622D01*
X142400948Y-91921220D01*
X142399719Y-91926671D01*
X142398255Y-91931990D01*
X142396539Y-91937193D01*
X142394557Y-91942293D01*
X142392293Y-91947305D01*
X142389731Y-91952243D01*
X142386857Y-91957123D01*
X142383653Y-91961958D01*
X142380105Y-91966762D01*
X142376197Y-91971551D01*
X142371914Y-91976339D01*
X142368145Y-91979360D01*
X142364278Y-91982248D01*
X142360321Y-91985008D01*
X142356279Y-91987644D01*
X142352159Y-91990162D01*
X142347967Y-91992566D01*
X142343710Y-91994863D01*
X142339394Y-91997057D01*
X142335025Y-91999152D01*
X142330610Y-92001155D01*
X142326155Y-92003070D01*
X142321666Y-92004901D01*
X142312612Y-92008336D01*
X142303500Y-92011500D01*
X142312523Y-92013996D01*
X142320110Y-92016367D01*
X142327528Y-92018875D01*
X142334769Y-92021545D01*
X142341828Y-92024398D01*
X142348698Y-92027457D01*
X142355372Y-92030744D01*
X142361843Y-92034282D01*
X142368106Y-92038094D01*
X142374154Y-92042202D01*
X142379981Y-92046628D01*
X142385580Y-92051396D01*
X142390944Y-92056527D01*
X142396067Y-92062044D01*
X142400943Y-92067970D01*
X142405565Y-92074328D01*
X142409927Y-92081139D01*
X142413381Y-92088704D01*
X142416431Y-92096244D01*
X142419080Y-92103764D01*
X142421332Y-92111274D01*
X142423190Y-92118779D01*
X142424659Y-92126288D01*
X142425742Y-92133807D01*
X142426443Y-92141345D01*
X142426765Y-92148908D01*
X142426712Y-92156503D01*
X142426288Y-92164139D01*
X142425497Y-92171823D01*
X142424342Y-92179561D01*
X142422827Y-92187361D01*
X142420956Y-92195231D01*
X142418733Y-92203178D01*
X142415524Y-92210914D01*
X142411949Y-92218348D01*
X142408019Y-92225484D01*
X142403746Y-92232326D01*
X142399141Y-92238878D01*
X142394219Y-92245145D01*
X142388989Y-92251131D01*
X142383465Y-92256840D01*
X142377659Y-92262276D01*
X142371582Y-92267443D01*
X142365247Y-92272345D01*
X142358665Y-92276987D01*
X142351849Y-92281372D01*
X142344812Y-92285506D01*
X142337564Y-92289391D01*
X142330118Y-92293033D01*
X142322369Y-92295933D01*
X142314583Y-92298570D01*
X142306760Y-92300956D01*
X142298902Y-92303099D01*
X142291008Y-92305011D01*
X142283080Y-92306700D01*
X142275119Y-92308177D01*
X142267125Y-92309453D01*
X142259100Y-92310536D01*
X142251044Y-92311436D01*
X142234841Y-92312732D01*
X142218525Y-92313418D01*
X142202102Y-92313575D01*
X142192314Y-92313577D01*
X142161353Y-92313513D01*
X142142076Y-92313500D01*
X142071080Y-92313373D01*
X141910594Y-92313125D01*
X141910594Y-92245656D01*
X141997906Y-92245656D01*
X142086418Y-92246092D01*
X142116463Y-92246255D01*
X142151987Y-92248080D01*
X142166720Y-92248652D01*
X142179826Y-92248925D01*
X142191597Y-92248844D01*
X142202329Y-92248354D01*
X142212316Y-92247401D01*
X142221851Y-92245929D01*
X142231228Y-92243885D01*
X142240741Y-92241213D01*
X142250684Y-92237859D01*
X142261352Y-92233768D01*
X142273037Y-92228886D01*
X142286035Y-92223158D01*
X142317142Y-92208945D01*
X142319866Y-92203997D01*
X142322410Y-92199043D01*
X142324764Y-92194076D01*
X142326917Y-92189092D01*
X142328860Y-92184084D01*
X142330581Y-92179047D01*
X142332072Y-92173975D01*
X142333321Y-92168863D01*
X142334318Y-92163705D01*
X142335053Y-92158496D01*
X142335516Y-92153230D01*
X142335697Y-92147902D01*
X142335585Y-92142505D01*
X142335169Y-92137034D01*
X142334441Y-92131485D01*
X142333389Y-92125850D01*
X142331982Y-92121162D01*
X142330455Y-92116618D01*
X142328803Y-92112215D01*
X142327017Y-92107947D01*
X142325090Y-92103813D01*
X142323015Y-92099807D01*
X142320784Y-92095927D01*
X142318390Y-92092170D01*
X142315824Y-92088530D01*
X142313081Y-92085006D01*
X142310152Y-92081593D01*
X142307030Y-92078287D01*
X142303707Y-92075086D01*
X142300177Y-92071985D01*
X142296431Y-92068981D01*
X142292461Y-92066070D01*
X142285418Y-92062431D01*
X142278238Y-92059262D01*
X142270933Y-92056533D01*
X142263517Y-92054211D01*
X142256002Y-92052263D01*
X142248400Y-92050659D01*
X142240724Y-92049365D01*
X142232986Y-92048351D01*
X142225200Y-92047584D01*
X142217377Y-92047032D01*
X142201672Y-92046445D01*
X142185972Y-92046334D01*
X142170376Y-92046444D01*
X142155348Y-92046478D01*
X142116260Y-92046673D01*
X142076188Y-92046831D01*
X141997906Y-92047219D01*
X141997906Y-92245656D01*
X141910594Y-92245656D01*
X141910594Y-91979750D01*
X141997906Y-91979750D01*
X142088910Y-91980366D01*
X142131299Y-91980648D01*
X142155682Y-91980819D01*
X142180065Y-91980913D01*
X142195229Y-91981099D01*
X142209575Y-91980876D01*
X142216598Y-91980558D01*
X142223522Y-91980070D01*
X142230350Y-91979387D01*
X142237083Y-91978484D01*
X142243722Y-91977337D01*
X142250270Y-91975922D01*
X142256727Y-91974213D01*
X142263095Y-91972186D01*
X142269377Y-91969816D01*
X142275572Y-91967080D01*
X142281684Y-91963951D01*
X142287713Y-91960406D01*
X142293662Y-91956420D01*
X142299531Y-91951969D01*
X142302427Y-91948492D01*
X142305004Y-91944948D01*
X142307282Y-91941335D01*
X142309283Y-91937656D01*
X142311028Y-91933910D01*
X142312538Y-91930097D01*
X142313835Y-91926220D01*
X142314938Y-91922277D01*
X142315871Y-91918270D01*
X142316653Y-91914200D01*
X142317306Y-91910066D01*
X142317851Y-91905870D01*
X142318702Y-91897291D01*
X142319375Y-91888469D01*
X142319033Y-91884332D01*
X142318590Y-91880301D01*
X142318035Y-91876371D01*
X142317357Y-91872539D01*
X142316545Y-91868801D01*
X142315587Y-91865155D01*
X142314472Y-91861596D01*
X142313190Y-91858120D01*
X142311729Y-91854725D01*
X142310078Y-91851406D01*
X142308226Y-91848161D01*
X142306162Y-91844985D01*
X142303875Y-91841875D01*
X142301353Y-91838828D01*
X142298586Y-91835839D01*
X142295562Y-91832906D01*
X142288576Y-91828727D01*
X142281573Y-91825042D01*
X142274546Y-91821821D01*
X142267487Y-91819033D01*
X142260390Y-91816649D01*
X142253248Y-91814636D01*
X142246052Y-91812966D01*
X142238797Y-91811607D01*
X142231474Y-91810530D01*
X142224077Y-91809704D01*
X142216600Y-91809099D01*
X142209033Y-91808684D01*
X142193606Y-91808303D01*
X142177740Y-91808319D01*
X142162127Y-91808353D01*
X142121336Y-91808548D01*
X142079591Y-91808706D01*
X141997906Y-91809094D01*
X141997906Y-91979750D01*
X141910594Y-91979750D01*
X141910594Y-91741625D01*
X142077529Y-91740881D01*
X142129884Y-91740552D01*
X142161354Y-91740488D01*
X142171719Y-91740444D01*
X142182083Y-91740368D01*
X142206601Y-91740322D01*
X142231303Y-91740921D01*
G37*
G36*
X146345672Y-90406141D02*
G01*
X146338850Y-90437023D01*
X146335750Y-90447813D01*
X145926969Y-90447813D01*
X145923000Y-90487500D01*
X145922044Y-90493082D01*
X145921034Y-90498655D01*
X145919962Y-90504216D01*
X145918820Y-90509763D01*
X145916305Y-90521738D01*
X145913558Y-90534486D01*
X145910632Y-90548321D01*
X145902615Y-90585935D01*
X145894005Y-90626445D01*
X145879163Y-90696191D01*
X145857813Y-90796531D01*
X145831913Y-90918371D01*
X145829892Y-90927864D01*
X145827873Y-90937355D01*
X145778186Y-91171443D01*
X145776418Y-91179795D01*
X145760982Y-91252700D01*
X145726345Y-91416203D01*
X145708687Y-91499531D01*
X145339593Y-91499531D01*
X145341440Y-91485162D01*
X145343434Y-91471073D01*
X145344532Y-91464072D01*
X145345722Y-91457067D01*
X145347022Y-91450036D01*
X145348451Y-91442952D01*
X145351442Y-91428656D01*
X145354713Y-91413214D01*
X145358184Y-91396674D01*
X145367673Y-91351648D01*
X145377789Y-91303588D01*
X145397332Y-91210826D01*
X145413046Y-91136260D01*
X145415288Y-91125608D01*
X145419777Y-91104287D01*
X145501769Y-90715951D01*
X145504588Y-90702643D01*
X145557875Y-90451781D01*
X145164968Y-90447813D01*
X145169254Y-90414735D01*
X145174597Y-90381818D01*
X145180777Y-90349027D01*
X145187575Y-90316332D01*
X145216562Y-90185875D01*
X146391312Y-90185875D01*
X146345672Y-90406141D01*
G37*
G36*
X138662009Y-89223355D02*
G01*
X138667726Y-89225313D01*
X138673382Y-89227351D01*
X138678988Y-89229480D01*
X138684555Y-89231706D01*
X138690093Y-89234040D01*
X138695615Y-89236490D01*
X138701131Y-89239065D01*
X138713160Y-89244812D01*
X138725920Y-89250986D01*
X138739292Y-89257455D01*
X138778360Y-89276858D01*
X138816961Y-89296908D01*
X138855068Y-89317694D01*
X138892653Y-89339306D01*
X138929688Y-89361831D01*
X138966146Y-89385360D01*
X139001999Y-89409980D01*
X139037219Y-89435781D01*
X139051233Y-89446261D01*
X139066644Y-89458056D01*
X139081875Y-89470062D01*
X139096938Y-89482269D01*
X139111844Y-89494662D01*
X139126604Y-89507230D01*
X139141230Y-89519959D01*
X139155733Y-89532838D01*
X139170125Y-89545852D01*
X139174327Y-89549630D01*
X139178544Y-89553390D01*
X139182784Y-89557126D01*
X139187052Y-89560829D01*
X139194931Y-89567710D01*
X139202705Y-89574681D01*
X139210384Y-89581737D01*
X139217982Y-89588873D01*
X139225512Y-89596082D01*
X139232984Y-89603359D01*
X139247810Y-89618096D01*
X139256996Y-89627235D01*
X139264019Y-89634341D01*
X139270955Y-89641503D01*
X139277812Y-89648724D01*
X139284592Y-89656006D01*
X139291302Y-89663353D01*
X139297947Y-89670768D01*
X139304532Y-89678253D01*
X139311062Y-89685813D01*
X139322380Y-89698696D01*
X139333893Y-89712069D01*
X139345223Y-89725567D01*
X139356387Y-89739183D01*
X139367400Y-89752912D01*
X139378280Y-89766748D01*
X139389043Y-89780685D01*
X139410281Y-89808844D01*
X139416812Y-89817591D01*
X139436771Y-89844826D01*
X139456385Y-89872479D01*
X139475552Y-89900547D01*
X139494170Y-89929026D01*
X139512135Y-89957912D01*
X139529346Y-89987200D01*
X139545699Y-90016887D01*
X139561093Y-90046969D01*
X139556861Y-90053135D01*
X139537281Y-90081695D01*
X139530630Y-90091385D01*
X139512804Y-90117577D01*
X139495160Y-90143893D01*
X139474403Y-90174911D01*
X139453519Y-90205843D01*
X139377936Y-90318136D01*
X139303125Y-90430945D01*
X139236332Y-90531682D01*
X139202607Y-90581827D01*
X139168648Y-90631821D01*
X139147413Y-90663009D01*
X139104687Y-90725625D01*
X139098717Y-90734365D01*
X139067871Y-90779097D01*
X139036708Y-90823604D01*
X138973719Y-90912156D01*
X138965781Y-90908187D01*
X138964081Y-90901539D01*
X138963472Y-90899005D01*
X138962936Y-90896587D01*
X138962408Y-90893978D01*
X138961823Y-90890868D01*
X138960224Y-90881920D01*
X138958698Y-90873483D01*
X138953714Y-90845232D01*
X138950091Y-90825026D01*
X138942279Y-90781163D01*
X138923002Y-90673599D01*
X138918469Y-90648417D01*
X138893747Y-90513205D01*
X138868455Y-90378099D01*
X138861537Y-90341394D01*
X138835614Y-90203953D01*
X138793509Y-89980552D01*
X138783688Y-89928424D01*
X138698883Y-89475717D01*
X138693450Y-89446549D01*
X138678729Y-89367460D01*
X138676576Y-89355887D01*
X138665635Y-89296903D01*
X138661517Y-89274940D01*
X138659307Y-89263117D01*
X138657491Y-89253500D01*
X138656935Y-89249484D01*
X138656508Y-89245488D01*
X138656203Y-89241503D01*
X138656011Y-89237522D01*
X138655925Y-89233535D01*
X138655936Y-89229537D01*
X138656037Y-89225517D01*
X138656219Y-89221469D01*
X138662009Y-89223355D01*
G37*
G36*
X138024853Y-89068637D02*
G01*
X138095242Y-89073157D01*
X138165405Y-89080551D01*
X138235248Y-89090881D01*
X138304675Y-89104209D01*
X138373592Y-89120598D01*
X138441906Y-89140109D01*
X138452553Y-89143239D01*
X138462246Y-89146435D01*
X138470710Y-89149124D01*
X138472158Y-89150220D01*
X138473523Y-89151404D01*
X138474807Y-89152669D01*
X138476015Y-89154013D01*
X138477149Y-89155430D01*
X138478211Y-89156916D01*
X138479206Y-89158467D01*
X138480137Y-89160079D01*
X138481817Y-89163464D01*
X138483276Y-89167036D01*
X138484539Y-89170760D01*
X138485632Y-89174599D01*
X138486578Y-89178519D01*
X138487403Y-89182483D01*
X138488790Y-89190400D01*
X138489992Y-89198066D01*
X138491208Y-89205194D01*
X138492768Y-89213299D01*
X138497887Y-89240243D01*
X138501640Y-89259883D01*
X138511923Y-89313986D01*
X138518451Y-89348323D01*
X138576828Y-89658062D01*
X138578356Y-89666229D01*
X138609953Y-89835494D01*
X138621265Y-89896175D01*
X138626701Y-89925367D01*
X138639785Y-89995112D01*
X138653316Y-90064772D01*
X138655381Y-90075175D01*
X138660033Y-90098413D01*
X138664764Y-90121635D01*
X138667921Y-90137377D01*
X138670679Y-90150810D01*
X138671098Y-90154621D01*
X138671242Y-90156409D01*
X138671339Y-90158132D01*
X138671388Y-90159802D01*
X138671386Y-90161431D01*
X138671332Y-90163030D01*
X138671223Y-90164611D01*
X138671056Y-90166183D01*
X138670831Y-90167760D01*
X138670545Y-90169352D01*
X138670196Y-90170971D01*
X138669781Y-90172627D01*
X138669299Y-90174333D01*
X138668748Y-90176099D01*
X138668125Y-90177938D01*
X138656885Y-90170202D01*
X138485562Y-90052922D01*
X138410469Y-90001663D01*
X138335494Y-89950231D01*
X138257790Y-89896965D01*
X138218791Y-89870548D01*
X138179627Y-89844377D01*
X138166675Y-89835632D01*
X138153771Y-89826818D01*
X138128033Y-89809086D01*
X138104834Y-89793234D01*
X138093184Y-89785384D01*
X138081494Y-89777590D01*
X138046440Y-89754086D01*
X138011562Y-89730320D01*
X137942028Y-89682463D01*
X137798969Y-89584609D01*
X137765837Y-89562020D01*
X137745578Y-89548211D01*
X137683534Y-89505651D01*
X137621709Y-89462773D01*
X137589334Y-89440286D01*
X137556875Y-89417922D01*
X137511754Y-89386791D01*
X137466747Y-89355496D01*
X137406558Y-89313742D01*
X137373590Y-89290731D01*
X137340752Y-89267536D01*
X137318484Y-89251905D01*
X137296136Y-89236392D01*
X137251281Y-89205594D01*
X137255250Y-89193688D01*
X137258677Y-89192184D01*
X137262076Y-89190752D01*
X137265461Y-89189382D01*
X137268847Y-89188069D01*
X137272249Y-89186803D01*
X137275683Y-89185579D01*
X137279164Y-89184388D01*
X137282706Y-89183223D01*
X137291314Y-89180331D01*
X137305393Y-89175690D01*
X137319494Y-89171115D01*
X137329261Y-89167920D01*
X137396726Y-89147099D01*
X137464907Y-89128535D01*
X137533711Y-89112287D01*
X137603044Y-89098419D01*
X137672810Y-89086991D01*
X137742917Y-89078067D01*
X137813269Y-89071707D01*
X137883772Y-89067975D01*
X137954331Y-89066931D01*
X138024853Y-89068637D01*
G37*
G36*
X137221482Y-91701301D02*
G01*
X137239227Y-91712686D01*
X137256892Y-91724196D01*
X137274474Y-91735842D01*
X137282247Y-91741031D01*
X137323662Y-91768836D01*
X137364997Y-91796759D01*
X137403183Y-91822578D01*
X137423319Y-91836191D01*
X137531574Y-91909305D01*
X137541463Y-91915979D01*
X137687701Y-92014630D01*
X137898163Y-92156635D01*
X138017417Y-92237664D01*
X138054612Y-92262958D01*
X138194809Y-92358578D01*
X138221982Y-92377137D01*
X138279779Y-92416821D01*
X138337382Y-92456788D01*
X138369758Y-92479275D01*
X138402219Y-92501641D01*
X138486688Y-92560055D01*
X138570710Y-92619109D01*
X138585006Y-92629138D01*
X138599380Y-92639042D01*
X138613851Y-92648804D01*
X138628437Y-92658406D01*
X138627112Y-92662344D01*
X138626545Y-92663953D01*
X138626019Y-92665354D01*
X138625517Y-92666569D01*
X138625020Y-92667623D01*
X138624512Y-92668539D01*
X138623975Y-92669340D01*
X138623391Y-92670050D01*
X138622744Y-92670692D01*
X138622016Y-92671290D01*
X138621189Y-92671867D01*
X138620246Y-92672447D01*
X138619170Y-92673054D01*
X138616548Y-92674439D01*
X138606005Y-92678172D01*
X138594099Y-92682445D01*
X138581060Y-92686932D01*
X138567502Y-92691674D01*
X138546394Y-92698906D01*
X138525250Y-92706031D01*
X138512615Y-92710275D01*
X138456403Y-92727819D01*
X138399795Y-92743384D01*
X138342813Y-92757080D01*
X138285475Y-92769013D01*
X138227802Y-92779292D01*
X138169813Y-92788024D01*
X138111529Y-92795318D01*
X138052969Y-92801281D01*
X138043932Y-92802147D01*
X138030329Y-92803274D01*
X138016725Y-92804139D01*
X138003108Y-92804783D01*
X137989469Y-92805250D01*
X137978014Y-92805642D01*
X137913659Y-92806247D01*
X137849060Y-92804306D01*
X137784382Y-92799934D01*
X137719790Y-92793250D01*
X137655450Y-92784369D01*
X137591527Y-92773409D01*
X137528186Y-92760486D01*
X137465594Y-92745718D01*
X137453804Y-92742789D01*
X137445749Y-92740693D01*
X137437717Y-92738534D01*
X137429699Y-92736321D01*
X137421689Y-92734061D01*
X137412236Y-92731604D01*
X137409389Y-92730728D01*
X137407084Y-92729983D01*
X137406055Y-92729624D01*
X137405065Y-92729255D01*
X137404081Y-92728863D01*
X137403071Y-92728432D01*
X137402003Y-92727949D01*
X137400844Y-92727399D01*
X137398127Y-92726043D01*
X137394661Y-92724250D01*
X137390187Y-92721906D01*
X137388400Y-92717017D01*
X137386764Y-92712073D01*
X137385267Y-92707080D01*
X137383897Y-92702043D01*
X137381484Y-92691862D01*
X137379423Y-92681574D01*
X137377614Y-92671223D01*
X137375953Y-92660854D01*
X137372669Y-92640237D01*
X137369751Y-92623285D01*
X137363346Y-92586034D01*
X137321809Y-92350330D01*
X137278908Y-92114869D01*
X137274188Y-92089162D01*
X137254490Y-91981940D01*
X137250145Y-91958300D01*
X137222397Y-91808183D01*
X137216498Y-91776463D01*
X137211196Y-91748210D01*
X137208120Y-91731674D01*
X137205478Y-91717593D01*
X137204877Y-91713704D01*
X137204425Y-91710589D01*
X137204101Y-91707922D01*
X137203980Y-91706657D01*
X137203884Y-91705383D01*
X137203752Y-91702647D01*
X137203685Y-91699392D01*
X137203660Y-91695294D01*
X137203656Y-91690031D01*
X137221482Y-91701301D01*
G37*
G36*
X136906000Y-90932000D02*
G01*
X136906753Y-90934482D01*
X136907342Y-90936468D01*
X136907814Y-90938165D01*
X136908217Y-90939776D01*
X136908600Y-90941505D01*
X136909010Y-90943558D01*
X136910107Y-90949452D01*
X136912269Y-90960936D01*
X136914560Y-90973698D01*
X136917059Y-90987137D01*
X136925270Y-91032009D01*
X136931150Y-91063865D01*
X136945412Y-91141599D01*
X136962255Y-91233365D01*
X136993555Y-91404047D01*
X137016859Y-91531155D01*
X137219531Y-92654438D01*
X137211594Y-92658406D01*
X137206771Y-92656751D01*
X137204964Y-92656093D01*
X137203276Y-92655434D01*
X137201495Y-92654687D01*
X137199409Y-92653766D01*
X137193471Y-92651058D01*
X137182070Y-92645856D01*
X137169674Y-92640051D01*
X137156843Y-92634090D01*
X137129659Y-92621132D01*
X137102686Y-92607852D01*
X137075931Y-92594215D01*
X137049401Y-92580188D01*
X137023104Y-92565737D01*
X136997048Y-92550827D01*
X136971240Y-92535426D01*
X136945687Y-92519500D01*
X136930913Y-92510245D01*
X136896300Y-92487816D01*
X136862227Y-92464474D01*
X136828719Y-92440261D01*
X136795803Y-92415214D01*
X136763505Y-92389374D01*
X136731851Y-92362780D01*
X136700867Y-92335472D01*
X136670580Y-92307490D01*
X136665077Y-92302344D01*
X136659553Y-92297221D01*
X136648465Y-92287018D01*
X136621405Y-92262048D01*
X136612498Y-92253665D01*
X136605666Y-92247008D01*
X136600154Y-92241323D01*
X136595205Y-92235854D01*
X136590063Y-92229845D01*
X136583973Y-92222541D01*
X136580831Y-92218905D01*
X136577656Y-92215304D01*
X136571223Y-92208188D01*
X136564704Y-92201149D01*
X136558132Y-92194143D01*
X136549144Y-92184506D01*
X136540258Y-92174812D01*
X136531477Y-92165048D01*
X136522806Y-92155199D01*
X136514247Y-92145253D01*
X136505805Y-92135194D01*
X136497481Y-92125011D01*
X136489281Y-92114688D01*
X136483520Y-92107329D01*
X136464402Y-92082474D01*
X136445669Y-92057409D01*
X136427306Y-92032125D01*
X136409298Y-92006612D01*
X136391630Y-91980861D01*
X136374288Y-91954863D01*
X136357256Y-91928608D01*
X136340519Y-91902088D01*
X136332625Y-91889524D01*
X136324671Y-91876997D01*
X136316889Y-91864408D01*
X136310455Y-91854099D01*
X136309645Y-91851973D01*
X136308977Y-91849978D01*
X136308446Y-91848094D01*
X136308043Y-91846302D01*
X136307762Y-91844583D01*
X136307596Y-91842917D01*
X136307537Y-91841285D01*
X136307579Y-91839669D01*
X136307714Y-91838048D01*
X136307936Y-91836404D01*
X136308237Y-91834717D01*
X136308610Y-91832968D01*
X136309546Y-91829208D01*
X136310687Y-91824969D01*
X136313155Y-91820159D01*
X136314080Y-91818424D01*
X136314944Y-91816883D01*
X136315854Y-91815349D01*
X136316921Y-91813635D01*
X136319958Y-91808908D01*
X136325750Y-91799844D01*
X136332020Y-91790242D01*
X136338499Y-91780159D01*
X136358312Y-91749562D01*
X136369645Y-91731982D01*
X136396611Y-91690347D01*
X136417914Y-91657435D01*
X136440036Y-91623256D01*
X136450966Y-91606366D01*
X136499127Y-91532392D01*
X136547572Y-91458604D01*
X136553985Y-91448851D01*
X136584885Y-91401953D01*
X136615956Y-91355168D01*
X136649501Y-91304615D01*
X136682868Y-91253944D01*
X136745647Y-91158855D01*
X136808761Y-91063988D01*
X136853707Y-90996204D01*
X136875969Y-90962175D01*
X136898062Y-90928031D01*
X136906000Y-90932000D01*
G37*
G36*
X137191750Y-90197781D02*
G01*
X137183900Y-90211127D01*
X137175852Y-90224338D01*
X137167636Y-90237434D01*
X137159280Y-90250439D01*
X137142262Y-90276256D01*
X137125025Y-90301961D01*
X137102376Y-90335757D01*
X137096763Y-90344142D01*
X137086926Y-90358981D01*
X137077179Y-90373874D01*
X137057894Y-90403802D01*
X137045767Y-90422547D01*
X137033493Y-90441194D01*
X137008691Y-90478322D01*
X136993922Y-90500364D01*
X136983883Y-90515488D01*
X136973970Y-90530695D01*
X136959578Y-90552984D01*
X136946415Y-90573499D01*
X136933034Y-90593869D01*
X136905940Y-90634393D01*
X136892318Y-90654804D01*
X136878791Y-90675272D01*
X136865371Y-90695811D01*
X136852072Y-90716433D01*
X136826190Y-90756449D01*
X136800084Y-90796319D01*
X136794761Y-90804434D01*
X136763356Y-90852123D01*
X136731747Y-90899677D01*
X136725905Y-90908419D01*
X136698180Y-90949794D01*
X136684029Y-90971103D01*
X136670075Y-90992523D01*
X136656313Y-91014067D01*
X136642735Y-91035746D01*
X136630452Y-91055205D01*
X136617944Y-91074508D01*
X136605265Y-91093700D01*
X136592469Y-91112826D01*
X136579290Y-91132514D01*
X136565856Y-91152565D01*
X136512273Y-91233045D01*
X136459019Y-91313744D01*
X136382198Y-91429616D01*
X136304650Y-91545004D01*
X136281899Y-91578674D01*
X136274626Y-91589430D01*
X136263701Y-91605805D01*
X136252965Y-91622280D01*
X136242449Y-91638895D01*
X136232182Y-91655691D01*
X136227344Y-91662250D01*
X136219406Y-91662250D01*
X136202310Y-91619287D01*
X136186166Y-91575922D01*
X136170995Y-91532178D01*
X136156816Y-91488082D01*
X136143650Y-91443658D01*
X136131518Y-91398933D01*
X136120441Y-91353932D01*
X136110438Y-91308680D01*
X136101531Y-91263203D01*
X136093739Y-91217525D01*
X136087084Y-91171673D01*
X136081586Y-91125671D01*
X136077264Y-91079546D01*
X136074141Y-91033322D01*
X136072236Y-90987026D01*
X136071570Y-90940682D01*
X136071562Y-90931970D01*
X136071922Y-90796350D01*
X136073215Y-90692902D01*
X136074520Y-90651280D01*
X136076428Y-90615346D01*
X136079064Y-90584316D01*
X136082551Y-90557405D01*
X136087013Y-90533828D01*
X136092572Y-90512800D01*
X136099353Y-90493536D01*
X136107480Y-90475253D01*
X136117074Y-90457164D01*
X136128261Y-90438485D01*
X136155906Y-90396219D01*
X136159153Y-90395029D01*
X136161747Y-90394107D01*
X136163949Y-90393383D01*
X136164984Y-90393074D01*
X136166020Y-90392789D01*
X136167089Y-90392518D01*
X136168223Y-90392255D01*
X136170819Y-90391712D01*
X136174071Y-90391091D01*
X136178238Y-90390324D01*
X136192671Y-90387570D01*
X136208616Y-90384747D01*
X136225363Y-90381606D01*
X136243514Y-90378232D01*
X136261675Y-90374914D01*
X136290996Y-90369532D01*
X136320301Y-90364062D01*
X136382267Y-90352492D01*
X136488137Y-90332430D01*
X136593908Y-90311850D01*
X136633903Y-90304034D01*
X137060781Y-90219889D01*
X137071042Y-90217855D01*
X137090530Y-90213992D01*
X137108563Y-90210426D01*
X137126666Y-90206810D01*
X137144745Y-90203081D01*
X137155287Y-90200864D01*
X137163798Y-90199020D01*
X137167310Y-90198546D01*
X137170798Y-90198191D01*
X137174271Y-90197942D01*
X137177739Y-90197784D01*
X137181211Y-90197704D01*
X137184697Y-90197686D01*
X137191750Y-90197781D01*
G37*
G36*
X137056640Y-89285179D02*
G01*
X137065153Y-89287294D01*
X137068134Y-89288784D01*
X137071075Y-89290320D01*
X137076848Y-89293523D01*
X137082500Y-89296881D01*
X137088058Y-89300372D01*
X137093549Y-89303975D01*
X137099001Y-89307667D01*
X137109894Y-89315231D01*
X137119809Y-89322083D01*
X137152062Y-89344500D01*
X137174666Y-89360220D01*
X137209371Y-89384380D01*
X137259365Y-89418964D01*
X137309528Y-89453302D01*
X137357197Y-89485887D01*
X137366720Y-89492401D01*
X137433640Y-89538337D01*
X137523445Y-89599861D01*
X137580162Y-89638664D01*
X137627739Y-89671209D01*
X137755068Y-89758576D01*
X137844201Y-89819850D01*
X137933906Y-89880281D01*
X137929937Y-89888219D01*
X137926456Y-89889147D01*
X137922992Y-89890031D01*
X137916082Y-89891678D01*
X137909143Y-89893187D01*
X137902114Y-89894585D01*
X137893293Y-89896348D01*
X137878784Y-89899201D01*
X137864267Y-89902016D01*
X137844139Y-89905987D01*
X137801860Y-89914252D01*
X137747718Y-89924875D01*
X137706105Y-89933047D01*
X137686149Y-89936968D01*
X137658190Y-89942411D01*
X137649879Y-89944060D01*
X137644665Y-89945012D01*
X137639508Y-89945849D01*
X137634384Y-89946560D01*
X137629270Y-89947130D01*
X137624145Y-89947548D01*
X137618984Y-89947799D01*
X137613767Y-89947871D01*
X137608469Y-89947750D01*
X137604500Y-89955688D01*
X137592641Y-89957049D01*
X137586705Y-89957672D01*
X137580764Y-89958244D01*
X137575387Y-89958922D01*
X137570031Y-89959681D01*
X137564692Y-89960510D01*
X137559365Y-89961401D01*
X137548734Y-89963331D01*
X137538106Y-89965395D01*
X137529337Y-89967132D01*
X137500751Y-89972867D01*
X137479998Y-89977004D01*
X137435207Y-89985961D01*
X137363215Y-90000349D01*
X137260306Y-90020909D01*
X137006906Y-90071468D01*
X136966989Y-90079422D01*
X136513342Y-90168760D01*
X136498896Y-90171569D01*
X136342788Y-90201819D01*
X136321271Y-90205998D01*
X136299767Y-90210239D01*
X136277208Y-90214661D01*
X136266736Y-90216768D01*
X136260272Y-90217980D01*
X136253893Y-90219063D01*
X136247563Y-90219995D01*
X136241248Y-90220753D01*
X136234913Y-90221315D01*
X136228523Y-90221657D01*
X136222043Y-90221758D01*
X136218758Y-90221710D01*
X136215437Y-90221594D01*
X136231550Y-90180400D01*
X136249067Y-90139779D01*
X136267889Y-90099731D01*
X136287919Y-90060254D01*
X136309059Y-90021349D01*
X136331211Y-89983016D01*
X136354276Y-89945254D01*
X136378156Y-89908063D01*
X136383481Y-89899951D01*
X136399421Y-89876283D01*
X136415764Y-89852855D01*
X136432486Y-89829670D01*
X136449567Y-89806735D01*
X136466983Y-89784052D01*
X136484714Y-89761626D01*
X136502738Y-89739462D01*
X136521031Y-89717563D01*
X136526415Y-89711175D01*
X136565057Y-89665936D01*
X136584797Y-89643620D01*
X136604954Y-89621688D01*
X136625633Y-89600279D01*
X136636200Y-89589812D01*
X136646938Y-89579528D01*
X136657858Y-89569442D01*
X136668973Y-89559572D01*
X136680297Y-89549936D01*
X136691842Y-89540550D01*
X136700167Y-89533698D01*
X136708383Y-89526745D01*
X136716523Y-89519704D01*
X136724623Y-89512590D01*
X136736947Y-89501893D01*
X136749399Y-89491411D01*
X136761976Y-89481123D01*
X136774674Y-89471006D01*
X136787492Y-89461038D01*
X136800424Y-89451198D01*
X136826625Y-89431813D01*
X136835423Y-89425359D01*
X136866647Y-89402657D01*
X136898062Y-89380219D01*
X136905539Y-89374921D01*
X136950022Y-89343711D01*
X136983756Y-89320342D01*
X137008610Y-89303788D01*
X137018292Y-89297745D01*
X137026455Y-89293021D01*
X137033333Y-89289487D01*
X137039161Y-89287015D01*
X137044172Y-89285477D01*
X137048599Y-89284743D01*
X137052677Y-89284687D01*
X137056640Y-89285179D01*
G37*
G36*
X139640052Y-91646296D02*
G01*
X139644437Y-91646375D01*
X139643622Y-91650790D01*
X139642669Y-91655131D01*
X139641587Y-91659404D01*
X139640386Y-91663616D01*
X139639075Y-91667776D01*
X139637664Y-91671889D01*
X139634579Y-91680008D01*
X139631208Y-91688032D01*
X139627625Y-91696017D01*
X139620129Y-91712107D01*
X139613765Y-91725821D01*
X139599499Y-91755564D01*
X139584783Y-91785051D01*
X139569592Y-91814270D01*
X139553903Y-91843210D01*
X139537692Y-91871858D01*
X139520935Y-91900203D01*
X139503608Y-91928233D01*
X139485687Y-91955937D01*
X139477083Y-91969161D01*
X139455792Y-92000793D01*
X139433831Y-92031882D01*
X139411214Y-92062444D01*
X139387956Y-92092497D01*
X139364072Y-92122056D01*
X139339577Y-92151137D01*
X139314484Y-92179756D01*
X139288808Y-92207930D01*
X139280289Y-92217195D01*
X139271809Y-92226495D01*
X139251944Y-92248048D01*
X139241901Y-92258648D01*
X139231735Y-92269107D01*
X139221411Y-92279405D01*
X139210893Y-92289524D01*
X139200145Y-92299448D01*
X139189132Y-92309156D01*
X139182698Y-92314878D01*
X139176331Y-92320666D01*
X139170010Y-92326505D01*
X139163716Y-92332381D01*
X139154183Y-92341129D01*
X139144540Y-92349699D01*
X139134790Y-92358110D01*
X139124938Y-92366382D01*
X139114985Y-92374534D01*
X139104935Y-92382587D01*
X139084557Y-92398473D01*
X139078594Y-92403130D01*
X139072660Y-92407821D01*
X139060845Y-92417273D01*
X139034383Y-92437907D01*
X139007472Y-92457908D01*
X138980141Y-92477312D01*
X138952424Y-92496155D01*
X138924350Y-92514473D01*
X138895953Y-92532302D01*
X138867262Y-92549679D01*
X138838310Y-92566639D01*
X138835958Y-92568068D01*
X138833627Y-92569531D01*
X138831316Y-92571026D01*
X138829022Y-92572548D01*
X138824477Y-92575658D01*
X138819976Y-92578830D01*
X138816997Y-92580202D01*
X138815759Y-92580748D01*
X138814655Y-92581204D01*
X138813660Y-92581573D01*
X138812747Y-92581857D01*
X138811892Y-92582060D01*
X138811478Y-92582131D01*
X138811069Y-92582183D01*
X138810662Y-92582216D01*
X138810252Y-92582229D01*
X138809417Y-92582202D01*
X138808537Y-92582103D01*
X138807587Y-92581936D01*
X138806541Y-92581703D01*
X138805375Y-92581406D01*
X138802577Y-92580633D01*
X138796744Y-92577669D01*
X138791039Y-92574548D01*
X138785439Y-92571290D01*
X138779920Y-92567913D01*
X138774459Y-92564437D01*
X138769034Y-92560882D01*
X138758197Y-92553606D01*
X138748336Y-92547010D01*
X138716246Y-92525453D01*
X138693905Y-92510481D01*
X138659337Y-92487307D01*
X138619974Y-92460971D01*
X138580549Y-92434730D01*
X138559564Y-92420785D01*
X138529625Y-92400909D01*
X138505725Y-92384980D01*
X138481973Y-92368882D01*
X138458426Y-92352487D01*
X138446748Y-92344140D01*
X138435144Y-92335670D01*
X138430396Y-92332231D01*
X138425621Y-92328838D01*
X138415997Y-92322169D01*
X138406288Y-92315623D01*
X138396514Y-92309156D01*
X138388809Y-92304050D01*
X138355322Y-92281964D01*
X138331583Y-92266071D01*
X138308004Y-92249951D01*
X138261092Y-92217339D01*
X138243376Y-92205053D01*
X138225599Y-92192870D01*
X138207745Y-92180800D01*
X138189797Y-92168855D01*
X138179926Y-92162202D01*
X138170121Y-92155458D01*
X138150622Y-92141802D01*
X138133319Y-92129702D01*
X138115972Y-92117664D01*
X138109434Y-92113134D01*
X138091633Y-92100858D01*
X138073789Y-92088643D01*
X138052017Y-92073699D01*
X138030331Y-92058640D01*
X138008736Y-92043451D01*
X137987236Y-92028119D01*
X137978366Y-92021782D01*
X137971562Y-92016798D01*
X137964850Y-92011741D01*
X137958220Y-92006609D01*
X137951663Y-92001399D01*
X137945169Y-91996111D01*
X137938728Y-91990741D01*
X137932332Y-91985288D01*
X137925969Y-91979750D01*
X137928547Y-91978318D01*
X137931118Y-91977001D01*
X137933686Y-91975793D01*
X137936255Y-91974684D01*
X137938829Y-91973667D01*
X137941411Y-91972734D01*
X137944007Y-91971876D01*
X137946620Y-91971086D01*
X137949254Y-91970355D01*
X137951913Y-91969676D01*
X137957323Y-91968440D01*
X137962883Y-91967312D01*
X137968625Y-91966229D01*
X137976829Y-91964689D01*
X138004228Y-91959627D01*
X138024083Y-91955917D01*
X138067487Y-91947839D01*
X138189441Y-91925009D01*
X138202647Y-91922529D01*
X138368583Y-91890979D01*
X138534428Y-91858951D01*
X138549883Y-91855957D01*
X139058496Y-91756926D01*
X139083899Y-91751963D01*
X139407008Y-91688447D01*
X139440590Y-91681773D01*
X139529287Y-91664071D01*
X139563132Y-91657316D01*
X139585411Y-91652818D01*
X139598610Y-91650202D01*
X139609862Y-91647941D01*
X139614213Y-91647376D01*
X139618528Y-91646943D01*
X139622823Y-91646629D01*
X139627110Y-91646422D01*
X139631401Y-91646306D01*
X139635711Y-91646268D01*
X139640052Y-91646296D01*
G37*
G36*
X141610883Y-90184539D02*
G01*
X141630953Y-90185085D01*
X141651082Y-90186156D01*
X141671211Y-90187813D01*
X141691278Y-90190119D01*
X141711222Y-90193136D01*
X141730982Y-90196926D01*
X141750496Y-90201551D01*
X141769704Y-90207073D01*
X141788544Y-90213554D01*
X141806955Y-90221056D01*
X141824876Y-90229642D01*
X141842246Y-90239373D01*
X141859004Y-90250311D01*
X141875088Y-90262519D01*
X141890438Y-90276058D01*
X141901674Y-90287844D01*
X141912096Y-90299924D01*
X141921717Y-90312296D01*
X141930551Y-90324959D01*
X141938612Y-90337912D01*
X141945914Y-90351153D01*
X141952472Y-90364682D01*
X141958299Y-90378496D01*
X141963410Y-90392596D01*
X141967817Y-90406979D01*
X141971536Y-90421644D01*
X141974581Y-90436590D01*
X141976965Y-90451815D01*
X141978703Y-90467320D01*
X141979808Y-90483101D01*
X141980295Y-90499158D01*
X141979483Y-90526458D01*
X141977398Y-90553381D01*
X141974050Y-90579909D01*
X141969451Y-90606024D01*
X141963612Y-90631708D01*
X141956545Y-90656943D01*
X141948261Y-90681712D01*
X141938771Y-90705996D01*
X141928086Y-90729777D01*
X141916218Y-90753037D01*
X141903178Y-90775758D01*
X141888978Y-90797923D01*
X141873629Y-90819513D01*
X141857142Y-90840510D01*
X141839529Y-90860896D01*
X141820801Y-90880654D01*
X141812730Y-90888441D01*
X141804592Y-90895985D01*
X141796342Y-90903284D01*
X141787935Y-90910333D01*
X141779327Y-90917130D01*
X141774933Y-90920432D01*
X141770472Y-90923670D01*
X141765938Y-90926843D01*
X141761326Y-90929951D01*
X141756629Y-90932993D01*
X141751844Y-90935969D01*
X141738279Y-90944697D01*
X141719478Y-90955952D01*
X141700314Y-90966147D01*
X141680810Y-90975333D01*
X141660992Y-90983558D01*
X141640884Y-90990875D01*
X141620510Y-90997333D01*
X141599895Y-91002982D01*
X141579064Y-91007874D01*
X141558040Y-91012057D01*
X141536849Y-91015584D01*
X141515515Y-91018504D01*
X141494062Y-91020867D01*
X141472515Y-91022724D01*
X141450898Y-91024125D01*
X141407554Y-91025762D01*
X141398841Y-91025986D01*
X141328354Y-91027248D01*
X141257850Y-91027654D01*
X141116843Y-91027250D01*
X141115407Y-91040399D01*
X141114343Y-91048248D01*
X141113142Y-91056063D01*
X141111821Y-91063852D01*
X141110400Y-91071620D01*
X141107337Y-91087121D01*
X141104108Y-91102616D01*
X141101427Y-91115514D01*
X141092659Y-91157459D01*
X141086565Y-91186658D01*
X141072158Y-91255499D01*
X141059043Y-91318320D01*
X141044835Y-91386329D01*
X141038797Y-91415264D01*
X141030360Y-91455541D01*
X141027836Y-91467716D01*
X141025509Y-91478725D01*
X141023497Y-91488345D01*
X141022861Y-91490735D01*
X141022588Y-91491717D01*
X141022334Y-91492580D01*
X141022091Y-91493338D01*
X141021849Y-91494010D01*
X141021600Y-91494610D01*
X141021335Y-91495157D01*
X141021046Y-91495665D01*
X141020725Y-91496151D01*
X141020362Y-91496632D01*
X141019949Y-91497124D01*
X141019477Y-91497644D01*
X141018938Y-91498207D01*
X141017625Y-91499531D01*
X141009124Y-91499768D01*
X141000641Y-91499916D01*
X140992158Y-91499985D01*
X140983657Y-91499982D01*
X140972863Y-91499984D01*
X140937366Y-91499919D01*
X140912824Y-91499902D01*
X140848094Y-91499803D01*
X140782096Y-91499725D01*
X140652500Y-91499531D01*
X140656870Y-91473265D01*
X140661643Y-91447098D01*
X140666754Y-91420994D01*
X140672137Y-91394916D01*
X140675655Y-91378111D01*
X140685250Y-91332404D01*
X140695580Y-91283153D01*
X140715705Y-91187280D01*
X140732011Y-91109639D01*
X140782481Y-90869367D01*
X140803680Y-90768414D01*
X141172295Y-90768414D01*
X141172329Y-90770549D01*
X141172406Y-90773250D01*
X141258786Y-90773686D01*
X141288091Y-90773849D01*
X141332430Y-90774748D01*
X141350817Y-90774885D01*
X141367171Y-90774705D01*
X141381858Y-90774127D01*
X141395244Y-90773069D01*
X141407695Y-90771448D01*
X141419579Y-90769184D01*
X141431260Y-90766195D01*
X141443107Y-90762399D01*
X141455484Y-90757715D01*
X141468758Y-90752060D01*
X141483295Y-90745353D01*
X141499463Y-90737513D01*
X141538151Y-90718106D01*
X141546119Y-90709382D01*
X141553519Y-90700335D01*
X141560360Y-90690984D01*
X141566652Y-90681347D01*
X141572403Y-90671442D01*
X141577625Y-90661287D01*
X141582325Y-90650901D01*
X141586515Y-90640302D01*
X141590202Y-90629507D01*
X141593398Y-90618536D01*
X141596110Y-90607405D01*
X141598350Y-90596135D01*
X141600126Y-90584741D01*
X141601448Y-90573243D01*
X141602325Y-90561660D01*
X141602767Y-90550008D01*
X141603038Y-90541051D01*
X141602896Y-90535818D01*
X141602518Y-90530682D01*
X141601903Y-90525642D01*
X141601053Y-90520697D01*
X141599968Y-90515847D01*
X141598649Y-90511091D01*
X141597097Y-90506430D01*
X141595312Y-90501863D01*
X141593296Y-90497389D01*
X141591049Y-90493008D01*
X141588571Y-90488719D01*
X141585864Y-90484523D01*
X141582928Y-90480418D01*
X141579763Y-90476404D01*
X141576372Y-90472481D01*
X141572754Y-90468649D01*
X141568833Y-90465165D01*
X141564792Y-90461902D01*
X141560635Y-90458851D01*
X141556369Y-90456007D01*
X141551998Y-90453361D01*
X141547530Y-90450907D01*
X141538323Y-90446546D01*
X141528794Y-90442866D01*
X141518988Y-90439811D01*
X141508953Y-90437325D01*
X141498734Y-90435350D01*
X141488377Y-90433830D01*
X141477930Y-90432708D01*
X141467438Y-90431927D01*
X141456947Y-90431432D01*
X141436156Y-90431068D01*
X141415926Y-90431162D01*
X141400914Y-90431196D01*
X141353976Y-90431442D01*
X141321932Y-90431550D01*
X141243843Y-90431938D01*
X141220500Y-90537585D01*
X141197887Y-90643393D01*
X141191446Y-90673949D01*
X141181987Y-90718819D01*
X141179056Y-90732671D01*
X141176400Y-90745346D01*
X141174054Y-90756491D01*
X141173430Y-90759354D01*
X141172965Y-90761605D01*
X141172785Y-90762562D01*
X141172638Y-90763440D01*
X141172520Y-90764263D01*
X141172430Y-90765056D01*
X141172365Y-90765842D01*
X141172322Y-90766648D01*
X141172300Y-90767497D01*
X141172295Y-90768414D01*
X140803680Y-90768414D01*
X140817834Y-90701004D01*
X140856850Y-90515244D01*
X140877115Y-90418757D01*
X140894278Y-90337108D01*
X140902979Y-90295685D01*
X140912384Y-90251009D01*
X140915123Y-90237845D01*
X140917684Y-90225794D01*
X140919865Y-90215421D01*
X140920908Y-90211599D01*
X140922037Y-90207839D01*
X140923247Y-90204129D01*
X140924532Y-90200455D01*
X140925887Y-90196806D01*
X140927306Y-90193168D01*
X140928783Y-90189529D01*
X140930312Y-90185875D01*
X141210285Y-90185258D01*
X141340305Y-90184977D01*
X141453732Y-90184755D01*
X141513697Y-90184616D01*
X141570338Y-90184528D01*
X141580637Y-90184508D01*
X141590935Y-90184456D01*
X141610883Y-90184539D01*
G37*
G36*
X150887776Y-90184887D02*
G01*
X150896625Y-90184885D01*
X150899002Y-90185227D01*
X150899995Y-90185396D01*
X150900886Y-90185581D01*
X150901698Y-90185795D01*
X150902081Y-90185918D01*
X150902452Y-90186052D01*
X150902815Y-90186200D01*
X150903172Y-90186364D01*
X150903525Y-90186544D01*
X150903878Y-90186744D01*
X150904234Y-90186963D01*
X150904594Y-90187205D01*
X150905341Y-90187761D01*
X150906142Y-90188424D01*
X150907018Y-90189208D01*
X150907991Y-90190126D01*
X150909084Y-90191191D01*
X150911718Y-90193813D01*
X150911390Y-90197228D01*
X150911110Y-90199955D01*
X150910833Y-90202268D01*
X150910514Y-90204443D01*
X150910110Y-90206752D01*
X150909577Y-90209472D01*
X150907945Y-90217238D01*
X150904853Y-90232126D01*
X150901346Y-90248274D01*
X150897871Y-90264762D01*
X150890492Y-90299323D01*
X150881043Y-90343713D01*
X150873821Y-90377755D01*
X150870342Y-90394128D01*
X150865437Y-90416963D01*
X150862614Y-90430110D01*
X150861784Y-90433341D01*
X150861112Y-90435817D01*
X150860812Y-90436823D01*
X150860523Y-90437700D01*
X150860235Y-90438469D01*
X150859939Y-90439150D01*
X150859626Y-90439764D01*
X150859286Y-90440329D01*
X150858910Y-90440867D01*
X150858488Y-90441397D01*
X150858011Y-90441939D01*
X150857470Y-90442515D01*
X150856155Y-90443844D01*
X150850165Y-90444118D01*
X150844170Y-90444303D01*
X150838172Y-90444415D01*
X150832175Y-90444472D01*
X150816372Y-90444589D01*
X150798871Y-90444659D01*
X150780571Y-90444778D01*
X150730734Y-90445047D01*
X150678709Y-90445349D01*
X150580123Y-90445897D01*
X150467915Y-90446531D01*
X150237031Y-90447813D01*
X150181468Y-90709750D01*
X150764874Y-90709750D01*
X150743099Y-90822122D01*
X150737161Y-90850956D01*
X150730187Y-90883242D01*
X150723946Y-90912272D01*
X150719915Y-90930899D01*
X150718062Y-90939589D01*
X150716626Y-90946113D01*
X150715492Y-90951068D01*
X150714559Y-90954740D01*
X150714136Y-90956183D01*
X150713724Y-90957412D01*
X150713311Y-90958460D01*
X150712884Y-90959365D01*
X150712431Y-90960161D01*
X150711937Y-90960884D01*
X150711392Y-90961569D01*
X150710781Y-90962251D01*
X150709312Y-90963750D01*
X150703660Y-90964024D01*
X150698004Y-90964209D01*
X150692345Y-90964322D01*
X150686686Y-90964378D01*
X150671794Y-90964495D01*
X150655307Y-90964565D01*
X150638061Y-90964684D01*
X150591103Y-90964954D01*
X150542082Y-90965256D01*
X150449188Y-90965803D01*
X150323705Y-90966560D01*
X150125906Y-90967719D01*
X150070343Y-91237594D01*
X150701374Y-91241562D01*
X150697131Y-91274153D01*
X150691811Y-91306581D01*
X150685639Y-91338877D01*
X150678836Y-91371075D01*
X150649781Y-91499531D01*
X149653625Y-91499531D01*
X149656256Y-91476062D01*
X149657932Y-91462467D01*
X149658636Y-91457748D01*
X149659371Y-91453551D01*
X149661293Y-91444119D01*
X149663489Y-91433564D01*
X149665878Y-91422329D01*
X149668434Y-91410112D01*
X149676926Y-91369834D01*
X149683000Y-91340902D01*
X149697807Y-91270583D01*
X149715176Y-91188068D01*
X149758972Y-90980256D01*
X149764343Y-90954806D01*
X149843747Y-90579109D01*
X149881272Y-90401450D01*
X149887910Y-90369952D01*
X149892096Y-90350087D01*
X149894116Y-90340499D01*
X149905481Y-90286489D01*
X149910591Y-90262219D01*
X149916607Y-90233603D01*
X149919222Y-90221222D01*
X149921457Y-90210594D01*
X149922699Y-90205295D01*
X149923210Y-90203282D01*
X149923740Y-90201367D01*
X149924360Y-90199310D01*
X149925142Y-90196865D01*
X149927468Y-90189844D01*
X149931354Y-90188610D01*
X149933171Y-90188084D01*
X149934923Y-90187615D01*
X149936624Y-90187200D01*
X149938288Y-90186835D01*
X149939927Y-90186519D01*
X149941556Y-90186248D01*
X149943189Y-90186019D01*
X149944840Y-90185830D01*
X149946521Y-90185678D01*
X149948248Y-90185559D01*
X149951891Y-90185411D01*
X149955879Y-90185365D01*
X149966116Y-90185326D01*
X149977366Y-90185344D01*
X149989313Y-90185317D01*
X150029130Y-90185299D01*
X150057601Y-90185258D01*
X150127010Y-90185212D01*
X150183401Y-90185189D01*
X150343173Y-90185139D01*
X150351875Y-90185140D01*
X150360589Y-90185140D01*
X150500504Y-90185048D01*
X150644061Y-90184967D01*
X150724701Y-90184914D01*
X150800486Y-90184905D01*
X150828373Y-90184875D01*
X150866294Y-90184894D01*
X150877571Y-90184832D01*
X150887776Y-90184887D01*
G37*
G36*
X143283674Y-90185354D02*
G01*
X143311561Y-90185349D01*
X143349481Y-90185371D01*
X143360758Y-90185344D01*
X143370964Y-90185376D01*
X143379812Y-90185378D01*
X143382190Y-90185550D01*
X143383182Y-90185634D01*
X143384073Y-90185727D01*
X143384885Y-90185835D01*
X143385640Y-90185963D01*
X143386359Y-90186119D01*
X143387066Y-90186309D01*
X143387782Y-90186540D01*
X143388529Y-90186818D01*
X143389329Y-90187150D01*
X143390205Y-90187542D01*
X143391179Y-90188001D01*
X143392272Y-90188533D01*
X143394906Y-90189844D01*
X143386248Y-90235657D01*
X143377222Y-90281384D01*
X143367860Y-90327045D01*
X143358195Y-90372654D01*
X143356052Y-90382692D01*
X143349947Y-90410993D01*
X143348095Y-90419673D01*
X143346658Y-90426199D01*
X143345525Y-90431158D01*
X143344591Y-90434831D01*
X143344168Y-90436275D01*
X143343756Y-90437504D01*
X143343343Y-90438553D01*
X143342916Y-90439458D01*
X143342462Y-90440254D01*
X143341969Y-90440977D01*
X143341423Y-90441662D01*
X143340812Y-90442345D01*
X143339343Y-90443844D01*
X143333351Y-90444081D01*
X143327356Y-90444229D01*
X143321359Y-90444303D01*
X143315362Y-90444321D01*
X143299559Y-90444337D01*
X143282059Y-90444294D01*
X143263758Y-90444296D01*
X143213922Y-90444246D01*
X143161896Y-90444214D01*
X143063310Y-90444130D01*
X142951102Y-90444043D01*
X142720218Y-90443844D01*
X142718964Y-90450734D01*
X142706410Y-90515712D01*
X142692934Y-90580432D01*
X142664656Y-90709750D01*
X143248062Y-90709750D01*
X143242500Y-90741665D01*
X143236523Y-90773503D01*
X143223644Y-90837011D01*
X143196468Y-90963750D01*
X142609093Y-90963750D01*
X142589250Y-91066937D01*
X142553531Y-91241562D01*
X143184562Y-91241562D01*
X143181920Y-91267663D01*
X143180981Y-91276278D01*
X143180168Y-91282920D01*
X143179380Y-91288327D01*
X143178522Y-91293236D01*
X143176198Y-91304511D01*
X143173589Y-91316906D01*
X143170796Y-91329852D01*
X143167905Y-91343477D01*
X143161860Y-91371763D01*
X143152610Y-91415156D01*
X143146735Y-91442713D01*
X143143941Y-91455829D01*
X143141332Y-91467959D01*
X143139045Y-91478625D01*
X143137764Y-91484014D01*
X143137242Y-91486056D01*
X143136704Y-91487988D01*
X143136079Y-91490057D01*
X143135296Y-91492507D01*
X143132968Y-91499531D01*
X142136812Y-91499531D01*
X142139444Y-91476061D01*
X142141125Y-91462455D01*
X142141834Y-91457726D01*
X142142577Y-91453511D01*
X142144525Y-91444024D01*
X142146752Y-91433394D01*
X142149179Y-91422068D01*
X142151776Y-91409745D01*
X142160423Y-91369012D01*
X142166636Y-91339625D01*
X142180078Y-91276189D01*
X142199705Y-91183566D01*
X142224200Y-91067876D01*
X142276010Y-90822824D01*
X142287996Y-90766017D01*
X142289984Y-90756601D01*
X142297883Y-90719165D01*
X142303744Y-90691389D01*
X142305683Y-90682203D01*
X142317071Y-90628220D01*
X142326253Y-90584700D01*
X142328063Y-90576125D01*
X142347309Y-90485140D01*
X142348999Y-90477184D01*
X142357297Y-90438103D01*
X142376618Y-90346060D01*
X142388722Y-90288390D01*
X142394286Y-90261587D01*
X142398061Y-90243424D01*
X142401897Y-90225273D01*
X142404069Y-90214449D01*
X142404768Y-90211343D01*
X142405512Y-90208247D01*
X142406297Y-90205161D01*
X142407118Y-90202083D01*
X142408846Y-90195951D01*
X142410656Y-90189844D01*
X142414543Y-90188610D01*
X142416361Y-90188084D01*
X142418113Y-90187615D01*
X142419814Y-90187200D01*
X142421476Y-90186836D01*
X142423115Y-90186520D01*
X142424744Y-90186250D01*
X142426376Y-90186022D01*
X142428026Y-90185834D01*
X142429707Y-90185682D01*
X142431434Y-90185564D01*
X142435077Y-90185419D01*
X142439066Y-90185376D01*
X142449304Y-90185344D01*
X142460553Y-90185371D01*
X142472501Y-90185352D01*
X142512317Y-90185362D01*
X142540788Y-90185340D01*
X142610198Y-90185338D01*
X142666589Y-90185344D01*
X142674688Y-90185342D01*
X142690975Y-90185338D01*
X142843776Y-90185361D01*
X142974985Y-90185358D01*
X143127249Y-90185340D01*
X143143473Y-90185344D01*
X143151537Y-90185346D01*
X143207889Y-90185334D01*
X143283674Y-90185354D01*
G37*
G36*
X139758502Y-90172946D02*
G01*
X139779744Y-90173811D01*
X139801363Y-90175055D01*
X139845329Y-90177700D01*
X139865257Y-90178530D01*
X139885192Y-90179141D01*
X139925071Y-90180062D01*
X139964070Y-90181149D01*
X140003053Y-90182492D01*
X140042028Y-90184074D01*
X140081000Y-90185875D01*
X140243839Y-91080035D01*
X140261561Y-91177700D01*
X140283390Y-91298031D01*
X140294710Y-91360433D01*
X140305168Y-91418104D01*
X140308992Y-91439178D01*
X140314164Y-91467713D01*
X140315707Y-91476191D01*
X140317683Y-91487197D01*
X140318290Y-91490724D01*
X140318697Y-91493297D01*
X140318944Y-91495191D01*
X140319071Y-91496679D01*
X140319118Y-91498035D01*
X140319125Y-91499531D01*
X139906375Y-91499531D01*
X139896661Y-91435154D01*
X139887649Y-91370672D01*
X139870656Y-91241562D01*
X139350750Y-91241562D01*
X139287250Y-91360625D01*
X139265133Y-91400733D01*
X139252108Y-91423980D01*
X139237361Y-91450341D01*
X139227470Y-91468029D01*
X139222867Y-91476283D01*
X139216689Y-91487234D01*
X139214646Y-91490744D01*
X139213068Y-91493306D01*
X139211777Y-91495194D01*
X139210598Y-91496679D01*
X139209356Y-91498034D01*
X139207875Y-91499531D01*
X139199465Y-91499768D01*
X139191073Y-91499916D01*
X139182682Y-91499985D01*
X139174271Y-91499982D01*
X139163595Y-91499984D01*
X139128484Y-91499919D01*
X139104210Y-91499902D01*
X139040184Y-91499803D01*
X138974905Y-91499725D01*
X138846719Y-91499531D01*
X138847342Y-91496928D01*
X138848013Y-91494403D01*
X138848732Y-91491949D01*
X138849500Y-91489557D01*
X138850316Y-91487218D01*
X138851181Y-91484925D01*
X138852096Y-91482667D01*
X138853060Y-91480438D01*
X138854074Y-91478228D01*
X138855138Y-91476028D01*
X138857418Y-91471626D01*
X138859902Y-91467164D01*
X138862594Y-91462572D01*
X138870186Y-91449806D01*
X138878468Y-91436031D01*
X138887030Y-91421690D01*
X138924277Y-91359799D01*
X138961781Y-91298063D01*
X138983696Y-91261918D01*
X139005469Y-91225688D01*
X139033414Y-91179252D01*
X139061527Y-91132918D01*
X139099357Y-91070436D01*
X139136972Y-91007824D01*
X139146779Y-90991531D01*
X139489656Y-90991531D01*
X139838906Y-90991531D01*
X139835192Y-90935184D01*
X139833037Y-90907064D01*
X139830542Y-90878939D01*
X139829270Y-90865420D01*
X139825140Y-90821960D01*
X139822249Y-90791438D01*
X139816204Y-90727855D01*
X139809245Y-90654513D01*
X139802512Y-90583541D01*
X139799664Y-90553493D01*
X139795676Y-90511613D01*
X139794501Y-90499130D01*
X139793106Y-90485238D01*
X139791522Y-90471407D01*
X139790622Y-90464508D01*
X139789630Y-90457616D01*
X139788532Y-90450729D01*
X139787312Y-90443844D01*
X139783343Y-90443844D01*
X139738987Y-90525326D01*
X139695050Y-90607037D01*
X139691241Y-90614159D01*
X139687436Y-90621273D01*
X139627506Y-90732698D01*
X139606750Y-90771235D01*
X139599789Y-90784162D01*
X139585976Y-90809824D01*
X139553730Y-90869629D01*
X139542374Y-90890654D01*
X139528173Y-90916916D01*
X139521639Y-90929023D01*
X139515971Y-90939503D01*
X139509274Y-90952450D01*
X139502688Y-90965453D01*
X139489656Y-90991531D01*
X139146779Y-90991531D01*
X139171286Y-90950821D01*
X139205814Y-90893949D01*
X139242713Y-90832700D01*
X139279222Y-90771217D01*
X139294901Y-90744876D01*
X139310718Y-90718627D01*
X139326696Y-90692476D01*
X139342856Y-90666426D01*
X139357405Y-90642795D01*
X139371753Y-90619046D01*
X139400111Y-90571340D01*
X139443047Y-90499370D01*
X139486505Y-90427715D01*
X139501986Y-90402332D01*
X139517399Y-90376907D01*
X139521671Y-90369930D01*
X139525991Y-90362995D01*
X139530360Y-90356088D01*
X139534778Y-90349199D01*
X139539968Y-90341000D01*
X139544979Y-90332839D01*
X139549780Y-90324657D01*
X139554337Y-90316396D01*
X139558619Y-90308000D01*
X139560646Y-90303733D01*
X139562593Y-90299410D01*
X139564454Y-90295024D01*
X139566227Y-90290567D01*
X139567906Y-90286034D01*
X139569488Y-90281415D01*
X139573734Y-90269577D01*
X139578387Y-90258600D01*
X139583435Y-90248454D01*
X139588866Y-90239107D01*
X139594666Y-90230530D01*
X139600825Y-90222691D01*
X139607328Y-90215561D01*
X139614163Y-90209107D01*
X139621318Y-90203300D01*
X139628781Y-90198110D01*
X139636538Y-90193504D01*
X139644578Y-90189453D01*
X139652887Y-90185926D01*
X139661453Y-90182893D01*
X139670264Y-90180322D01*
X139679307Y-90178183D01*
X139688570Y-90176445D01*
X139698040Y-90175078D01*
X139707704Y-90174052D01*
X139717550Y-90173334D01*
X139737737Y-90172705D01*
X139758502Y-90172946D01*
G37*
G36*
X147068389Y-90296523D02*
G01*
X147062393Y-90325932D01*
X147055216Y-90359805D01*
X147051179Y-90378879D01*
X147042630Y-90419192D01*
X147029058Y-90483259D01*
X146992949Y-90653712D01*
X146969119Y-90766241D01*
X146957859Y-90819368D01*
X146940304Y-90883605D01*
X146933370Y-90910307D01*
X146927645Y-90934138D01*
X146923117Y-90955653D01*
X146919770Y-90975407D01*
X146917590Y-90993954D01*
X146916562Y-91011850D01*
X146916674Y-91029649D01*
X146917910Y-91047906D01*
X146920257Y-91067176D01*
X146923700Y-91088013D01*
X146928224Y-91110974D01*
X146933816Y-91136612D01*
X146948146Y-91198139D01*
X146951093Y-91201890D01*
X146954174Y-91205500D01*
X146957384Y-91208973D01*
X146960718Y-91212311D01*
X146967733Y-91218598D01*
X146975174Y-91224386D01*
X146982997Y-91229702D01*
X146991156Y-91234571D01*
X146999607Y-91239020D01*
X147008304Y-91243073D01*
X147017203Y-91246757D01*
X147026260Y-91250098D01*
X147035428Y-91253122D01*
X147044663Y-91255853D01*
X147053921Y-91258320D01*
X147063156Y-91260546D01*
X147081378Y-91264383D01*
X147085467Y-91264698D01*
X147089559Y-91264964D01*
X147093653Y-91265188D01*
X147097750Y-91265375D01*
X147110539Y-91265995D01*
X147126926Y-91266098D01*
X147143045Y-91265563D01*
X147158896Y-91264377D01*
X147174482Y-91262525D01*
X147189801Y-91259993D01*
X147204854Y-91256768D01*
X147219641Y-91252834D01*
X147234163Y-91248180D01*
X147248420Y-91242789D01*
X147262413Y-91236648D01*
X147276142Y-91229744D01*
X147289607Y-91222061D01*
X147302808Y-91213587D01*
X147315746Y-91204306D01*
X147328422Y-91194206D01*
X147340835Y-91183272D01*
X147353141Y-91169336D01*
X147364506Y-91154773D01*
X147374984Y-91139633D01*
X147384629Y-91123970D01*
X147393495Y-91107837D01*
X147401634Y-91091287D01*
X147409100Y-91074371D01*
X147415948Y-91057143D01*
X147422230Y-91039656D01*
X147428001Y-91021961D01*
X147433313Y-91004113D01*
X147438220Y-90986163D01*
X147447035Y-90950170D01*
X147454875Y-90914404D01*
X147459311Y-90893810D01*
X147474780Y-90820875D01*
X147477839Y-90806377D01*
X147525724Y-90577681D01*
X147544535Y-90487487D01*
X147570866Y-90361240D01*
X147577083Y-90331427D01*
X147591729Y-90260724D01*
X147594501Y-90247263D01*
X147599618Y-90222268D01*
X147601900Y-90211208D01*
X147603873Y-90201554D01*
X147604500Y-90198983D01*
X147605020Y-90196955D01*
X147605261Y-90196086D01*
X147605500Y-90195284D01*
X147605748Y-90194526D01*
X147606011Y-90193788D01*
X147606298Y-90193048D01*
X147606619Y-90192283D01*
X147606982Y-90191470D01*
X147607394Y-90190585D01*
X147608404Y-90188510D01*
X147609718Y-90185875D01*
X147966905Y-90185875D01*
X147914258Y-90441317D01*
X147911581Y-90454237D01*
X147848635Y-90756067D01*
X147836731Y-90812923D01*
X147822529Y-90880591D01*
X147817345Y-90905365D01*
X147803386Y-90969373D01*
X147787157Y-91034400D01*
X147777900Y-91066908D01*
X147767726Y-91099206D01*
X147756518Y-91131138D01*
X147744159Y-91162550D01*
X147730534Y-91193286D01*
X147715524Y-91223192D01*
X147699014Y-91252112D01*
X147680887Y-91279891D01*
X147661026Y-91306375D01*
X147639315Y-91331408D01*
X147615636Y-91354834D01*
X147589875Y-91376500D01*
X147577906Y-91386174D01*
X147555399Y-91402988D01*
X147532176Y-91418616D01*
X147508290Y-91433092D01*
X147483794Y-91446447D01*
X147458739Y-91458716D01*
X147433179Y-91469929D01*
X147407164Y-91480121D01*
X147380748Y-91489324D01*
X147353983Y-91497571D01*
X147326922Y-91504895D01*
X147299616Y-91511328D01*
X147272117Y-91516903D01*
X147244479Y-91521653D01*
X147216754Y-91525611D01*
X147188993Y-91528809D01*
X147161250Y-91531281D01*
X147152505Y-91531959D01*
X147088180Y-91535633D01*
X147055105Y-91536548D01*
X147021624Y-91536676D01*
X146987889Y-91535883D01*
X146954054Y-91534041D01*
X146920269Y-91531017D01*
X146886687Y-91526680D01*
X146853461Y-91520900D01*
X146820742Y-91513546D01*
X146788683Y-91504486D01*
X146757435Y-91493590D01*
X146727152Y-91480727D01*
X146697984Y-91465766D01*
X146670085Y-91448575D01*
X146643607Y-91429024D01*
X146633406Y-91420156D01*
X146623701Y-91411785D01*
X146612181Y-91400338D01*
X146601538Y-91388261D01*
X146591747Y-91375599D01*
X146582783Y-91362400D01*
X146574620Y-91348712D01*
X146567234Y-91334582D01*
X146560599Y-91320057D01*
X146554689Y-91305185D01*
X146549481Y-91290012D01*
X146544948Y-91274588D01*
X146541066Y-91258958D01*
X146537809Y-91243170D01*
X146535152Y-91227272D01*
X146533071Y-91211311D01*
X146531539Y-91195334D01*
X146530532Y-91179389D01*
X146530339Y-91155757D01*
X146531050Y-91132248D01*
X146532579Y-91108841D01*
X146534836Y-91085514D01*
X146537735Y-91062247D01*
X146541189Y-91039020D01*
X146545110Y-91015812D01*
X146549411Y-90992601D01*
X146551175Y-90983334D01*
X146565364Y-90911213D01*
X146580196Y-90839220D01*
X146610768Y-90695423D01*
X146625736Y-90625060D01*
X146653440Y-90494885D01*
X146681021Y-90365119D01*
X146693691Y-90305443D01*
X146700068Y-90275385D01*
X146708563Y-90235438D01*
X146710967Y-90224085D01*
X146713137Y-90213925D01*
X146714981Y-90205253D01*
X146715573Y-90202763D01*
X146716065Y-90200747D01*
X146716527Y-90198978D01*
X146717024Y-90197227D01*
X146717625Y-90195269D01*
X146718396Y-90192875D01*
X146720718Y-90185875D01*
X147089812Y-90185875D01*
X147068389Y-90296523D01*
G37*
G36*
X144551138Y-90184996D02*
G01*
X144588905Y-90186024D01*
X144607910Y-90187147D01*
X144626888Y-90188807D01*
X144645760Y-90191104D01*
X144664446Y-90194138D01*
X144682865Y-90198007D01*
X144700938Y-90202810D01*
X144718584Y-90208648D01*
X144735723Y-90215619D01*
X144752275Y-90223822D01*
X144768161Y-90233356D01*
X144783299Y-90244321D01*
X144790563Y-90250371D01*
X144797611Y-90256816D01*
X144807721Y-90268391D01*
X144816828Y-90280176D01*
X144824975Y-90292175D01*
X144832208Y-90304392D01*
X144838570Y-90316829D01*
X144844107Y-90329491D01*
X144848863Y-90342379D01*
X144852882Y-90355499D01*
X144856209Y-90368852D01*
X144858889Y-90382442D01*
X144860966Y-90396273D01*
X144862484Y-90410348D01*
X144863489Y-90424670D01*
X144864025Y-90439242D01*
X144864136Y-90454068D01*
X144863867Y-90469150D01*
X144862729Y-90485563D01*
X144860971Y-90501902D01*
X144858594Y-90518144D01*
X144855599Y-90534266D01*
X144851988Y-90550243D01*
X144847763Y-90566053D01*
X144842925Y-90581672D01*
X144837475Y-90597076D01*
X144831416Y-90612241D01*
X144824748Y-90627145D01*
X144817474Y-90641763D01*
X144809595Y-90656073D01*
X144801113Y-90670050D01*
X144792029Y-90683671D01*
X144782345Y-90696912D01*
X144772062Y-90709750D01*
X144764574Y-90719625D01*
X144757811Y-90727324D01*
X144750762Y-90734703D01*
X144743440Y-90741771D01*
X144735856Y-90748534D01*
X144719960Y-90761185D01*
X144703177Y-90772721D01*
X144685612Y-90783212D01*
X144667367Y-90792722D01*
X144648548Y-90801320D01*
X144629257Y-90809072D01*
X144609599Y-90816044D01*
X144589678Y-90822305D01*
X144569597Y-90827920D01*
X144549461Y-90832956D01*
X144529373Y-90837481D01*
X144509437Y-90841562D01*
X144470437Y-90848656D01*
X144478425Y-90849497D01*
X144526219Y-90854756D01*
X144562717Y-90859410D01*
X144577433Y-90861779D01*
X144590170Y-90864319D01*
X144601208Y-90867136D01*
X144610830Y-90870339D01*
X144619316Y-90874035D01*
X144626949Y-90878330D01*
X144634010Y-90883332D01*
X144640779Y-90889148D01*
X144647540Y-90895885D01*
X144654572Y-90903652D01*
X144670579Y-90922698D01*
X144675363Y-90930274D01*
X144679717Y-90938060D01*
X144683660Y-90946044D01*
X144687208Y-90954214D01*
X144690377Y-90962558D01*
X144693185Y-90971064D01*
X144697781Y-90988517D01*
X144701129Y-91006477D01*
X144703365Y-91024849D01*
X144704620Y-91043539D01*
X144705028Y-91062451D01*
X144704723Y-91081492D01*
X144703838Y-91100565D01*
X144700862Y-91138433D01*
X144693822Y-91210392D01*
X144691334Y-91246517D01*
X144689631Y-91282629D01*
X144688583Y-91318739D01*
X144688064Y-91354853D01*
X144688100Y-91427131D01*
X144688718Y-91499531D01*
X144291843Y-91499531D01*
X144291925Y-91430385D01*
X144292118Y-91407557D01*
X144292494Y-91389951D01*
X144293115Y-91375610D01*
X144294041Y-91362580D01*
X144297053Y-91332627D01*
X144298654Y-91316289D01*
X144303750Y-91265871D01*
X144309230Y-91214560D01*
X144311045Y-91195983D01*
X144312452Y-91179418D01*
X144313608Y-91162837D01*
X144314671Y-91144211D01*
X144317144Y-91092703D01*
X144317310Y-91083519D01*
X144317203Y-91078688D01*
X144316961Y-91073946D01*
X144316571Y-91069292D01*
X144316022Y-91064723D01*
X144315304Y-91060240D01*
X144314405Y-91055839D01*
X144313315Y-91051520D01*
X144312023Y-91047282D01*
X144310517Y-91043122D01*
X144308787Y-91039040D01*
X144306822Y-91035033D01*
X144304611Y-91031101D01*
X144302142Y-91027242D01*
X144299405Y-91023454D01*
X144296390Y-91019737D01*
X144293084Y-91016088D01*
X144286339Y-91011895D01*
X144279575Y-91008196D01*
X144272783Y-91004958D01*
X144265956Y-91002152D01*
X144259087Y-90999748D01*
X144252168Y-90997715D01*
X144245192Y-90996023D01*
X144238152Y-90994642D01*
X144231041Y-90993541D01*
X144223851Y-90992691D01*
X144216574Y-90992060D01*
X144209204Y-90991619D01*
X144194154Y-90991184D01*
X144178641Y-90991144D01*
X144165396Y-90991161D01*
X144123667Y-90991283D01*
X144095312Y-90991337D01*
X144025937Y-90991531D01*
X144024483Y-90998442D01*
X143989297Y-91165624D01*
X143972280Y-91246475D01*
X143955837Y-91324601D01*
X143949585Y-91354305D01*
X143940782Y-91396129D01*
X143938213Y-91408344D01*
X143918780Y-91499531D01*
X143549687Y-91499531D01*
X143571150Y-91388642D01*
X143576998Y-91359935D01*
X143583863Y-91327557D01*
X143586390Y-91315687D01*
X143589018Y-91303342D01*
X143594702Y-91276512D01*
X143606977Y-91218645D01*
X143639169Y-91066787D01*
X143644695Y-91040700D01*
X143705968Y-90750021D01*
X143706924Y-90745469D01*
X144077531Y-90745469D01*
X144125767Y-90745955D01*
X144174005Y-90746291D01*
X144196412Y-90746442D01*
X144218819Y-90746666D01*
X144240511Y-90746871D01*
X144262205Y-90746975D01*
X144270411Y-90747040D01*
X144278617Y-90747147D01*
X144297803Y-90747079D01*
X144307311Y-90746723D01*
X144316744Y-90746105D01*
X144326087Y-90745192D01*
X144335325Y-90743949D01*
X144344445Y-90742341D01*
X144353433Y-90740335D01*
X144362273Y-90737895D01*
X144370952Y-90734987D01*
X144379456Y-90731576D01*
X144387770Y-90727629D01*
X144395880Y-90723110D01*
X144403772Y-90717986D01*
X144411431Y-90712221D01*
X144418843Y-90705781D01*
X144425804Y-90700030D01*
X144432849Y-90693407D01*
X144439545Y-90686377D01*
X144445884Y-90678969D01*
X144451856Y-90671214D01*
X144457452Y-90663143D01*
X144462662Y-90654786D01*
X144467477Y-90646174D01*
X144471888Y-90637336D01*
X144475886Y-90628304D01*
X144479460Y-90619108D01*
X144482603Y-90609779D01*
X144485304Y-90600346D01*
X144487554Y-90590840D01*
X144489344Y-90581293D01*
X144490664Y-90571734D01*
X144491506Y-90562193D01*
X144491884Y-90549277D01*
X144491912Y-90543072D01*
X144491793Y-90537021D01*
X144491495Y-90531111D01*
X144490989Y-90525331D01*
X144490244Y-90519669D01*
X144489231Y-90514113D01*
X144487919Y-90508653D01*
X144486277Y-90503274D01*
X144484276Y-90497968D01*
X144481885Y-90492720D01*
X144479074Y-90487520D01*
X144475812Y-90482357D01*
X144472070Y-90477217D01*
X144467817Y-90472090D01*
X144461610Y-90466393D01*
X144455164Y-90461222D01*
X144448493Y-90456552D01*
X144441612Y-90452357D01*
X144434536Y-90448612D01*
X144427281Y-90445290D01*
X144419861Y-90442366D01*
X144412292Y-90439814D01*
X144404587Y-90437609D01*
X144396764Y-90435724D01*
X144388835Y-90434134D01*
X144380817Y-90432813D01*
X144372725Y-90431735D01*
X144364573Y-90430875D01*
X144356376Y-90430207D01*
X144348150Y-90429705D01*
X144338364Y-90429194D01*
X144313721Y-90428311D01*
X144289062Y-90427763D01*
X144239714Y-90427419D01*
X144141031Y-90427969D01*
X144116193Y-90546885D01*
X144104661Y-90602100D01*
X144093545Y-90655368D01*
X144089291Y-90675709D01*
X144083360Y-90704158D01*
X144081560Y-90712688D01*
X144080724Y-90716837D01*
X144079957Y-90720916D01*
X144079271Y-90724953D01*
X144078680Y-90728975D01*
X144078197Y-90733011D01*
X144077836Y-90737086D01*
X144077609Y-90741230D01*
X144077531Y-90745469D01*
X143706924Y-90745469D01*
X143720676Y-90680008D01*
X143730450Y-90633490D01*
X143732888Y-90621887D01*
X143761902Y-90483658D01*
X143780302Y-90396032D01*
X143791017Y-90344968D01*
X143800929Y-90297762D01*
X143804509Y-90280673D01*
X143809638Y-90256801D01*
X143815109Y-90233054D01*
X143818005Y-90221223D01*
X143821027Y-90209417D01*
X143824187Y-90197635D01*
X143827500Y-90185875D01*
X144118545Y-90185464D01*
X144253703Y-90185276D01*
X144371599Y-90185128D01*
X144433940Y-90185036D01*
X144492800Y-90184977D01*
X144514227Y-90184929D01*
X144551138Y-90184996D01*
G37*
G36*
X149123283Y-90185014D02*
G01*
X149161296Y-90186091D01*
X149180451Y-90187247D01*
X149199594Y-90188945D01*
X149218640Y-90191282D01*
X149237506Y-90194359D01*
X149256106Y-90198271D01*
X149274358Y-90203118D01*
X149292177Y-90208997D01*
X149309480Y-90216007D01*
X149326182Y-90224245D01*
X149342199Y-90233810D01*
X149357447Y-90244800D01*
X149364757Y-90250860D01*
X149371843Y-90257313D01*
X149381726Y-90268997D01*
X149390650Y-90280918D01*
X149398651Y-90293074D01*
X149405770Y-90305460D01*
X149412044Y-90318075D01*
X149417512Y-90330916D01*
X149422212Y-90343979D01*
X149426183Y-90357262D01*
X149429464Y-90370763D01*
X149432092Y-90384478D01*
X149434107Y-90398404D01*
X149435546Y-90412539D01*
X149436449Y-90426881D01*
X149436854Y-90441425D01*
X149436799Y-90456169D01*
X149436323Y-90471112D01*
X149434390Y-90491474D01*
X149431730Y-90511984D01*
X149428255Y-90532504D01*
X149426186Y-90542723D01*
X149423881Y-90552893D01*
X149421329Y-90562996D01*
X149418520Y-90573014D01*
X149415443Y-90582930D01*
X149412086Y-90592727D01*
X149408440Y-90602388D01*
X149404493Y-90611894D01*
X149400236Y-90621229D01*
X149395655Y-90630375D01*
X149390508Y-90641057D01*
X149381132Y-90658245D01*
X149370871Y-90674596D01*
X149359765Y-90690127D01*
X149347856Y-90704854D01*
X149335187Y-90718793D01*
X149321798Y-90731961D01*
X149307732Y-90744374D01*
X149293030Y-90756049D01*
X149277734Y-90767001D01*
X149261886Y-90777249D01*
X149245527Y-90786808D01*
X149228699Y-90795694D01*
X149211444Y-90803924D01*
X149193803Y-90811515D01*
X149175818Y-90818483D01*
X149157530Y-90824844D01*
X149143370Y-90828808D01*
X149129123Y-90832430D01*
X149114800Y-90835740D01*
X149100411Y-90838767D01*
X149085970Y-90841542D01*
X149071486Y-90844095D01*
X149056971Y-90846456D01*
X149042437Y-90848656D01*
X149056839Y-90849834D01*
X149081576Y-90852193D01*
X149106254Y-90855230D01*
X149118480Y-90857161D01*
X149130584Y-90859452D01*
X149142529Y-90862166D01*
X149154278Y-90865367D01*
X149165796Y-90869119D01*
X149177046Y-90873484D01*
X149187993Y-90878527D01*
X149198600Y-90884311D01*
X149208831Y-90890899D01*
X149218649Y-90898355D01*
X149228020Y-90906742D01*
X149236906Y-90916125D01*
X149245091Y-90924559D01*
X149249857Y-90932118D01*
X149254060Y-90939780D01*
X149257737Y-90947542D01*
X149260921Y-90955400D01*
X149263649Y-90963349D01*
X149265955Y-90971386D01*
X149267875Y-90979508D01*
X149269445Y-90987710D01*
X149270700Y-90995989D01*
X149271674Y-91004341D01*
X149272404Y-91012763D01*
X149272924Y-91021249D01*
X149273478Y-91038404D01*
X149273617Y-91055775D01*
X149273645Y-91064412D01*
X149273503Y-91083880D01*
X149273054Y-91103302D01*
X149272331Y-91122689D01*
X149271370Y-91142055D01*
X149268868Y-91180770D01*
X149265822Y-91219544D01*
X149263393Y-91254533D01*
X149261716Y-91289502D01*
X149260670Y-91324463D01*
X149260137Y-91359426D01*
X149260125Y-91429406D01*
X149260718Y-91499531D01*
X148863843Y-91499531D01*
X148863924Y-91435674D01*
X148864118Y-91414467D01*
X148864494Y-91397939D01*
X148865115Y-91384241D01*
X148866041Y-91371522D01*
X148869052Y-91341619D01*
X148870654Y-91325303D01*
X148875749Y-91274801D01*
X148881293Y-91222004D01*
X148883124Y-91202888D01*
X148884536Y-91185843D01*
X148885687Y-91168781D01*
X148886734Y-91149614D01*
X148889144Y-91096610D01*
X148889309Y-91086293D01*
X148889226Y-91082193D01*
X148889039Y-91078215D01*
X148888749Y-91074344D01*
X148888356Y-91070566D01*
X148887860Y-91066866D01*
X148887262Y-91063230D01*
X148886563Y-91059644D01*
X148885762Y-91056094D01*
X148884860Y-91052565D01*
X148883857Y-91049042D01*
X148882754Y-91045513D01*
X148881552Y-91041961D01*
X148878848Y-91034735D01*
X148875749Y-91027250D01*
X148872277Y-91017824D01*
X148871178Y-91016349D01*
X148869978Y-91014946D01*
X148868682Y-91013611D01*
X148867296Y-91012342D01*
X148865824Y-91011138D01*
X148864272Y-91009995D01*
X148862647Y-91008912D01*
X148860952Y-91007885D01*
X148857377Y-91005993D01*
X148853591Y-91004300D01*
X148849636Y-91002786D01*
X148845557Y-91001432D01*
X148841395Y-91000220D01*
X148837195Y-90999130D01*
X148828850Y-90997239D01*
X148813592Y-90994079D01*
X148806226Y-90992913D01*
X148798824Y-90991933D01*
X148783935Y-90990465D01*
X148768959Y-90989549D01*
X148753928Y-90989058D01*
X148738877Y-90988865D01*
X148723838Y-90988843D01*
X148693931Y-90988803D01*
X148665956Y-90988392D01*
X148597937Y-90987563D01*
X148596450Y-90995084D01*
X148577077Y-91090989D01*
X148557055Y-91186760D01*
X148551268Y-91214096D01*
X148536255Y-91284929D01*
X148518125Y-91370515D01*
X148490780Y-91499531D01*
X148121687Y-91499531D01*
X148165591Y-91285287D01*
X148210482Y-91071248D01*
X148227129Y-90992675D01*
X148228835Y-90984612D01*
X148235705Y-90952162D01*
X148246078Y-90903167D01*
X148279344Y-90745469D01*
X148649531Y-90745469D01*
X148698440Y-90746077D01*
X148747351Y-90746497D01*
X148770072Y-90746685D01*
X148792793Y-90746966D01*
X148814794Y-90747221D01*
X148836797Y-90747352D01*
X148845114Y-90747432D01*
X148853430Y-90747567D01*
X148862656Y-90747646D01*
X148871827Y-90747518D01*
X148880932Y-90747154D01*
X148889961Y-90746529D01*
X148898906Y-90745616D01*
X148907755Y-90744386D01*
X148916499Y-90742813D01*
X148925129Y-90740871D01*
X148933634Y-90738531D01*
X148942004Y-90735767D01*
X148950231Y-90732551D01*
X148958303Y-90728858D01*
X148966212Y-90724659D01*
X148973948Y-90719927D01*
X148981500Y-90714636D01*
X148988858Y-90708758D01*
X148997448Y-90699884D01*
X149005563Y-90690924D01*
X149013193Y-90681856D01*
X149020329Y-90672660D01*
X149026962Y-90663313D01*
X149033082Y-90653793D01*
X149038680Y-90644078D01*
X149043747Y-90634147D01*
X149048272Y-90623978D01*
X149052248Y-90613550D01*
X149055663Y-90602839D01*
X149058510Y-90591826D01*
X149060778Y-90580487D01*
X149062458Y-90568802D01*
X149063541Y-90556747D01*
X149064017Y-90544303D01*
X149063920Y-90538742D01*
X149063719Y-90533423D01*
X149063398Y-90528322D01*
X149062937Y-90523418D01*
X149062318Y-90518690D01*
X149061523Y-90514116D01*
X149060532Y-90509675D01*
X149059329Y-90505344D01*
X149057893Y-90501103D01*
X149056208Y-90496929D01*
X149054254Y-90492800D01*
X149052014Y-90488696D01*
X149049468Y-90484595D01*
X149046599Y-90480475D01*
X149043388Y-90476313D01*
X149039817Y-90472090D01*
X149033211Y-90466051D01*
X149026360Y-90460628D01*
X149019280Y-90455787D01*
X149011985Y-90451491D01*
X149004491Y-90447706D01*
X148996813Y-90444396D01*
X148988966Y-90441527D01*
X148980966Y-90439064D01*
X148972827Y-90436970D01*
X148964564Y-90435211D01*
X148956194Y-90433752D01*
X148947730Y-90432557D01*
X148939189Y-90431592D01*
X148930586Y-90430821D01*
X148913251Y-90429721D01*
X148903337Y-90429212D01*
X148888884Y-90428623D01*
X148874431Y-90428193D01*
X148845527Y-90427722D01*
X148816616Y-90427623D01*
X148787693Y-90427721D01*
X148747737Y-90427853D01*
X148727886Y-90427919D01*
X148713031Y-90427969D01*
X148688193Y-90546885D01*
X148676661Y-90602100D01*
X148665544Y-90655368D01*
X148661291Y-90675709D01*
X148655360Y-90704158D01*
X148653560Y-90712688D01*
X148652724Y-90716837D01*
X148651956Y-90720916D01*
X148651271Y-90724953D01*
X148650680Y-90728975D01*
X148650197Y-90733011D01*
X148649836Y-90737086D01*
X148649609Y-90741230D01*
X148649531Y-90745469D01*
X148279344Y-90745469D01*
X148317574Y-90564238D01*
X148326570Y-90521482D01*
X148337996Y-90467181D01*
X148348768Y-90416010D01*
X148371034Y-90309881D01*
X148380015Y-90266902D01*
X148384138Y-90247100D01*
X148389715Y-90220366D01*
X148392851Y-90205302D01*
X148393743Y-90201494D01*
X148394462Y-90198536D01*
X148395086Y-90196199D01*
X148395386Y-90195193D01*
X148395692Y-90194257D01*
X148396013Y-90193362D01*
X148396358Y-90192481D01*
X148396739Y-90191584D01*
X148397163Y-90190643D01*
X148398184Y-90188518D01*
X148399499Y-90185875D01*
X148690545Y-90185464D01*
X148825703Y-90185276D01*
X148943599Y-90185128D01*
X149005940Y-90185036D01*
X149064799Y-90184977D01*
X149086226Y-90184929D01*
X149123283Y-90185014D01*
G37*
D11*
X137053387Y-78623219D02*
X137053387Y-79337504D01*
X137053387Y-79337504D02*
X137005768Y-79480361D01*
X137005768Y-79480361D02*
X136910530Y-79575600D01*
X136910530Y-79575600D02*
X136767673Y-79623219D01*
X136767673Y-79623219D02*
X136672435Y-79623219D01*
X138005768Y-79623219D02*
X137529578Y-79623219D01*
X137529578Y-79623219D02*
X137529578Y-78623219D01*
X138910530Y-79527980D02*
X138862911Y-79575600D01*
X138862911Y-79575600D02*
X138720054Y-79623219D01*
X138720054Y-79623219D02*
X138624816Y-79623219D01*
X138624816Y-79623219D02*
X138481959Y-79575600D01*
X138481959Y-79575600D02*
X138386721Y-79480361D01*
X138386721Y-79480361D02*
X138339102Y-79385123D01*
X138339102Y-79385123D02*
X138291483Y-79194647D01*
X138291483Y-79194647D02*
X138291483Y-79051790D01*
X138291483Y-79051790D02*
X138339102Y-78861314D01*
X138339102Y-78861314D02*
X138386721Y-78766076D01*
X138386721Y-78766076D02*
X138481959Y-78670838D01*
X138481959Y-78670838D02*
X138624816Y-78623219D01*
X138624816Y-78623219D02*
X138720054Y-78623219D01*
X138720054Y-78623219D02*
X138862911Y-78670838D01*
X138862911Y-78670838D02*
X138910530Y-78718457D01*
X139624816Y-78623219D02*
X139624816Y-79337504D01*
X139624816Y-79337504D02*
X139577197Y-79480361D01*
X139577197Y-79480361D02*
X139481959Y-79575600D01*
X139481959Y-79575600D02*
X139339102Y-79623219D01*
X139339102Y-79623219D02*
X139243864Y-79623219D01*
X140577197Y-79623219D02*
X140101007Y-79623219D01*
X140101007Y-79623219D02*
X140101007Y-78623219D01*
X141481959Y-79527980D02*
X141434340Y-79575600D01*
X141434340Y-79575600D02*
X141291483Y-79623219D01*
X141291483Y-79623219D02*
X141196245Y-79623219D01*
X141196245Y-79623219D02*
X141053388Y-79575600D01*
X141053388Y-79575600D02*
X140958150Y-79480361D01*
X140958150Y-79480361D02*
X140910531Y-79385123D01*
X140910531Y-79385123D02*
X140862912Y-79194647D01*
X140862912Y-79194647D02*
X140862912Y-79051790D01*
X140862912Y-79051790D02*
X140910531Y-78861314D01*
X140910531Y-78861314D02*
X140958150Y-78766076D01*
X140958150Y-78766076D02*
X141053388Y-78670838D01*
X141053388Y-78670838D02*
X141196245Y-78623219D01*
X141196245Y-78623219D02*
X141291483Y-78623219D01*
X141291483Y-78623219D02*
X141434340Y-78670838D01*
X141434340Y-78670838D02*
X141481959Y-78718457D01*
X142196245Y-78623219D02*
X142196245Y-79337504D01*
X142196245Y-79337504D02*
X142148626Y-79480361D01*
X142148626Y-79480361D02*
X142053388Y-79575600D01*
X142053388Y-79575600D02*
X141910531Y-79623219D01*
X141910531Y-79623219D02*
X141815293Y-79623219D01*
X143148626Y-79623219D02*
X142672436Y-79623219D01*
X142672436Y-79623219D02*
X142672436Y-78623219D01*
X144053388Y-79527980D02*
X144005769Y-79575600D01*
X144005769Y-79575600D02*
X143862912Y-79623219D01*
X143862912Y-79623219D02*
X143767674Y-79623219D01*
X143767674Y-79623219D02*
X143624817Y-79575600D01*
X143624817Y-79575600D02*
X143529579Y-79480361D01*
X143529579Y-79480361D02*
X143481960Y-79385123D01*
X143481960Y-79385123D02*
X143434341Y-79194647D01*
X143434341Y-79194647D02*
X143434341Y-79051790D01*
X143434341Y-79051790D02*
X143481960Y-78861314D01*
X143481960Y-78861314D02*
X143529579Y-78766076D01*
X143529579Y-78766076D02*
X143624817Y-78670838D01*
X143624817Y-78670838D02*
X143767674Y-78623219D01*
X143767674Y-78623219D02*
X143862912Y-78623219D01*
X143862912Y-78623219D02*
X144005769Y-78670838D01*
X144005769Y-78670838D02*
X144053388Y-78718457D01*
X144767674Y-78623219D02*
X144767674Y-79337504D01*
X144767674Y-79337504D02*
X144720055Y-79480361D01*
X144720055Y-79480361D02*
X144624817Y-79575600D01*
X144624817Y-79575600D02*
X144481960Y-79623219D01*
X144481960Y-79623219D02*
X144386722Y-79623219D01*
X145720055Y-79623219D02*
X145243865Y-79623219D01*
X145243865Y-79623219D02*
X145243865Y-78623219D01*
X146624817Y-79527980D02*
X146577198Y-79575600D01*
X146577198Y-79575600D02*
X146434341Y-79623219D01*
X146434341Y-79623219D02*
X146339103Y-79623219D01*
X146339103Y-79623219D02*
X146196246Y-79575600D01*
X146196246Y-79575600D02*
X146101008Y-79480361D01*
X146101008Y-79480361D02*
X146053389Y-79385123D01*
X146053389Y-79385123D02*
X146005770Y-79194647D01*
X146005770Y-79194647D02*
X146005770Y-79051790D01*
X146005770Y-79051790D02*
X146053389Y-78861314D01*
X146053389Y-78861314D02*
X146101008Y-78766076D01*
X146101008Y-78766076D02*
X146196246Y-78670838D01*
X146196246Y-78670838D02*
X146339103Y-78623219D01*
X146339103Y-78623219D02*
X146434341Y-78623219D01*
X146434341Y-78623219D02*
X146577198Y-78670838D01*
X146577198Y-78670838D02*
X146624817Y-78718457D01*
D10*
X125396666Y-92716819D02*
X125396666Y-93431104D01*
X125396666Y-93431104D02*
X125349047Y-93573961D01*
X125349047Y-93573961D02*
X125253809Y-93669200D01*
X125253809Y-93669200D02*
X125110952Y-93716819D01*
X125110952Y-93716819D02*
X125015714Y-93716819D01*
X125777619Y-92716819D02*
X126396666Y-92716819D01*
X126396666Y-92716819D02*
X126063333Y-93097771D01*
X126063333Y-93097771D02*
X126206190Y-93097771D01*
X126206190Y-93097771D02*
X126301428Y-93145390D01*
X126301428Y-93145390D02*
X126349047Y-93193009D01*
X126349047Y-93193009D02*
X126396666Y-93288247D01*
X126396666Y-93288247D02*
X126396666Y-93526342D01*
X126396666Y-93526342D02*
X126349047Y-93621580D01*
X126349047Y-93621580D02*
X126301428Y-93669200D01*
X126301428Y-93669200D02*
X126206190Y-93716819D01*
X126206190Y-93716819D02*
X125920476Y-93716819D01*
X125920476Y-93716819D02*
X125825238Y-93669200D01*
X125825238Y-93669200D02*
X125777619Y-93621580D01*
X129206666Y-92711819D02*
X129206666Y-93426104D01*
X129206666Y-93426104D02*
X129159047Y-93568961D01*
X129159047Y-93568961D02*
X129063809Y-93664200D01*
X129063809Y-93664200D02*
X128920952Y-93711819D01*
X128920952Y-93711819D02*
X128825714Y-93711819D01*
X130206666Y-93711819D02*
X129635238Y-93711819D01*
X129920952Y-93711819D02*
X129920952Y-92711819D01*
X129920952Y-92711819D02*
X129825714Y-92854676D01*
X129825714Y-92854676D02*
X129730476Y-92949914D01*
X129730476Y-92949914D02*
X129635238Y-92997533D01*
X133016666Y-92711819D02*
X133016666Y-93426104D01*
X133016666Y-93426104D02*
X132969047Y-93568961D01*
X132969047Y-93568961D02*
X132873809Y-93664200D01*
X132873809Y-93664200D02*
X132730952Y-93711819D01*
X132730952Y-93711819D02*
X132635714Y-93711819D01*
X133445238Y-92807057D02*
X133492857Y-92759438D01*
X133492857Y-92759438D02*
X133588095Y-92711819D01*
X133588095Y-92711819D02*
X133826190Y-92711819D01*
X133826190Y-92711819D02*
X133921428Y-92759438D01*
X133921428Y-92759438D02*
X133969047Y-92807057D01*
X133969047Y-92807057D02*
X134016666Y-92902295D01*
X134016666Y-92902295D02*
X134016666Y-92997533D01*
X134016666Y-92997533D02*
X133969047Y-93140390D01*
X133969047Y-93140390D02*
X133397619Y-93711819D01*
X133397619Y-93711819D02*
X134016666Y-93711819D01*
X140597047Y-88323009D02*
X140739904Y-88370628D01*
X140739904Y-88370628D02*
X140787523Y-88418247D01*
X140787523Y-88418247D02*
X140835142Y-88513485D01*
X140835142Y-88513485D02*
X140835142Y-88656342D01*
X140835142Y-88656342D02*
X140787523Y-88751580D01*
X140787523Y-88751580D02*
X140739904Y-88799200D01*
X140739904Y-88799200D02*
X140644666Y-88846819D01*
X140644666Y-88846819D02*
X140263714Y-88846819D01*
X140263714Y-88846819D02*
X140263714Y-87846819D01*
X140263714Y-87846819D02*
X140597047Y-87846819D01*
X140597047Y-87846819D02*
X140692285Y-87894438D01*
X140692285Y-87894438D02*
X140739904Y-87942057D01*
X140739904Y-87942057D02*
X140787523Y-88037295D01*
X140787523Y-88037295D02*
X140787523Y-88132533D01*
X140787523Y-88132533D02*
X140739904Y-88227771D01*
X140739904Y-88227771D02*
X140692285Y-88275390D01*
X140692285Y-88275390D02*
X140597047Y-88323009D01*
X140597047Y-88323009D02*
X140263714Y-88323009D01*
X141168476Y-87846819D02*
X141835142Y-87846819D01*
X141835142Y-87846819D02*
X141168476Y-88846819D01*
X141168476Y-88846819D02*
X141835142Y-88846819D01*
X142739904Y-88846819D02*
X142168476Y-88846819D01*
X142454190Y-88846819D02*
X142454190Y-87846819D01*
X142454190Y-87846819D02*
X142358952Y-87989676D01*
X142358952Y-87989676D02*
X142263714Y-88084914D01*
X142263714Y-88084914D02*
X142168476Y-88132533D01*
X136271048Y-81353866D02*
X137032953Y-81353866D01*
X136652000Y-81734819D02*
X136652000Y-80972914D01*
D13*
%TO.C,J3*%
X127060000Y-92262000D02*
X125730000Y-92262000D01*
X127060000Y-90932000D02*
X127060000Y-92262000D01*
X127060000Y-89662000D02*
X127060000Y-87062000D01*
X127060000Y-89662000D02*
X124400000Y-89662000D01*
X127060000Y-87062000D02*
X124400000Y-87062000D01*
X124400000Y-89662000D02*
X124400000Y-87062000D01*
%TO.C,J1*%
X130870000Y-92257000D02*
X129540000Y-92257000D01*
X130870000Y-90927000D02*
X130870000Y-92257000D01*
X130870000Y-89657000D02*
X130870000Y-81977000D01*
X130870000Y-89657000D02*
X128210000Y-89657000D01*
X130870000Y-81977000D02*
X128210000Y-81977000D01*
X128210000Y-89657000D02*
X128210000Y-81977000D01*
%TO.C,J4*%
X134936000Y-96326000D02*
X134936000Y-94996000D01*
X136266000Y-96326000D02*
X134936000Y-96326000D01*
X137536000Y-96326000D02*
X140136000Y-96326000D01*
X137536000Y-96326000D02*
X137536000Y-93666000D01*
X140136000Y-96326000D02*
X140136000Y-93666000D01*
X137536000Y-93666000D02*
X140136000Y-93666000D01*
%TO.C,J2*%
X134680000Y-92257000D02*
X133350000Y-92257000D01*
X134680000Y-90927000D02*
X134680000Y-92257000D01*
X134680000Y-89657000D02*
X134680000Y-81977000D01*
X134680000Y-89657000D02*
X132020000Y-89657000D01*
X134680000Y-81977000D02*
X132020000Y-81977000D01*
X132020000Y-89657000D02*
X132020000Y-81977000D01*
%TO.C,BZ1*%
X147780000Y-81280000D02*
G75*
G03*
X135580000Y-81280000I-6100000J0D01*
G01*
X135580000Y-81280000D02*
G75*
G03*
X147780000Y-81280000I6100000J0D01*
G01*
%TD*%
M02*
