%TF.GenerationSoftware,KiCad,Pcbnew,7.0.10*%
%TF.CreationDate,2025-02-23T01:37:13-06:00*%
%TF.ProjectId,Portal_Radio,506f7274-616c-45f5-9261-64696f2e6b69,rev?*%
%TF.SameCoordinates,Original*%
%TF.FileFunction,Copper,L2,Bot*%
%TF.FilePolarity,Positive*%
%FSLAX46Y46*%
G04 Gerber Fmt 4.6, Leading zero omitted, Abs format (unit mm)*
G04 Created by KiCad (PCBNEW 7.0.10) date 2025-02-23 01:37:13*
%MOMM*%
%LPD*%
G01*
G04 APERTURE LIST*
G04 Aperture macros list*
%AMRoundRect*
0 Rectangle with rounded corners*
0 $1 Rounding radius*
0 $2 $3 $4 $5 $6 $7 $8 $9 X,Y pos of 4 corners*
0 Add a 4 corners polygon primitive as box body*
4,1,4,$2,$3,$4,$5,$6,$7,$8,$9,$2,$3,0*
0 Add four circle primitives for the rounded corners*
1,1,$1+$1,$2,$3*
1,1,$1+$1,$4,$5*
1,1,$1+$1,$6,$7*
1,1,$1+$1,$8,$9*
0 Add four rect primitives between the rounded corners*
20,1,$1+$1,$2,$3,$4,$5,0*
20,1,$1+$1,$4,$5,$6,$7,0*
20,1,$1+$1,$6,$7,$8,$9,0*
20,1,$1+$1,$8,$9,$2,$3,0*%
G04 Aperture macros list end*
%TA.AperFunction,ComponentPad*%
%ADD10R,1.700000X1.700000*%
%TD*%
%TA.AperFunction,ComponentPad*%
%ADD11O,1.700000X1.700000*%
%TD*%
%TA.AperFunction,ComponentPad*%
%ADD12R,1.600000X1.600000*%
%TD*%
%TA.AperFunction,ComponentPad*%
%ADD13C,1.600000*%
%TD*%
%TA.AperFunction,SMDPad,CuDef*%
%ADD14RoundRect,0.150000X0.512500X0.150000X-0.512500X0.150000X-0.512500X-0.150000X0.512500X-0.150000X0*%
%TD*%
%TA.AperFunction,SMDPad,CuDef*%
%ADD15RoundRect,0.225000X-0.250000X0.225000X-0.250000X-0.225000X0.250000X-0.225000X0.250000X0.225000X0*%
%TD*%
%TA.AperFunction,SMDPad,CuDef*%
%ADD16RoundRect,0.200000X0.200000X0.275000X-0.200000X0.275000X-0.200000X-0.275000X0.200000X-0.275000X0*%
%TD*%
%TA.AperFunction,SMDPad,CuDef*%
%ADD17RoundRect,0.200000X-0.275000X0.200000X-0.275000X-0.200000X0.275000X-0.200000X0.275000X0.200000X0*%
%TD*%
%TA.AperFunction,SMDPad,CuDef*%
%ADD18RoundRect,0.225000X0.250000X-0.225000X0.250000X0.225000X-0.250000X0.225000X-0.250000X-0.225000X0*%
%TD*%
%TA.AperFunction,SMDPad,CuDef*%
%ADD19RoundRect,0.200000X-0.200000X-0.275000X0.200000X-0.275000X0.200000X0.275000X-0.200000X0.275000X0*%
%TD*%
%TA.AperFunction,SMDPad,CuDef*%
%ADD20RoundRect,0.225000X0.225000X0.250000X-0.225000X0.250000X-0.225000X-0.250000X0.225000X-0.250000X0*%
%TD*%
%TA.AperFunction,SMDPad,CuDef*%
%ADD21RoundRect,0.200000X0.275000X-0.200000X0.275000X0.200000X-0.275000X0.200000X-0.275000X-0.200000X0*%
%TD*%
%TA.AperFunction,SMDPad,CuDef*%
%ADD22RoundRect,0.218750X0.256250X-0.218750X0.256250X0.218750X-0.256250X0.218750X-0.256250X-0.218750X0*%
%TD*%
%TA.AperFunction,SMDPad,CuDef*%
%ADD23RoundRect,0.100000X0.637500X0.100000X-0.637500X0.100000X-0.637500X-0.100000X0.637500X-0.100000X0*%
%TD*%
%TA.AperFunction,ViaPad*%
%ADD24C,0.800000*%
%TD*%
%TA.AperFunction,Conductor*%
%ADD25C,0.250000*%
%TD*%
G04 APERTURE END LIST*
D10*
%TO.P,J3,1,Pin_1*%
%TO.N,+3V3*%
X125730000Y-90932000D03*
D11*
%TO.P,J3,2,Pin_2*%
%TO.N,GND*%
X125730000Y-88392000D03*
%TD*%
D10*
%TO.P,J1,1,Pin_1*%
%TO.N,+3V3*%
X129540000Y-90927000D03*
D11*
%TO.P,J1,2,Pin_2*%
%TO.N,SWIM*%
X129540000Y-88387000D03*
%TO.P,J1,3,Pin_3*%
%TO.N,GND*%
X129540000Y-85847000D03*
%TO.P,J1,4,Pin_4*%
%TO.N,RST*%
X129540000Y-83307000D03*
%TD*%
D10*
%TO.P,J4,1,Pin_1*%
%TO.N,GND*%
X136266000Y-94996000D03*
D11*
%TO.P,J4,2,Pin_2*%
%TO.N,+BATT*%
X138806000Y-94996000D03*
%TD*%
D10*
%TO.P,J2,1,Pin_1*%
%TO.N,Net-(J2-Pin_1)*%
X133350000Y-90927000D03*
D11*
%TO.P,J2,2,Pin_2*%
%TO.N,Net-(J2-Pin_2)*%
X133350000Y-88387000D03*
%TO.P,J2,3,Pin_3*%
%TO.N,Net-(J2-Pin_3)*%
X133350000Y-85847000D03*
%TO.P,J2,4,Pin_4*%
%TO.N,Net-(J2-Pin_4)*%
X133350000Y-83307000D03*
%TD*%
D12*
%TO.P,BZ1,1,+*%
%TO.N,Net-(BZ1-+)*%
X138430000Y-81280000D03*
D13*
%TO.P,BZ1,2,-*%
%TO.N,GND*%
X144930000Y-81280000D03*
%TD*%
D14*
%TO.P,U2,1,GND*%
%TO.N,GND*%
X149912000Y-86680000D03*
%TO.P,U2,2,SW*%
%TO.N,Net-(U2-SW)*%
X149912000Y-88580000D03*
%TO.P,U2,3,OUT*%
%TO.N,+3V3*%
X147637000Y-87630000D03*
%TD*%
D15*
%TO.P,C5,1*%
%TO.N,+3V3*%
X145859000Y-89649000D03*
%TO.P,C5,2*%
%TO.N,GND*%
X145859000Y-91199000D03*
%TD*%
D16*
%TO.P,R1,1*%
%TO.N,+3V3*%
X148970000Y-85090000D03*
%TO.P,R1,2*%
%TO.N,RST*%
X147320000Y-85090000D03*
%TD*%
D17*
%TO.P,R3,1*%
%TO.N,C3*%
X136144000Y-90615000D03*
%TO.P,R3,2*%
%TO.N,Net-(J2-Pin_1)*%
X136144000Y-92265000D03*
%TD*%
%TO.P,R4,1*%
%TO.N,C4*%
X136144000Y-87567000D03*
%TO.P,R4,2*%
%TO.N,Net-(J2-Pin_2)*%
X136144000Y-89217000D03*
%TD*%
D18*
%TO.P,C1,1*%
%TO.N,RST*%
X145859000Y-85116000D03*
%TO.P,C1,2*%
%TO.N,GND*%
X145859000Y-83566000D03*
%TD*%
%TO.P,C4,2*%
%TO.N,GND*%
X147383000Y-90157000D03*
%TO.P,C4,1*%
%TO.N,+BATT*%
X147383000Y-91707000D03*
%TD*%
D19*
%TO.P,R2,1*%
%TO.N,C7*%
X139637000Y-91186000D03*
%TO.P,R2,2*%
%TO.N,Net-(BZ1-+)*%
X141287000Y-91186000D03*
%TD*%
D20*
%TO.P,C3,1*%
%TO.N,+3V3*%
X144335000Y-91186000D03*
%TO.P,C3,2*%
%TO.N,GND*%
X142785000Y-91186000D03*
%TD*%
D21*
%TO.P,R6,1*%
%TO.N,C6*%
X136144000Y-83121000D03*
%TO.P,R6,2*%
%TO.N,Net-(J2-Pin_4)*%
X136144000Y-81471000D03*
%TD*%
D22*
%TO.P,L1,2,2*%
%TO.N,Net-(U2-SW)*%
X148844000Y-90144500D03*
%TO.P,L1,1,1*%
%TO.N,+BATT*%
X148844000Y-91719500D03*
%TD*%
D23*
%TO.P,U1,1,PD4*%
%TO.N,unconnected-(U1-PD4-Pad1)*%
X143827000Y-83816000D03*
%TO.P,U1,2,PD5*%
%TO.N,unconnected-(U1-PD5-Pad2)*%
X143827000Y-84466000D03*
%TO.P,U1,3,PD6*%
%TO.N,unconnected-(U1-PD6-Pad3)*%
X143827000Y-85116000D03*
%TO.P,U1,4,NRST*%
%TO.N,RST*%
X143827000Y-85766000D03*
%TO.P,U1,5,PA1*%
%TO.N,unconnected-(U1-PA1-Pad5)*%
X143827000Y-86416000D03*
%TO.P,U1,6,PA2*%
%TO.N,unconnected-(U1-PA2-Pad6)*%
X143827000Y-87066000D03*
%TO.P,U1,7,VSS*%
%TO.N,GND*%
X143827000Y-87716000D03*
%TO.P,U1,8,VCAP*%
%TO.N,Net-(U1-VCAP)*%
X143827000Y-88366000D03*
%TO.P,U1,9,VDD*%
%TO.N,+3V3*%
X143827000Y-89016000D03*
%TO.P,U1,10,PA3*%
%TO.N,unconnected-(U1-PA3-Pad10)*%
X143827000Y-89666000D03*
%TO.P,U1,11,PB5*%
%TO.N,unconnected-(U1-PB5-Pad11)*%
X138102000Y-89666000D03*
%TO.P,U1,12,PB4*%
%TO.N,unconnected-(U1-PB4-Pad12)*%
X138102000Y-89016000D03*
%TO.P,U1,13,PC3*%
%TO.N,C3*%
X138102000Y-88366000D03*
%TO.P,U1,14,PC4*%
%TO.N,C4*%
X138102000Y-87716000D03*
%TO.P,U1,15,PC5*%
%TO.N,C5*%
X138102000Y-87066000D03*
%TO.P,U1,16,PC6*%
%TO.N,C6*%
X138102000Y-86416000D03*
%TO.P,U1,17,PC7*%
%TO.N,C7*%
X138102000Y-85766000D03*
%TO.P,U1,18,PD1*%
%TO.N,SWIM*%
X138102000Y-85116000D03*
%TO.P,U1,19,PD2*%
%TO.N,unconnected-(U1-PD2-Pad19)*%
X138102000Y-84466000D03*
%TO.P,U1,20,PD3*%
%TO.N,unconnected-(U1-PD3-Pad20)*%
X138102000Y-83816000D03*
%TD*%
D21*
%TO.P,R5,1*%
%TO.N,C5*%
X136144000Y-86169000D03*
%TO.P,R5,2*%
%TO.N,Net-(J2-Pin_3)*%
X136144000Y-84519000D03*
%TD*%
D18*
%TO.P,C2,1*%
%TO.N,Net-(U1-VCAP)*%
X145859000Y-88151000D03*
%TO.P,C2,2*%
%TO.N,GND*%
X145859000Y-86601000D03*
%TD*%
D24*
%TO.N,GND*%
X133858000Y-107696000D03*
X131572000Y-87376000D03*
X151638000Y-97282000D03*
X148082000Y-88646000D03*
X147320000Y-83820000D03*
X139192000Y-78994000D03*
X150368000Y-84582000D03*
X145796000Y-92202000D03*
X133858000Y-81280000D03*
X151638000Y-107696000D03*
X140462000Y-92202000D03*
X124714000Y-84582000D03*
X133096000Y-72644000D03*
X145542000Y-75438000D03*
X131064000Y-84836000D03*
X129794000Y-81280000D03*
X131318000Y-91440000D03*
X140716000Y-94996000D03*
X137414000Y-90678000D03*
X134366000Y-93980000D03*
X141986000Y-86106000D03*
X130556000Y-93472000D03*
X148336000Y-79502000D03*
X147320000Y-86614000D03*
X137414000Y-71374000D03*
X128016000Y-87122000D03*
X132080000Y-78994000D03*
X135128000Y-78994000D03*
X141986000Y-72644000D03*
X134620000Y-87122000D03*
X123444000Y-91186000D03*
X129540000Y-75438000D03*
X142240000Y-89916000D03*
X126746000Y-79502000D03*
X127762000Y-89662000D03*
X140462000Y-84582000D03*
X128016000Y-84582000D03*
X142240000Y-84074000D03*
X140970000Y-89662000D03*
X137414000Y-92202000D03*
X138938000Y-97028000D03*
X141224000Y-107696000D03*
X123444000Y-97282000D03*
X140970000Y-82804000D03*
X127762000Y-91948000D03*
X151638000Y-91186000D03*
X123444000Y-107696000D03*
%TD*%
D25*
%TO.N,Net-(BZ1-+)*%
X139700000Y-86036292D02*
X140087000Y-86423292D01*
X140087000Y-89986000D02*
X141287000Y-91186000D01*
X138430000Y-81280000D02*
X139700000Y-82550000D01*
X139700000Y-82550000D02*
X139700000Y-86036292D01*
X140087000Y-86423292D02*
X140087000Y-89986000D01*
%TO.N,GND*%
X142580000Y-87716000D02*
X141986000Y-87122000D01*
X147383000Y-89345000D02*
X147383000Y-90157000D01*
X141986000Y-87122000D02*
X141986000Y-86106000D01*
X146341000Y-91199000D02*
X147383000Y-90157000D01*
X142785000Y-91186000D02*
X142785000Y-90461000D01*
X144744000Y-87716000D02*
X143827000Y-87716000D01*
X145859000Y-91199000D02*
X146341000Y-91199000D01*
X145859000Y-91199000D02*
X145859000Y-92139000D01*
X145859000Y-86601000D02*
X144744000Y-87716000D01*
X143827000Y-87716000D02*
X142580000Y-87716000D01*
X142785000Y-90461000D02*
X142240000Y-89916000D01*
X148082000Y-88646000D02*
X147383000Y-89345000D01*
X145859000Y-92139000D02*
X145796000Y-92202000D01*
%TO.N,RST*%
X142885688Y-85766000D02*
X143827000Y-85766000D01*
X145859000Y-85116000D02*
X145209000Y-85766000D01*
X147320000Y-85090000D02*
X145885000Y-85090000D01*
X140150000Y-80714000D02*
X140150000Y-83030312D01*
X145209000Y-85766000D02*
X143827000Y-85766000D01*
X132692000Y-80155000D02*
X139591000Y-80155000D01*
X139591000Y-80155000D02*
X140150000Y-80714000D01*
X145885000Y-85090000D02*
X145859000Y-85116000D01*
X140150000Y-83030312D02*
X142885688Y-85766000D01*
X129540000Y-83307000D02*
X132692000Y-80155000D01*
%TO.N,Net-(U1-VCAP)*%
X143827000Y-88366000D02*
X145644000Y-88366000D01*
X145644000Y-88366000D02*
X145859000Y-88151000D01*
%TO.N,+3V3*%
X145859000Y-89649000D02*
X145226000Y-89016000D01*
X125730000Y-90932000D02*
X129535000Y-90932000D01*
X131603000Y-92990000D02*
X142531000Y-92990000D01*
X145859000Y-89649000D02*
X145859000Y-89662000D01*
X145859000Y-89662000D02*
X144335000Y-91186000D01*
X147637000Y-87871000D02*
X145859000Y-89649000D01*
X142531000Y-92990000D02*
X144335000Y-91186000D01*
X145226000Y-89016000D02*
X143827000Y-89016000D01*
X148844000Y-85216000D02*
X148844000Y-86423000D01*
X129535000Y-90932000D02*
X129540000Y-90927000D01*
X147637000Y-87630000D02*
X147637000Y-87871000D01*
X148844000Y-86423000D02*
X147637000Y-87630000D01*
X129540000Y-90927000D02*
X131603000Y-92990000D01*
X148970000Y-85090000D02*
X148844000Y-85216000D01*
%TO.N,+BATT*%
X140362000Y-93440000D02*
X138806000Y-94996000D01*
X147383000Y-91707000D02*
X146126000Y-92964000D01*
X142717396Y-93440000D02*
X140362000Y-93440000D01*
X147383000Y-91707000D02*
X148894500Y-91707000D01*
X143193396Y-92964000D02*
X142717396Y-93440000D01*
X148894500Y-91707000D02*
X148907000Y-91719500D01*
X146126000Y-92964000D02*
X143193396Y-92964000D01*
%TO.N,Net-(U2-SW)*%
X149912000Y-88580000D02*
X149912000Y-89139500D01*
X149912000Y-89139500D02*
X148907000Y-90144500D01*
%TO.N,C7*%
X138793312Y-85766000D02*
X138102000Y-85766000D01*
X139637000Y-91186000D02*
X139637000Y-86609688D01*
X139637000Y-86609688D02*
X138793312Y-85766000D01*
%TO.N,C3*%
X136144000Y-90615000D02*
X137039500Y-89719500D01*
X137410688Y-88366000D02*
X138102000Y-88366000D01*
X137039500Y-88737188D02*
X137410688Y-88366000D01*
X137039500Y-89719500D02*
X137039500Y-88737188D01*
%TO.N,C4*%
X136293000Y-87716000D02*
X138102000Y-87716000D01*
X136144000Y-87567000D02*
X136293000Y-87716000D01*
%TO.N,C5*%
X137041000Y-87066000D02*
X136144000Y-86169000D01*
X138102000Y-87066000D02*
X137041000Y-87066000D01*
%TO.N,C6*%
X136944000Y-83921000D02*
X136144000Y-83121000D01*
X138102000Y-86416000D02*
X137364501Y-86416000D01*
X136944000Y-85995499D02*
X136944000Y-83921000D01*
X137364501Y-86416000D02*
X136944000Y-85995499D01*
%TO.N,SWIM*%
X137535000Y-82396000D02*
X138430000Y-83291000D01*
X133978604Y-84582000D02*
X134740604Y-83820000D01*
X134740604Y-83820000D02*
X134740604Y-83301392D01*
X138430000Y-83291000D02*
X138918312Y-83291000D01*
X132953299Y-84582000D02*
X133978604Y-84582000D01*
X138839499Y-85116000D02*
X138102000Y-85116000D01*
X139192000Y-84763499D02*
X138839499Y-85116000D01*
X139192000Y-83564688D02*
X139192000Y-84763499D01*
X129540000Y-87995299D02*
X132953299Y-84582000D01*
X138918312Y-83291000D02*
X139192000Y-83564688D01*
X129540000Y-88387000D02*
X129540000Y-87995299D01*
X135645996Y-82396000D02*
X137535000Y-82396000D01*
X134740604Y-83301392D02*
X135645996Y-82396000D01*
%TO.N,Net-(J2-Pin_1)*%
X134688000Y-92265000D02*
X133350000Y-90927000D01*
X136144000Y-92265000D02*
X134688000Y-92265000D01*
%TO.N,Net-(J2-Pin_2)*%
X136144000Y-89217000D02*
X134180000Y-89217000D01*
X134180000Y-89217000D02*
X133350000Y-88387000D01*
%TO.N,Net-(J2-Pin_3)*%
X134678000Y-84519000D02*
X133350000Y-85847000D01*
X136144000Y-84519000D02*
X134678000Y-84519000D01*
%TO.N,Net-(J2-Pin_4)*%
X135186000Y-81471000D02*
X133350000Y-83307000D01*
X136144000Y-81471000D02*
X135186000Y-81471000D01*
%TD*%
%TA.AperFunction,Conductor*%
%TO.N,GND*%
G36*
X132092425Y-86429976D02*
G01*
X132148358Y-86471848D01*
X132161472Y-86493751D01*
X132175847Y-86524578D01*
X132175966Y-86524832D01*
X132311501Y-86718395D01*
X132311506Y-86718402D01*
X132478597Y-86885493D01*
X132478603Y-86885498D01*
X132664158Y-87015425D01*
X132707783Y-87070002D01*
X132714977Y-87139500D01*
X132683454Y-87201855D01*
X132664158Y-87218575D01*
X132478597Y-87348505D01*
X132311505Y-87515597D01*
X132175965Y-87709169D01*
X132175964Y-87709171D01*
X132076098Y-87923335D01*
X132076094Y-87923344D01*
X132014938Y-88151586D01*
X132014936Y-88151596D01*
X131994341Y-88386999D01*
X131994341Y-88387000D01*
X132014936Y-88622403D01*
X132014938Y-88622413D01*
X132076094Y-88850655D01*
X132076096Y-88850659D01*
X132076097Y-88850663D01*
X132146572Y-89001797D01*
X132175965Y-89064830D01*
X132175967Y-89064834D01*
X132284281Y-89219521D01*
X132311501Y-89258396D01*
X132311506Y-89258402D01*
X132433430Y-89380326D01*
X132466915Y-89441649D01*
X132461931Y-89511341D01*
X132420059Y-89567274D01*
X132389083Y-89584189D01*
X132257669Y-89633203D01*
X132257664Y-89633206D01*
X132142455Y-89719452D01*
X132142452Y-89719455D01*
X132056206Y-89834664D01*
X132056202Y-89834671D01*
X132005908Y-89969517D01*
X131999501Y-90029116D01*
X131999501Y-90029123D01*
X131999500Y-90029135D01*
X131999500Y-91824870D01*
X131999501Y-91824876D01*
X132005908Y-91884483D01*
X132056202Y-92019328D01*
X132056206Y-92019335D01*
X132142452Y-92134544D01*
X132142454Y-92134546D01*
X132151389Y-92141235D01*
X132193259Y-92197169D01*
X132198242Y-92266861D01*
X132164755Y-92328183D01*
X132103431Y-92361667D01*
X132077076Y-92364500D01*
X131913452Y-92364500D01*
X131846413Y-92344815D01*
X131825771Y-92328181D01*
X131532580Y-92034990D01*
X131505212Y-91993566D01*
X131482792Y-91937804D01*
X131407527Y-91750606D01*
X131389271Y-91705199D01*
X131389270Y-91705197D01*
X131322844Y-91588063D01*
X131319111Y-91583147D01*
X131319110Y-91583146D01*
X131319107Y-91583142D01*
X131276587Y-91540407D01*
X131266115Y-91528436D01*
X131247363Y-91503999D01*
X131222798Y-91444693D01*
X131220571Y-91427775D01*
X131219510Y-91411275D01*
X131219547Y-91396666D01*
X131219713Y-91331854D01*
X131218968Y-91325962D01*
X131186472Y-91200803D01*
X131184024Y-91194715D01*
X130899450Y-90486926D01*
X130890499Y-90440669D01*
X130890499Y-90029129D01*
X130890498Y-90029123D01*
X130890497Y-90029116D01*
X130885191Y-89979754D01*
X130884091Y-89969516D01*
X130833797Y-89834671D01*
X130833793Y-89834664D01*
X130747547Y-89719455D01*
X130747544Y-89719452D01*
X130632335Y-89633206D01*
X130632328Y-89633202D01*
X130500917Y-89584189D01*
X130444983Y-89542318D01*
X130420566Y-89476853D01*
X130435418Y-89408580D01*
X130456563Y-89380332D01*
X130578495Y-89258401D01*
X130714035Y-89064830D01*
X130813903Y-88850663D01*
X130875063Y-88622408D01*
X130887996Y-88474574D01*
X130889967Y-88462335D01*
X130889886Y-88462322D01*
X130900314Y-88397895D01*
X131063538Y-87389489D01*
X131093682Y-87326458D01*
X131098245Y-87321642D01*
X131961412Y-86458475D01*
X132022733Y-86424992D01*
X132092425Y-86429976D01*
G37*
%TD.AperFunction*%
%TA.AperFunction,Conductor*%
G36*
X137404273Y-90363752D02*
G01*
X137425139Y-90366500D01*
X138720166Y-90366499D01*
X138787205Y-90386184D01*
X138832960Y-90438987D01*
X138842904Y-90508146D01*
X138831241Y-90545620D01*
X138803321Y-90601879D01*
X138802280Y-90604359D01*
X138794096Y-90620442D01*
X138793524Y-90621387D01*
X138793520Y-90621396D01*
X138768004Y-90703280D01*
X138766748Y-90707092D01*
X138761580Y-90721962D01*
X138761575Y-90721978D01*
X138761505Y-90722314D01*
X138758575Y-90733543D01*
X138742914Y-90783800D01*
X138742914Y-90783803D01*
X138742914Y-90783804D01*
X138737686Y-90841339D01*
X138736500Y-90854386D01*
X138736500Y-91517613D01*
X138742913Y-91588192D01*
X138742913Y-91588194D01*
X138742914Y-91588196D01*
X138793522Y-91750606D01*
X138877476Y-91889483D01*
X138881530Y-91896188D01*
X139001811Y-92016469D01*
X139001813Y-92016470D01*
X139001815Y-92016472D01*
X139147394Y-92104478D01*
X139203994Y-92122115D01*
X139262141Y-92160852D01*
X139290115Y-92224877D01*
X139279034Y-92293862D01*
X139232415Y-92345905D01*
X139167103Y-92364500D01*
X137243500Y-92364500D01*
X137176461Y-92344815D01*
X137130706Y-92292011D01*
X137119500Y-92240500D01*
X137119500Y-92008386D01*
X137119500Y-92008384D01*
X137113086Y-91937804D01*
X137062478Y-91775394D01*
X136974472Y-91629815D01*
X136974470Y-91629813D01*
X136974469Y-91629811D01*
X136872339Y-91527681D01*
X136838854Y-91466358D01*
X136843838Y-91396666D01*
X136872339Y-91352319D01*
X136974468Y-91250189D01*
X136974469Y-91250188D01*
X136974472Y-91250185D01*
X137062478Y-91104606D01*
X137113086Y-90942196D01*
X137119500Y-90871616D01*
X137119500Y-90841339D01*
X137128676Y-90794526D01*
X137131218Y-90788292D01*
X137273265Y-90439874D01*
X137316800Y-90385231D01*
X137382970Y-90362797D01*
X137404273Y-90363752D01*
G37*
%TD.AperFunction*%
%TA.AperFunction,Conductor*%
G36*
X140505334Y-91885838D02*
G01*
X140549681Y-91914339D01*
X140651811Y-92016469D01*
X140651813Y-92016470D01*
X140651815Y-92016472D01*
X140797394Y-92104478D01*
X140853994Y-92122115D01*
X140912141Y-92160852D01*
X140940115Y-92224877D01*
X140929034Y-92293862D01*
X140882415Y-92345905D01*
X140817103Y-92364500D01*
X140106897Y-92364500D01*
X140039858Y-92344815D01*
X139994103Y-92292011D01*
X139984159Y-92222853D01*
X140013184Y-92159297D01*
X140070005Y-92122115D01*
X140126606Y-92104478D01*
X140272185Y-92016472D01*
X140314479Y-91974178D01*
X140374319Y-91914339D01*
X140435642Y-91880854D01*
X140505334Y-91885838D01*
G37*
%TD.AperFunction*%
%TA.AperFunction,Conductor*%
G36*
X145149940Y-91993128D02*
G01*
X145158515Y-91997958D01*
X145300511Y-92085544D01*
X145300518Y-92085547D01*
X145334459Y-92096794D01*
X145391904Y-92136566D01*
X145418727Y-92201082D01*
X145406412Y-92269858D01*
X145358869Y-92321058D01*
X145295455Y-92338500D01*
X144911348Y-92338500D01*
X144844309Y-92318815D01*
X144798554Y-92266011D01*
X144788610Y-92196853D01*
X144817635Y-92133297D01*
X144863057Y-92102990D01*
X144862154Y-92101053D01*
X144868687Y-92098006D01*
X144868697Y-92098003D01*
X145013044Y-92008968D01*
X145013055Y-92008956D01*
X145016503Y-92006232D01*
X145081298Y-91980090D01*
X145149940Y-91993128D01*
G37*
%TD.AperFunction*%
%TA.AperFunction,Conductor*%
G36*
X140530703Y-84296051D02*
G01*
X140537179Y-84302081D01*
X141466086Y-85230989D01*
X142384885Y-86149788D01*
X142394710Y-86162051D01*
X142394931Y-86161869D01*
X142399899Y-86167874D01*
X142399901Y-86167876D01*
X142399902Y-86167877D01*
X142448910Y-86213899D01*
X142451709Y-86216612D01*
X142471210Y-86236114D01*
X142471214Y-86236117D01*
X142471217Y-86236120D01*
X142474390Y-86238581D01*
X142483262Y-86246159D01*
X142515106Y-86276062D01*
X142524733Y-86281354D01*
X142573999Y-86330898D01*
X142589000Y-86390017D01*
X142589000Y-86555363D01*
X142604453Y-86672753D01*
X142604457Y-86672765D01*
X142613066Y-86693550D01*
X142620533Y-86763019D01*
X142613066Y-86788450D01*
X142604457Y-86809234D01*
X142604455Y-86809239D01*
X142589000Y-86926638D01*
X142589000Y-87205363D01*
X142604453Y-87322753D01*
X142604456Y-87322762D01*
X142613337Y-87344203D01*
X142620804Y-87413673D01*
X142613338Y-87439103D01*
X142604943Y-87459370D01*
X142597487Y-87516000D01*
X142640000Y-87516000D01*
X142707039Y-87535685D01*
X142738375Y-87564513D01*
X142752676Y-87583150D01*
X142761218Y-87594282D01*
X142791640Y-87617625D01*
X142832841Y-87674052D01*
X142836996Y-87743798D01*
X142802783Y-87804719D01*
X142791646Y-87814369D01*
X142761218Y-87837718D01*
X142761217Y-87837719D01*
X142761216Y-87837720D01*
X142738375Y-87867487D01*
X142681947Y-87908690D01*
X142640000Y-87916000D01*
X142597490Y-87916000D01*
X142597488Y-87916001D01*
X142604941Y-87972622D01*
X142604945Y-87972634D01*
X142613337Y-87992895D01*
X142620804Y-88062364D01*
X142613338Y-88087794D01*
X142604456Y-88109238D01*
X142604455Y-88109239D01*
X142589000Y-88226638D01*
X142589000Y-88505363D01*
X142604453Y-88622753D01*
X142604457Y-88622765D01*
X142613066Y-88643550D01*
X142620533Y-88713019D01*
X142613066Y-88738450D01*
X142604457Y-88759234D01*
X142604455Y-88759239D01*
X142589000Y-88876638D01*
X142589000Y-89155363D01*
X142604453Y-89272753D01*
X142604457Y-89272765D01*
X142613066Y-89293550D01*
X142620533Y-89363019D01*
X142613066Y-89388450D01*
X142604457Y-89409234D01*
X142604455Y-89409239D01*
X142589000Y-89526638D01*
X142589000Y-89805363D01*
X142604453Y-89922753D01*
X142604456Y-89922762D01*
X142652830Y-90039547D01*
X142660299Y-90109017D01*
X142629024Y-90171496D01*
X142568935Y-90207148D01*
X142538273Y-90211000D01*
X142511694Y-90211000D01*
X142511676Y-90211001D01*
X142412392Y-90221144D01*
X142251518Y-90274452D01*
X142251507Y-90274457D01*
X142107271Y-90363424D01*
X142107268Y-90363426D01*
X142106350Y-90364345D01*
X142105565Y-90364773D01*
X142101605Y-90367905D01*
X142101069Y-90367227D01*
X142045024Y-90397824D01*
X141975333Y-90392834D01*
X141930995Y-90364337D01*
X141922188Y-90355530D01*
X141915126Y-90351261D01*
X141776606Y-90267522D01*
X141614196Y-90216914D01*
X141614194Y-90216913D01*
X141614192Y-90216913D01*
X141564778Y-90212423D01*
X141543616Y-90210500D01*
X141543613Y-90210500D01*
X141513339Y-90210500D01*
X141466526Y-90201324D01*
X141017624Y-90018308D01*
X140976756Y-89991165D01*
X140748819Y-89763228D01*
X140715334Y-89701905D01*
X140712500Y-89675547D01*
X140712500Y-86506034D01*
X140714224Y-86490414D01*
X140713939Y-86490387D01*
X140714673Y-86482625D01*
X140712561Y-86415404D01*
X140712500Y-86411510D01*
X140712500Y-86383948D01*
X140712500Y-86383942D01*
X140711996Y-86379960D01*
X140711081Y-86368321D01*
X140710913Y-86362971D01*
X140709710Y-86324665D01*
X140704119Y-86305422D01*
X140700173Y-86286370D01*
X140697664Y-86266500D01*
X140681579Y-86225875D01*
X140677806Y-86214854D01*
X140665618Y-86172902D01*
X140665617Y-86172901D01*
X140665617Y-86172899D01*
X140665616Y-86172898D01*
X140655423Y-86155663D01*
X140646861Y-86138186D01*
X140639487Y-86119561D01*
X140623095Y-86097000D01*
X140613811Y-86084222D01*
X140607405Y-86074469D01*
X140585170Y-86036872D01*
X140585169Y-86036871D01*
X140585166Y-86036867D01*
X140571007Y-86022709D01*
X140558370Y-86007914D01*
X140546594Y-85991705D01*
X140512932Y-85963857D01*
X140504302Y-85956003D01*
X140361819Y-85813520D01*
X140328334Y-85752197D01*
X140325500Y-85725839D01*
X140325500Y-84389764D01*
X140345185Y-84322725D01*
X140397989Y-84276970D01*
X140467147Y-84267026D01*
X140530703Y-84296051D01*
G37*
%TD.AperFunction*%
%TA.AperFunction,Conductor*%
G36*
X148682550Y-88288059D02*
G01*
X148732796Y-88336609D01*
X148749000Y-88397895D01*
X148749000Y-88795701D01*
X148751901Y-88832567D01*
X148751902Y-88832573D01*
X148798824Y-88994076D01*
X148798625Y-89063945D01*
X148760683Y-89122615D01*
X148725022Y-89144111D01*
X148587768Y-89197940D01*
X148542494Y-89206500D01*
X148539818Y-89206500D01*
X148441316Y-89216563D01*
X148441315Y-89216564D01*
X148362219Y-89242773D01*
X148281715Y-89269450D01*
X148281710Y-89269452D01*
X148175883Y-89334728D01*
X148108490Y-89353168D01*
X148045689Y-89334728D01*
X147941486Y-89270454D01*
X147941481Y-89270452D01*
X147780606Y-89217144D01*
X147681322Y-89207000D01*
X147484950Y-89207000D01*
X147417911Y-89187315D01*
X147372156Y-89134511D01*
X147362212Y-89065353D01*
X147391237Y-89001797D01*
X147397255Y-88995333D01*
X147760468Y-88632120D01*
X147780937Y-88616017D01*
X147780891Y-88615953D01*
X147782261Y-88614975D01*
X147783568Y-88613948D01*
X147784504Y-88613377D01*
X147971378Y-88458921D01*
X148035592Y-88431384D01*
X148050376Y-88430500D01*
X148215186Y-88430500D01*
X148215194Y-88430500D01*
X148252069Y-88427598D01*
X148252071Y-88427597D01*
X148252073Y-88427597D01*
X148354306Y-88397895D01*
X148409898Y-88381744D01*
X148551365Y-88298081D01*
X148551364Y-88298081D01*
X148558080Y-88294110D01*
X148559155Y-88295928D01*
X148614032Y-88274381D01*
X148682550Y-88288059D01*
G37*
%TD.AperFunction*%
%TA.AperFunction,Conductor*%
G36*
X135173614Y-85160987D02*
G01*
X135361704Y-85254329D01*
X135413001Y-85301760D01*
X135430514Y-85369400D01*
X135408677Y-85435769D01*
X135394260Y-85453082D01*
X135313529Y-85533813D01*
X135225522Y-85679393D01*
X135174913Y-85841807D01*
X135169782Y-85898275D01*
X135168500Y-85912384D01*
X135168500Y-86425616D01*
X135170062Y-86442804D01*
X135174913Y-86496192D01*
X135174913Y-86496194D01*
X135174914Y-86496196D01*
X135225522Y-86658606D01*
X135313326Y-86803851D01*
X135331162Y-86871404D01*
X135313326Y-86932148D01*
X135272911Y-86999002D01*
X135225522Y-87077393D01*
X135174913Y-87239807D01*
X135172715Y-87263997D01*
X135168500Y-87310384D01*
X135168500Y-87823616D01*
X135168922Y-87828255D01*
X135174913Y-87894192D01*
X135174913Y-87894194D01*
X135174914Y-87894196D01*
X135225522Y-88056606D01*
X135313528Y-88202185D01*
X135394260Y-88282917D01*
X135427744Y-88344238D01*
X135422760Y-88413930D01*
X135380889Y-88469864D01*
X135361701Y-88481670D01*
X135166435Y-88578574D01*
X135111315Y-88591500D01*
X135079837Y-88591500D01*
X135012798Y-88571815D01*
X134971376Y-88527601D01*
X134582510Y-87825837D01*
X134566992Y-87799422D01*
X134567315Y-87799231D01*
X134560769Y-87787947D01*
X134524035Y-87709171D01*
X134524034Y-87709169D01*
X134388494Y-87515597D01*
X134221402Y-87348506D01*
X134221396Y-87348501D01*
X134035842Y-87218575D01*
X133992217Y-87163998D01*
X133985023Y-87094500D01*
X134016546Y-87032145D01*
X134035842Y-87015425D01*
X134154291Y-86932486D01*
X134221401Y-86885495D01*
X134388495Y-86718401D01*
X134524035Y-86524830D01*
X134609821Y-86340857D01*
X134612221Y-86335993D01*
X134616350Y-86328073D01*
X134616353Y-86328065D01*
X134617189Y-86326135D01*
X134620667Y-86317602D01*
X134623901Y-86310668D01*
X134623901Y-86310666D01*
X134623903Y-86310663D01*
X134627332Y-86297864D01*
X134630100Y-86288903D01*
X135001496Y-85230986D01*
X135042275Y-85174254D01*
X135107254Y-85148574D01*
X135173614Y-85160987D01*
G37*
%TD.AperFunction*%
%TA.AperFunction,Conductor*%
G36*
X148116009Y-85862160D02*
G01*
X148171943Y-85904030D01*
X148192816Y-85947638D01*
X148214639Y-86033031D01*
X148218500Y-86063732D01*
X148218500Y-86112546D01*
X148198815Y-86179585D01*
X148182181Y-86200227D01*
X147782553Y-86599854D01*
X147754496Y-86620897D01*
X147401963Y-86814224D01*
X147342339Y-86829500D01*
X147058798Y-86829500D01*
X147021932Y-86832401D01*
X146932316Y-86858437D01*
X146862447Y-86858237D01*
X146850290Y-86851000D01*
X145733000Y-86851000D01*
X145665961Y-86831315D01*
X145620206Y-86778511D01*
X145609000Y-86727000D01*
X145609000Y-86475000D01*
X145628685Y-86407961D01*
X145681489Y-86362206D01*
X145733000Y-86351000D01*
X146833999Y-86351000D01*
X146833999Y-86327692D01*
X146833998Y-86327677D01*
X146823856Y-86228394D01*
X146817799Y-86210116D01*
X146815397Y-86140288D01*
X146851128Y-86080245D01*
X146913648Y-86049052D01*
X146972392Y-86052725D01*
X146992804Y-86059086D01*
X147063384Y-86065500D01*
X147063387Y-86065500D01*
X147576613Y-86065500D01*
X147576616Y-86065500D01*
X147647196Y-86059086D01*
X147809606Y-86008478D01*
X147955185Y-85920472D01*
X147984995Y-85890662D01*
X148046317Y-85857176D01*
X148116009Y-85862160D01*
G37*
%TD.AperFunction*%
%TA.AperFunction,Conductor*%
G36*
X134757634Y-80800185D02*
G01*
X134803389Y-80852989D01*
X134813333Y-80922147D01*
X134784308Y-80985703D01*
X134763488Y-81004812D01*
X134754413Y-81011406D01*
X134754411Y-81011407D01*
X134754411Y-81011408D01*
X134726573Y-81045058D01*
X134718711Y-81053697D01*
X134218505Y-81553903D01*
X134171898Y-81583222D01*
X132908091Y-82026899D01*
X132899113Y-82029673D01*
X132886340Y-82033095D01*
X132886338Y-82033096D01*
X132879371Y-82036344D01*
X132869678Y-82040372D01*
X132855852Y-82045442D01*
X132855833Y-82045449D01*
X132855268Y-82045665D01*
X132855255Y-82045670D01*
X132855253Y-82045671D01*
X132794014Y-82073899D01*
X132788425Y-82077225D01*
X132788288Y-82076995D01*
X132774433Y-82085277D01*
X132672172Y-82132963D01*
X132672169Y-82132965D01*
X132478597Y-82268505D01*
X132311505Y-82435597D01*
X132175965Y-82629169D01*
X132175964Y-82629171D01*
X132076098Y-82843335D01*
X132076094Y-82843344D01*
X132014938Y-83071586D01*
X132014936Y-83071596D01*
X131994341Y-83306999D01*
X131994341Y-83307000D01*
X132014936Y-83542403D01*
X132014938Y-83542413D01*
X132076094Y-83770655D01*
X132076096Y-83770659D01*
X132076097Y-83770663D01*
X132154411Y-83938607D01*
X132175965Y-83984830D01*
X132175967Y-83984834D01*
X132311507Y-84178404D01*
X132311838Y-84178799D01*
X132311929Y-84179007D01*
X132314610Y-84182836D01*
X132313840Y-84183374D01*
X132339848Y-84242808D01*
X132328805Y-84311800D01*
X132304526Y-84346181D01*
X131061191Y-85589514D01*
X130999868Y-85622999D01*
X130930176Y-85618015D01*
X130874243Y-85576143D01*
X130853735Y-85533926D01*
X130813433Y-85383516D01*
X130813429Y-85383507D01*
X130713600Y-85169422D01*
X130713599Y-85169420D01*
X130578113Y-84975926D01*
X130578108Y-84975920D01*
X130411078Y-84808890D01*
X130225405Y-84678879D01*
X130181780Y-84624302D01*
X130174588Y-84554804D01*
X130206110Y-84492449D01*
X130225406Y-84475730D01*
X130411401Y-84345495D01*
X130578495Y-84178401D01*
X130714035Y-83984830D01*
X130799821Y-83800857D01*
X130802221Y-83795993D01*
X130806350Y-83788073D01*
X130806353Y-83788065D01*
X130807189Y-83786135D01*
X130810667Y-83777602D01*
X130811186Y-83776486D01*
X130813903Y-83770663D01*
X130817336Y-83757847D01*
X130820098Y-83748910D01*
X131263775Y-82485099D01*
X131293091Y-82438497D01*
X132914772Y-80816819D01*
X132976095Y-80783334D01*
X133002453Y-80780500D01*
X134690595Y-80780500D01*
X134757634Y-80800185D01*
G37*
%TD.AperFunction*%
%TA.AperFunction,Conductor*%
G36*
X138321879Y-70646525D02*
G01*
X138331837Y-70647331D01*
X139083700Y-70738808D01*
X139093389Y-70740379D01*
X139834515Y-70891060D01*
X139843860Y-70893342D01*
X140573373Y-71101786D01*
X140582261Y-71104692D01*
X140894123Y-71219855D01*
X141299315Y-71369484D01*
X141307638Y-71372906D01*
X142011387Y-71692653D01*
X142019103Y-71696489D01*
X142708617Y-72069778D01*
X142715726Y-72073938D01*
X143390091Y-72499367D01*
X143396567Y-72503746D01*
X144044705Y-72972574D01*
X144054789Y-72979868D01*
X144060710Y-72984429D01*
X144160418Y-73066136D01*
X144701837Y-73509815D01*
X144707186Y-73514461D01*
X145330219Y-74087641D01*
X145335053Y-74092337D01*
X145641762Y-74406940D01*
X145938498Y-74711315D01*
X145939037Y-74711867D01*
X145943381Y-74716559D01*
X145947008Y-74720686D01*
X146527329Y-75380963D01*
X146531239Y-75385638D01*
X147094180Y-76093454D01*
X147097689Y-76098084D01*
X147637524Y-76846272D01*
X147638630Y-76847804D01*
X147641776Y-76852377D01*
X148159725Y-77642488D01*
X148162543Y-77646995D01*
X148166802Y-77654142D01*
X148652446Y-78469145D01*
X148656525Y-78475989D01*
X148659048Y-78480428D01*
X149128124Y-79346858D01*
X149130376Y-79351224D01*
X149330632Y-79758950D01*
X149573521Y-80253477D01*
X149575534Y-80257781D01*
X149991842Y-81194469D01*
X149993633Y-81198710D01*
X150382090Y-82168205D01*
X150383680Y-82172389D01*
X150743373Y-83173295D01*
X150744776Y-83177427D01*
X151074708Y-84208122D01*
X151075939Y-84212209D01*
X151375170Y-85271223D01*
X151376240Y-85275270D01*
X151643819Y-86361095D01*
X151644738Y-86365109D01*
X151879716Y-87476241D01*
X151880491Y-87480228D01*
X152081913Y-88615120D01*
X152082551Y-88619085D01*
X152249473Y-89776259D01*
X152249978Y-89780208D01*
X152381448Y-90958114D01*
X152381824Y-90962052D01*
X152466188Y-92024328D01*
X152476313Y-92151824D01*
X152476902Y-92159234D01*
X152477151Y-92163164D01*
X152534886Y-93377987D01*
X152535011Y-93381914D01*
X152554485Y-94614030D01*
X152554500Y-94615990D01*
X152554500Y-108490500D01*
X152534815Y-108557539D01*
X152482011Y-108603294D01*
X152430500Y-108614500D01*
X122679500Y-108614500D01*
X122612461Y-108594815D01*
X122566706Y-108542011D01*
X122555500Y-108490500D01*
X122555500Y-94615989D01*
X122555515Y-94614030D01*
X122574985Y-93381927D01*
X122575110Y-93377999D01*
X122575232Y-93375431D01*
X122632849Y-92163105D01*
X122633091Y-92159293D01*
X122659253Y-91829870D01*
X124379500Y-91829870D01*
X124379501Y-91829876D01*
X124385908Y-91889483D01*
X124436202Y-92024328D01*
X124436206Y-92024335D01*
X124522452Y-92139544D01*
X124522455Y-92139547D01*
X124637664Y-92225793D01*
X124637671Y-92225797D01*
X124772517Y-92276091D01*
X124772516Y-92276091D01*
X124779444Y-92276835D01*
X124832127Y-92282500D01*
X126581809Y-92282499D01*
X126592214Y-92283097D01*
X126593752Y-92283054D01*
X126593759Y-92283055D01*
X126593765Y-92283053D01*
X126602620Y-92282808D01*
X126602623Y-92282923D01*
X126607589Y-92282499D01*
X126627871Y-92282499D01*
X126627872Y-92282499D01*
X126687483Y-92276091D01*
X126725199Y-92262023D01*
X126731367Y-92260121D01*
X126731327Y-92259995D01*
X126737030Y-92258146D01*
X126744069Y-92255865D01*
X126794618Y-92236433D01*
X126794623Y-92236429D01*
X126799354Y-92234611D01*
X126803251Y-92232911D01*
X126822331Y-92225796D01*
X126877166Y-92184744D01*
X126885237Y-92179187D01*
X126916260Y-92159592D01*
X127555231Y-91614586D01*
X127619011Y-91586058D01*
X127688090Y-91596541D01*
X127715846Y-91614311D01*
X128352407Y-92153516D01*
X128355064Y-92155766D01*
X128380697Y-92176075D01*
X128381017Y-92176328D01*
X128398835Y-92185934D01*
X128414293Y-92195810D01*
X128447669Y-92220796D01*
X128491040Y-92236971D01*
X128506551Y-92244007D01*
X128507664Y-92244607D01*
X128515219Y-92247379D01*
X128523469Y-92249620D01*
X128534243Y-92253085D01*
X128582517Y-92271091D01*
X128642127Y-92277500D01*
X129053672Y-92277499D01*
X129099929Y-92286450D01*
X129641341Y-92504131D01*
X130606566Y-92892211D01*
X130647989Y-92919579D01*
X131102194Y-93373784D01*
X131112019Y-93386048D01*
X131112240Y-93385866D01*
X131117210Y-93391874D01*
X131166239Y-93437915D01*
X131169036Y-93440626D01*
X131188530Y-93460120D01*
X131191695Y-93462575D01*
X131200571Y-93470156D01*
X131232418Y-93500062D01*
X131232422Y-93500064D01*
X131249973Y-93509713D01*
X131266231Y-93520392D01*
X131282064Y-93532674D01*
X131305045Y-93542618D01*
X131322155Y-93550022D01*
X131332635Y-93555155D01*
X131370908Y-93576197D01*
X131390312Y-93581179D01*
X131408710Y-93587478D01*
X131427105Y-93595438D01*
X131470254Y-93602271D01*
X131481680Y-93604638D01*
X131523981Y-93615500D01*
X131544016Y-93615500D01*
X131563413Y-93617026D01*
X131583196Y-93620160D01*
X131626675Y-93616050D01*
X131638344Y-93615500D01*
X134940829Y-93615500D01*
X135007868Y-93635185D01*
X135053623Y-93687989D01*
X135063567Y-93757147D01*
X135040096Y-93813811D01*
X134972646Y-93903911D01*
X134972645Y-93903913D01*
X134922403Y-94038620D01*
X134922401Y-94038627D01*
X134916000Y-94098155D01*
X134916000Y-94746000D01*
X135832314Y-94746000D01*
X135806507Y-94786156D01*
X135766000Y-94924111D01*
X135766000Y-95067889D01*
X135806507Y-95205844D01*
X135832314Y-95246000D01*
X134916000Y-95246000D01*
X134916000Y-95893844D01*
X134922401Y-95953372D01*
X134922403Y-95953379D01*
X134972645Y-96088086D01*
X134972649Y-96088093D01*
X135058809Y-96203187D01*
X135058812Y-96203190D01*
X135173906Y-96289350D01*
X135173913Y-96289354D01*
X135308620Y-96339596D01*
X135308627Y-96339598D01*
X135368155Y-96345999D01*
X135368172Y-96346000D01*
X136016000Y-96346000D01*
X136016000Y-95431501D01*
X136123685Y-95480680D01*
X136230237Y-95496000D01*
X136301763Y-95496000D01*
X136408315Y-95480680D01*
X136516000Y-95431501D01*
X136516000Y-96346000D01*
X137163828Y-96346000D01*
X137163844Y-96345999D01*
X137223372Y-96339598D01*
X137223379Y-96339596D01*
X137358086Y-96289354D01*
X137358093Y-96289350D01*
X137473187Y-96203190D01*
X137473190Y-96203187D01*
X137559350Y-96088093D01*
X137559354Y-96088086D01*
X137608422Y-95956529D01*
X137650293Y-95900595D01*
X137715757Y-95876178D01*
X137784030Y-95891030D01*
X137812285Y-95912181D01*
X137934599Y-96034495D01*
X138011135Y-96088086D01*
X138128165Y-96170032D01*
X138128167Y-96170033D01*
X138128170Y-96170035D01*
X138342337Y-96269903D01*
X138570592Y-96331063D01*
X138741319Y-96346000D01*
X138805999Y-96351659D01*
X138806000Y-96351659D01*
X138806001Y-96351659D01*
X138870681Y-96346000D01*
X139041408Y-96331063D01*
X139269663Y-96269903D01*
X139483830Y-96170035D01*
X139677401Y-96034495D01*
X139844495Y-95867401D01*
X139980035Y-95673830D01*
X140065821Y-95489857D01*
X140068221Y-95484993D01*
X140072350Y-95477073D01*
X140072353Y-95477065D01*
X140073189Y-95475135D01*
X140076667Y-95466602D01*
X140077186Y-95465486D01*
X140079903Y-95459663D01*
X140083336Y-95446847D01*
X140086098Y-95437910D01*
X140529775Y-94174101D01*
X140559092Y-94127497D01*
X140584776Y-94101815D01*
X140646101Y-94068333D01*
X140672454Y-94065500D01*
X142634653Y-94065500D01*
X142650273Y-94067224D01*
X142650300Y-94066939D01*
X142658056Y-94067671D01*
X142658063Y-94067673D01*
X142725269Y-94065561D01*
X142729164Y-94065500D01*
X142756742Y-94065500D01*
X142756746Y-94065500D01*
X142760720Y-94064997D01*
X142772359Y-94064080D01*
X142816023Y-94062709D01*
X142835265Y-94057117D01*
X142854308Y-94053174D01*
X142874188Y-94050664D01*
X142914797Y-94034585D01*
X142925840Y-94030803D01*
X142967786Y-94018618D01*
X142985025Y-94008422D01*
X143002499Y-93999862D01*
X143021123Y-93992488D01*
X143021123Y-93992487D01*
X143021128Y-93992486D01*
X143056479Y-93966800D01*
X143066210Y-93960408D01*
X143103816Y-93938170D01*
X143117985Y-93923999D01*
X143132775Y-93911368D01*
X143148983Y-93899594D01*
X143176834Y-93865926D01*
X143184665Y-93857319D01*
X143416168Y-93625816D01*
X143477490Y-93592334D01*
X143503848Y-93589500D01*
X146043257Y-93589500D01*
X146058877Y-93591224D01*
X146058904Y-93590939D01*
X146066660Y-93591671D01*
X146066667Y-93591673D01*
X146133873Y-93589561D01*
X146137768Y-93589500D01*
X146165346Y-93589500D01*
X146165350Y-93589500D01*
X146169324Y-93588997D01*
X146180963Y-93588080D01*
X146224627Y-93586709D01*
X146243869Y-93581117D01*
X146262912Y-93577174D01*
X146282792Y-93574664D01*
X146323401Y-93558585D01*
X146334444Y-93554803D01*
X146376390Y-93542618D01*
X146393629Y-93532422D01*
X146411103Y-93523862D01*
X146429727Y-93516488D01*
X146429727Y-93516487D01*
X146429732Y-93516486D01*
X146465083Y-93490800D01*
X146474814Y-93484408D01*
X146512420Y-93462170D01*
X146526589Y-93447999D01*
X146541379Y-93435368D01*
X146557587Y-93423594D01*
X146585438Y-93389926D01*
X146593279Y-93381309D01*
X147019157Y-92955432D01*
X147057580Y-92929319D01*
X147669389Y-92664533D01*
X147706030Y-92654977D01*
X147780708Y-92647349D01*
X147941697Y-92594003D01*
X147944440Y-92592311D01*
X147960076Y-92584140D01*
X147961942Y-92583327D01*
X147961955Y-92583323D01*
X148055122Y-92534615D01*
X148123648Y-92521001D01*
X148171362Y-92535330D01*
X148255809Y-92580810D01*
X148261915Y-92584045D01*
X148261927Y-92584049D01*
X148263439Y-92584711D01*
X148278854Y-92592785D01*
X148281713Y-92594549D01*
X148441315Y-92647436D01*
X148539826Y-92657500D01*
X148539831Y-92657500D01*
X149148169Y-92657500D01*
X149148174Y-92657500D01*
X149246685Y-92647436D01*
X149406287Y-92594549D01*
X149549391Y-92506281D01*
X149668281Y-92387391D01*
X149756549Y-92244287D01*
X149809436Y-92084685D01*
X149819500Y-91986174D01*
X149819500Y-91452826D01*
X149809436Y-91354315D01*
X149756549Y-91194713D01*
X149756545Y-91194707D01*
X149756544Y-91194704D01*
X149668283Y-91051612D01*
X149668280Y-91051608D01*
X149636353Y-91019681D01*
X149602868Y-90958358D01*
X149607852Y-90888666D01*
X149636353Y-90844319D01*
X149649997Y-90830675D01*
X149668281Y-90812391D01*
X149756549Y-90669287D01*
X149809436Y-90509685D01*
X149815445Y-90450855D01*
X149826413Y-90411069D01*
X149847188Y-90366500D01*
X150080321Y-89866349D01*
X150105026Y-89831062D01*
X150295786Y-89640302D01*
X150308048Y-89630480D01*
X150307865Y-89630259D01*
X150313868Y-89625291D01*
X150313877Y-89625286D01*
X150359934Y-89576239D01*
X150362582Y-89573506D01*
X150382120Y-89553970D01*
X150384570Y-89550810D01*
X150392154Y-89541929D01*
X150422062Y-89510082D01*
X150431714Y-89492523D01*
X150442389Y-89476272D01*
X150454674Y-89460436D01*
X150462089Y-89443297D01*
X150506775Y-89389589D01*
X150541292Y-89373465D01*
X150684898Y-89331744D01*
X150826365Y-89248081D01*
X150942581Y-89131865D01*
X151026244Y-88990398D01*
X151066841Y-88850663D01*
X151072097Y-88832573D01*
X151072098Y-88832567D01*
X151074999Y-88795701D01*
X151075000Y-88795694D01*
X151075000Y-88364306D01*
X151072098Y-88327431D01*
X151070657Y-88322472D01*
X151026245Y-88169606D01*
X151026244Y-88169603D01*
X151026244Y-88169602D01*
X150942581Y-88028135D01*
X150942579Y-88028133D01*
X150942576Y-88028129D01*
X150826370Y-87911923D01*
X150826362Y-87911917D01*
X150684896Y-87828255D01*
X150684893Y-87828254D01*
X150527073Y-87782402D01*
X150527067Y-87782401D01*
X150490201Y-87779500D01*
X150490194Y-87779500D01*
X149333806Y-87779500D01*
X149333798Y-87779500D01*
X149296932Y-87782401D01*
X149296926Y-87782402D01*
X149139106Y-87828254D01*
X149139103Y-87828255D01*
X148990920Y-87915890D01*
X148989845Y-87914073D01*
X148934948Y-87935620D01*
X148866432Y-87921931D01*
X148816194Y-87873373D01*
X148800000Y-87812104D01*
X148800000Y-87447257D01*
X148819685Y-87380218D01*
X148872489Y-87334463D01*
X148941647Y-87324519D01*
X148990355Y-87345188D01*
X148991229Y-87343712D01*
X149139303Y-87431282D01*
X149139306Y-87431283D01*
X149297004Y-87477099D01*
X149297010Y-87477100D01*
X149333850Y-87479999D01*
X149333866Y-87480000D01*
X149662000Y-87480000D01*
X149662000Y-86930000D01*
X150162000Y-86930000D01*
X150162000Y-87480000D01*
X150490134Y-87480000D01*
X150490149Y-87479999D01*
X150526989Y-87477100D01*
X150526995Y-87477099D01*
X150684693Y-87431283D01*
X150684696Y-87431282D01*
X150826052Y-87347685D01*
X150826061Y-87347678D01*
X150942178Y-87231561D01*
X150942185Y-87231552D01*
X151025781Y-87090198D01*
X151071600Y-86932486D01*
X151071795Y-86930001D01*
X151071795Y-86930000D01*
X150162000Y-86930000D01*
X149662000Y-86930000D01*
X149662000Y-85922988D01*
X149674623Y-85880000D01*
X150162000Y-85880000D01*
X150162000Y-86430000D01*
X151071795Y-86430000D01*
X151071795Y-86429998D01*
X151071600Y-86427513D01*
X151025781Y-86269801D01*
X150942185Y-86128447D01*
X150942178Y-86128438D01*
X150826061Y-86012321D01*
X150826052Y-86012314D01*
X150684696Y-85928717D01*
X150684693Y-85928716D01*
X150526995Y-85882900D01*
X150526989Y-85882899D01*
X150490149Y-85880000D01*
X150162000Y-85880000D01*
X149674623Y-85880000D01*
X149681685Y-85855949D01*
X149686628Y-85848818D01*
X149710146Y-85817323D01*
X149721817Y-85803839D01*
X149725472Y-85800185D01*
X149813478Y-85654606D01*
X149864086Y-85492196D01*
X149870500Y-85421616D01*
X149870500Y-84758384D01*
X149864086Y-84687804D01*
X149813478Y-84525394D01*
X149725472Y-84379815D01*
X149725470Y-84379813D01*
X149725469Y-84379811D01*
X149605188Y-84259530D01*
X149535973Y-84217688D01*
X149459606Y-84171522D01*
X149297196Y-84120914D01*
X149297194Y-84120913D01*
X149297192Y-84120913D01*
X149247778Y-84116423D01*
X149226616Y-84114500D01*
X148713384Y-84114500D01*
X148694145Y-84116248D01*
X148642807Y-84120913D01*
X148480393Y-84171522D01*
X148334811Y-84259530D01*
X148334810Y-84259531D01*
X148232681Y-84361661D01*
X148171358Y-84395146D01*
X148101666Y-84390162D01*
X148057319Y-84361661D01*
X147955188Y-84259530D01*
X147885973Y-84217688D01*
X147809606Y-84171522D01*
X147647196Y-84120914D01*
X147647194Y-84120913D01*
X147647192Y-84120913D01*
X147597778Y-84116423D01*
X147576616Y-84114500D01*
X147063384Y-84114500D01*
X147010449Y-84119310D01*
X146992803Y-84120914D01*
X146967589Y-84128771D01*
X146897729Y-84129921D01*
X146838337Y-84093119D01*
X146808270Y-84030050D01*
X146812996Y-83971379D01*
X146823855Y-83938607D01*
X146833999Y-83839322D01*
X146834000Y-83839309D01*
X146834000Y-83816000D01*
X145733000Y-83816000D01*
X145665961Y-83796315D01*
X145620206Y-83743511D01*
X145609000Y-83692000D01*
X145609000Y-82616000D01*
X146109000Y-82616000D01*
X146109000Y-83316000D01*
X146833999Y-83316000D01*
X146833999Y-83292692D01*
X146833998Y-83292677D01*
X146823855Y-83193392D01*
X146770547Y-83032518D01*
X146770542Y-83032507D01*
X146681575Y-82888271D01*
X146681572Y-82888267D01*
X146561732Y-82768427D01*
X146561728Y-82768424D01*
X146417492Y-82679457D01*
X146417481Y-82679452D01*
X146256606Y-82626144D01*
X146157322Y-82616000D01*
X146109000Y-82616000D01*
X145609000Y-82616000D01*
X145581490Y-82588491D01*
X145548005Y-82527168D01*
X145552989Y-82457476D01*
X145594860Y-82401542D01*
X145598047Y-82399235D01*
X145655471Y-82359024D01*
X145062533Y-81766086D01*
X145072315Y-81764680D01*
X145203100Y-81704952D01*
X145311761Y-81610798D01*
X145389493Y-81489844D01*
X145413076Y-81409523D01*
X146009024Y-82005471D01*
X146060136Y-81932478D01*
X146156264Y-81726331D01*
X146156269Y-81726317D01*
X146215139Y-81506610D01*
X146215141Y-81506599D01*
X146234966Y-81280002D01*
X146234966Y-81279997D01*
X146215141Y-81053400D01*
X146215139Y-81053389D01*
X146156269Y-80833682D01*
X146156264Y-80833668D01*
X146060136Y-80627521D01*
X146060132Y-80627513D01*
X146009025Y-80554526D01*
X145413076Y-81150475D01*
X145389493Y-81070156D01*
X145311761Y-80949202D01*
X145203100Y-80855048D01*
X145072315Y-80795320D01*
X145062533Y-80793913D01*
X145655472Y-80200974D01*
X145582478Y-80149863D01*
X145376331Y-80053735D01*
X145376317Y-80053730D01*
X145156610Y-79994860D01*
X145156599Y-79994858D01*
X144930002Y-79975034D01*
X144929998Y-79975034D01*
X144703400Y-79994858D01*
X144703389Y-79994860D01*
X144483682Y-80053730D01*
X144483673Y-80053734D01*
X144277516Y-80149866D01*
X144277512Y-80149868D01*
X144204526Y-80200973D01*
X144204526Y-80200974D01*
X144797466Y-80793913D01*
X144787685Y-80795320D01*
X144656900Y-80855048D01*
X144548239Y-80949202D01*
X144470507Y-81070156D01*
X144446923Y-81150475D01*
X143850974Y-80554526D01*
X143850973Y-80554526D01*
X143799868Y-80627512D01*
X143799866Y-80627516D01*
X143703734Y-80833673D01*
X143703730Y-80833682D01*
X143644860Y-81053389D01*
X143644858Y-81053400D01*
X143625034Y-81279997D01*
X143625034Y-81280002D01*
X143644858Y-81506599D01*
X143644860Y-81506610D01*
X143703730Y-81726317D01*
X143703735Y-81726331D01*
X143799863Y-81932478D01*
X143850974Y-82005472D01*
X144446923Y-81409523D01*
X144470507Y-81489844D01*
X144548239Y-81610798D01*
X144656900Y-81704952D01*
X144787685Y-81764680D01*
X144797466Y-81766086D01*
X144204526Y-82359025D01*
X144277513Y-82410132D01*
X144277521Y-82410136D01*
X144483668Y-82506264D01*
X144483682Y-82506269D01*
X144703389Y-82565139D01*
X144703400Y-82565141D01*
X144929998Y-82584966D01*
X144930001Y-82584966D01*
X145039621Y-82575375D01*
X145108121Y-82589141D01*
X145158304Y-82637756D01*
X145174238Y-82705785D01*
X145150863Y-82771629D01*
X145138111Y-82786584D01*
X145036424Y-82888271D01*
X144947457Y-83032507D01*
X144947452Y-83032518D01*
X144921351Y-83111288D01*
X144881578Y-83168733D01*
X144817063Y-83195556D01*
X144756193Y-83186845D01*
X144621265Y-83130957D01*
X144621260Y-83130955D01*
X144503870Y-83115501D01*
X144503867Y-83115500D01*
X144503861Y-83115500D01*
X144503854Y-83115500D01*
X143150136Y-83115500D01*
X143032746Y-83130953D01*
X143032737Y-83130956D01*
X142886660Y-83191463D01*
X142761218Y-83287718D01*
X142664963Y-83413160D01*
X142604456Y-83559237D01*
X142604455Y-83559239D01*
X142589000Y-83676638D01*
X142589000Y-83955363D01*
X142604453Y-84072753D01*
X142604457Y-84072765D01*
X142613066Y-84093550D01*
X142620533Y-84163019D01*
X142613066Y-84188450D01*
X142604457Y-84209234D01*
X142604456Y-84209237D01*
X142604456Y-84209238D01*
X142604065Y-84212209D01*
X142591795Y-84305402D01*
X142563528Y-84369299D01*
X142505203Y-84407769D01*
X142435338Y-84408600D01*
X142381175Y-84376897D01*
X141680918Y-83676640D01*
X140811819Y-82807540D01*
X140778334Y-82746217D01*
X140775500Y-82719859D01*
X140775500Y-80796737D01*
X140777224Y-80781123D01*
X140776938Y-80781096D01*
X140777672Y-80773333D01*
X140775561Y-80706143D01*
X140775500Y-80702249D01*
X140775500Y-80674651D01*
X140775500Y-80674650D01*
X140774997Y-80670670D01*
X140774080Y-80659021D01*
X140773090Y-80627516D01*
X140772709Y-80615372D01*
X140767120Y-80596137D01*
X140763174Y-80577084D01*
X140760664Y-80557208D01*
X140744578Y-80516581D01*
X140740803Y-80505554D01*
X140728617Y-80463610D01*
X140718421Y-80446369D01*
X140709860Y-80428893D01*
X140702486Y-80410269D01*
X140702485Y-80410267D01*
X140676809Y-80374926D01*
X140670412Y-80365190D01*
X140648170Y-80327579D01*
X140648167Y-80327576D01*
X140648165Y-80327573D01*
X140634005Y-80313413D01*
X140621370Y-80298620D01*
X140609593Y-80282412D01*
X140575945Y-80254576D01*
X140567304Y-80246713D01*
X140091803Y-79771212D01*
X140081980Y-79758950D01*
X140081759Y-79759134D01*
X140076786Y-79753122D01*
X140027776Y-79707099D01*
X140024977Y-79704386D01*
X140005477Y-79684885D01*
X140005471Y-79684880D01*
X140002286Y-79682409D01*
X139993434Y-79674848D01*
X139961582Y-79644938D01*
X139961580Y-79644936D01*
X139961577Y-79644935D01*
X139944029Y-79635288D01*
X139927763Y-79624604D01*
X139911932Y-79612324D01*
X139871849Y-79594978D01*
X139861363Y-79589841D01*
X139823094Y-79568803D01*
X139823092Y-79568802D01*
X139803693Y-79563822D01*
X139785281Y-79557518D01*
X139766898Y-79549562D01*
X139766892Y-79549560D01*
X139723760Y-79542729D01*
X139712322Y-79540361D01*
X139670020Y-79529500D01*
X139670019Y-79529500D01*
X139649984Y-79529500D01*
X139630586Y-79527973D01*
X139623162Y-79526797D01*
X139610805Y-79524840D01*
X139610804Y-79524840D01*
X139567325Y-79528950D01*
X139555656Y-79529500D01*
X132774738Y-79529500D01*
X132759121Y-79527776D01*
X132759094Y-79528062D01*
X132751332Y-79527327D01*
X132684145Y-79529439D01*
X132680251Y-79529500D01*
X132652650Y-79529500D01*
X132648962Y-79529965D01*
X132648649Y-79530005D01*
X132637031Y-79530918D01*
X132593373Y-79532290D01*
X132593372Y-79532290D01*
X132574129Y-79537881D01*
X132555079Y-79541825D01*
X132535211Y-79544334D01*
X132535210Y-79544335D01*
X132494600Y-79560413D01*
X132483553Y-79564195D01*
X132441610Y-79576381D01*
X132441609Y-79576382D01*
X132424367Y-79586579D01*
X132406899Y-79595137D01*
X132388269Y-79602513D01*
X132388266Y-79602515D01*
X132352939Y-79628181D01*
X132343180Y-79634592D01*
X132305579Y-79656830D01*
X132291408Y-79671000D01*
X132276623Y-79683628D01*
X132260412Y-79695407D01*
X132232571Y-79729059D01*
X132224711Y-79737696D01*
X130408504Y-81553903D01*
X130361897Y-81583222D01*
X129098091Y-82026899D01*
X129089113Y-82029673D01*
X129076340Y-82033095D01*
X129076338Y-82033096D01*
X129069371Y-82036344D01*
X129059678Y-82040372D01*
X129045852Y-82045442D01*
X129045833Y-82045449D01*
X129045268Y-82045665D01*
X129045255Y-82045670D01*
X129045253Y-82045671D01*
X128984014Y-82073899D01*
X128978425Y-82077225D01*
X128978288Y-82076995D01*
X128964433Y-82085277D01*
X128862172Y-82132963D01*
X128862169Y-82132965D01*
X128668597Y-82268505D01*
X128501505Y-82435597D01*
X128365965Y-82629169D01*
X128365964Y-82629171D01*
X128266098Y-82843335D01*
X128266094Y-82843344D01*
X128204938Y-83071586D01*
X128204936Y-83071596D01*
X128184341Y-83306999D01*
X128184341Y-83307000D01*
X128204936Y-83542403D01*
X128204938Y-83542413D01*
X128266094Y-83770655D01*
X128266096Y-83770659D01*
X128266097Y-83770663D01*
X128344411Y-83938607D01*
X128365965Y-83984830D01*
X128365967Y-83984834D01*
X128456761Y-84114500D01*
X128499579Y-84175651D01*
X128501501Y-84178395D01*
X128501506Y-84178402D01*
X128668597Y-84345493D01*
X128668603Y-84345498D01*
X128854594Y-84475730D01*
X128898219Y-84530307D01*
X128905413Y-84599805D01*
X128873890Y-84662160D01*
X128854595Y-84678880D01*
X128668922Y-84808890D01*
X128668920Y-84808891D01*
X128501891Y-84975920D01*
X128501886Y-84975926D01*
X128366400Y-85169420D01*
X128366399Y-85169422D01*
X128266570Y-85383507D01*
X128266567Y-85383513D01*
X128209364Y-85596999D01*
X128209364Y-85597000D01*
X129106314Y-85597000D01*
X129080507Y-85637156D01*
X129040000Y-85775111D01*
X129040000Y-85918889D01*
X129080507Y-86056844D01*
X129106314Y-86097000D01*
X128209364Y-86097000D01*
X128266567Y-86310486D01*
X128266570Y-86310492D01*
X128366399Y-86524578D01*
X128501894Y-86718082D01*
X128668917Y-86885105D01*
X128854595Y-87015119D01*
X128898219Y-87069696D01*
X128905412Y-87139195D01*
X128873890Y-87201549D01*
X128854595Y-87218269D01*
X128668594Y-87348508D01*
X128501505Y-87515597D01*
X128365965Y-87709169D01*
X128365964Y-87709171D01*
X128266098Y-87923335D01*
X128266094Y-87923344D01*
X128204938Y-88151586D01*
X128204936Y-88151596D01*
X128184341Y-88386999D01*
X128184341Y-88387000D01*
X128204936Y-88622403D01*
X128204938Y-88622413D01*
X128266094Y-88850655D01*
X128266096Y-88850659D01*
X128266097Y-88850663D01*
X128336572Y-89001797D01*
X128365965Y-89064830D01*
X128365967Y-89064834D01*
X128474281Y-89219521D01*
X128501501Y-89258396D01*
X128501506Y-89258402D01*
X128623430Y-89380326D01*
X128656915Y-89441649D01*
X128651931Y-89511341D01*
X128610059Y-89567274D01*
X128579083Y-89584189D01*
X128447671Y-89633202D01*
X128438180Y-89640307D01*
X128380865Y-89683213D01*
X128370238Y-89691168D01*
X128362341Y-89696615D01*
X128353101Y-89702474D01*
X128353089Y-89702483D01*
X128341983Y-89711989D01*
X128335678Y-89717039D01*
X128332452Y-89719454D01*
X128331033Y-89720873D01*
X128323999Y-89727381D01*
X127715277Y-90248377D01*
X127651545Y-90277014D01*
X127582449Y-90266649D01*
X127554178Y-90248514D01*
X126916274Y-89704418D01*
X126889647Y-89683213D01*
X126889648Y-89683213D01*
X126889646Y-89683212D01*
X126884855Y-89680619D01*
X126871681Y-89673488D01*
X126856396Y-89663705D01*
X126822331Y-89638204D01*
X126822328Y-89638202D01*
X126779460Y-89622214D01*
X126763766Y-89615082D01*
X126763111Y-89614727D01*
X126755517Y-89611927D01*
X126755508Y-89611924D01*
X126747424Y-89609720D01*
X126736715Y-89606271D01*
X126690401Y-89588997D01*
X126634467Y-89547126D01*
X126610050Y-89481662D01*
X126624902Y-89413389D01*
X126646053Y-89385133D01*
X126768108Y-89263078D01*
X126903600Y-89069578D01*
X127003429Y-88855492D01*
X127003432Y-88855486D01*
X127060636Y-88642000D01*
X126163686Y-88642000D01*
X126189493Y-88601844D01*
X126230000Y-88463889D01*
X126230000Y-88320111D01*
X126189493Y-88182156D01*
X126163686Y-88142000D01*
X127060636Y-88142000D01*
X127060635Y-88141999D01*
X127003432Y-87928513D01*
X127003429Y-87928507D01*
X126903600Y-87714422D01*
X126903599Y-87714420D01*
X126768113Y-87520926D01*
X126768108Y-87520920D01*
X126601082Y-87353894D01*
X126407578Y-87218399D01*
X126193492Y-87118570D01*
X126193486Y-87118567D01*
X125980000Y-87061364D01*
X125980000Y-87956498D01*
X125872315Y-87907320D01*
X125765763Y-87892000D01*
X125694237Y-87892000D01*
X125587685Y-87907320D01*
X125480000Y-87956498D01*
X125480000Y-87061364D01*
X125479999Y-87061364D01*
X125266513Y-87118567D01*
X125266507Y-87118570D01*
X125052422Y-87218399D01*
X125052420Y-87218400D01*
X124858926Y-87353886D01*
X124858920Y-87353891D01*
X124691891Y-87520920D01*
X124691886Y-87520926D01*
X124556400Y-87714420D01*
X124556399Y-87714422D01*
X124456570Y-87928507D01*
X124456567Y-87928513D01*
X124399364Y-88141999D01*
X124399364Y-88142000D01*
X125296314Y-88142000D01*
X125270507Y-88182156D01*
X125230000Y-88320111D01*
X125230000Y-88463889D01*
X125270507Y-88601844D01*
X125296314Y-88642000D01*
X124399364Y-88642000D01*
X124456567Y-88855486D01*
X124456570Y-88855492D01*
X124556399Y-89069578D01*
X124691894Y-89263082D01*
X124813946Y-89385134D01*
X124847431Y-89446457D01*
X124842447Y-89516149D01*
X124800575Y-89572082D01*
X124769598Y-89588997D01*
X124637671Y-89638202D01*
X124637664Y-89638206D01*
X124522455Y-89724452D01*
X124522452Y-89724455D01*
X124436206Y-89839664D01*
X124436202Y-89839671D01*
X124385908Y-89974517D01*
X124379501Y-90034116D01*
X124379500Y-90034135D01*
X124379500Y-91829870D01*
X122659253Y-91829870D01*
X122728175Y-90962032D01*
X122728550Y-90958114D01*
X122728559Y-90958034D01*
X122860027Y-89780144D01*
X122860515Y-89776321D01*
X123027454Y-88619030D01*
X123028076Y-88615165D01*
X123229509Y-87480208D01*
X123230281Y-87476241D01*
X123230514Y-87475141D01*
X123465266Y-86365076D01*
X123466170Y-86361128D01*
X123733768Y-85275227D01*
X123734815Y-85271266D01*
X124034070Y-84212167D01*
X124035276Y-84208165D01*
X124365225Y-83177413D01*
X124366624Y-83173295D01*
X124368264Y-83168733D01*
X124726320Y-82172379D01*
X124727907Y-82168205D01*
X124729285Y-82164767D01*
X125116375Y-81198685D01*
X125118145Y-81194494D01*
X125534483Y-80257738D01*
X125536455Y-80253521D01*
X125979641Y-79351184D01*
X125981849Y-79346903D01*
X126450976Y-78480380D01*
X126453444Y-78476037D01*
X126947467Y-77646973D01*
X126950258Y-77642509D01*
X127468236Y-76852354D01*
X127471331Y-76847856D01*
X128012326Y-76098060D01*
X128015799Y-76093478D01*
X128578769Y-75385625D01*
X128582641Y-75380995D01*
X129166635Y-74716538D01*
X129170933Y-74711896D01*
X129774954Y-74092326D01*
X129779767Y-74087650D01*
X130402847Y-73514429D01*
X130408152Y-73509820D01*
X131049309Y-72984410D01*
X131055207Y-72979868D01*
X131713444Y-72503736D01*
X131719891Y-72499377D01*
X132394277Y-72073934D01*
X132401357Y-72069791D01*
X133090901Y-71696485D01*
X133098593Y-71692661D01*
X133802382Y-71372895D01*
X133810666Y-71369489D01*
X134527763Y-71104681D01*
X134536620Y-71101786D01*
X135266132Y-70893342D01*
X135275460Y-70891064D01*
X136016612Y-70740379D01*
X136026293Y-70738808D01*
X136778161Y-70647331D01*
X136788115Y-70646525D01*
X137550006Y-70615702D01*
X137559992Y-70615702D01*
X138321879Y-70646525D01*
G37*
%TD.AperFunction*%
%TD*%
%TA.AperFunction,Conductor*%
%TO.N,Net-(BZ1-+)*%
G36*
X140728277Y-90446239D02*
G01*
X141368828Y-90707389D01*
X141375195Y-90713685D01*
X141375907Y-90720397D01*
X141288885Y-91180476D01*
X141283980Y-91187969D01*
X141281843Y-91189121D01*
X140897316Y-91347437D01*
X140888362Y-91347418D01*
X140882267Y-91341581D01*
X140547787Y-90627515D01*
X140547382Y-90618570D01*
X140550108Y-90614282D01*
X140715590Y-90448800D01*
X140723862Y-90445374D01*
X140728277Y-90446239D01*
G37*
%TD.AperFunction*%
%TD*%
%TA.AperFunction,Conductor*%
%TO.N,Net-(BZ1-+)*%
G36*
X139227664Y-80975804D02*
G01*
X139233833Y-80982295D01*
X139233963Y-80982652D01*
X139616450Y-82084527D01*
X139819607Y-82669783D01*
X139819083Y-82678723D01*
X139812391Y-82684673D01*
X139808554Y-82685320D01*
X139577271Y-82685320D01*
X139572892Y-82684469D01*
X139286492Y-82568860D01*
X138086637Y-82084526D01*
X138080249Y-82078253D01*
X138080168Y-82069299D01*
X138080299Y-82068986D01*
X138428034Y-81283439D01*
X138434516Y-81277262D01*
X139218713Y-80975576D01*
X139227664Y-80975804D01*
G37*
%TD.AperFunction*%
%TD*%
%TA.AperFunction,Conductor*%
%TO.N,RST*%
G36*
X143154278Y-85574478D02*
G01*
X143788411Y-85754746D01*
X143795432Y-85760304D01*
X143796466Y-85769199D01*
X143790908Y-85776220D01*
X143788411Y-85777254D01*
X143154278Y-85957521D01*
X143148162Y-85957597D01*
X142898283Y-85893261D01*
X142891125Y-85887880D01*
X142889500Y-85881931D01*
X142889500Y-85650068D01*
X142892927Y-85641795D01*
X142898280Y-85638739D01*
X143148163Y-85574402D01*
X143154278Y-85574478D01*
G37*
%TD.AperFunction*%
%TD*%
%TA.AperFunction,Conductor*%
%TO.N,RST*%
G36*
X145855066Y-85114127D02*
G01*
X145861585Y-85120267D01*
X145861862Y-85120937D01*
X146025521Y-85554861D01*
X146025234Y-85563811D01*
X146018703Y-85569937D01*
X146018514Y-85570007D01*
X145136518Y-85885407D01*
X145127574Y-85884966D01*
X145121561Y-85878330D01*
X145120878Y-85874390D01*
X145120878Y-85643111D01*
X145121615Y-85639023D01*
X145379889Y-84946371D01*
X145385990Y-84939819D01*
X145394937Y-84939498D01*
X145855066Y-85114127D01*
G37*
%TD.AperFunction*%
%TD*%
%TA.AperFunction,Conductor*%
%TO.N,RST*%
G36*
X146974119Y-84697371D02*
G01*
X147314155Y-85082253D01*
X147317065Y-85090722D01*
X147314155Y-85097747D01*
X146974119Y-85482628D01*
X146966073Y-85486559D01*
X146959226Y-85484850D01*
X146525575Y-85218425D01*
X146520320Y-85211174D01*
X146520000Y-85208456D01*
X146520000Y-84971543D01*
X146523427Y-84963270D01*
X146525570Y-84961577D01*
X146959226Y-84695148D01*
X146968069Y-84693738D01*
X146974119Y-84697371D01*
G37*
%TD.AperFunction*%
%TD*%
%TA.AperFunction,Conductor*%
%TO.N,RST*%
G36*
X146203598Y-84687192D02*
G01*
X146777351Y-84961817D01*
X146783334Y-84968479D01*
X146784000Y-84972370D01*
X146784000Y-85208183D01*
X146780573Y-85216456D01*
X146778070Y-85218361D01*
X146203895Y-85543888D01*
X146195008Y-85544987D01*
X146188894Y-85540899D01*
X145863597Y-85123188D01*
X145861218Y-85114556D01*
X145863597Y-85108812D01*
X146189318Y-84690556D01*
X146197104Y-84686135D01*
X146203598Y-84687192D01*
G37*
%TD.AperFunction*%
%TD*%
%TA.AperFunction,Conductor*%
%TO.N,RST*%
G36*
X144755718Y-85638738D02*
G01*
X144762875Y-85644119D01*
X144764500Y-85650068D01*
X144764500Y-85881931D01*
X144761073Y-85890204D01*
X144755717Y-85893261D01*
X144505837Y-85957597D01*
X144499721Y-85957521D01*
X143865588Y-85777254D01*
X143858567Y-85771696D01*
X143857533Y-85762801D01*
X143863091Y-85755780D01*
X143865588Y-85754746D01*
X144499721Y-85574477D01*
X144505836Y-85574402D01*
X144755718Y-85638738D01*
G37*
%TD.AperFunction*%
%TD*%
%TA.AperFunction,Conductor*%
%TO.N,RST*%
G36*
X130655690Y-82019460D02*
G01*
X130658897Y-82021734D01*
X130825265Y-82188102D01*
X130828692Y-82196375D01*
X130828031Y-82200251D01*
X130329388Y-83620629D01*
X130323415Y-83627300D01*
X130314473Y-83627792D01*
X130313883Y-83627567D01*
X129543785Y-83309562D01*
X129537447Y-83303238D01*
X129219432Y-82533115D01*
X129219441Y-82524161D01*
X129225780Y-82517836D01*
X129226345Y-82517620D01*
X130646748Y-82018968D01*
X130655690Y-82019460D01*
G37*
%TD.AperFunction*%
%TD*%
%TA.AperFunction,Conductor*%
%TO.N,Net-(U1-VCAP)*%
G36*
X144755718Y-88238738D02*
G01*
X144762875Y-88244119D01*
X144764500Y-88250068D01*
X144764500Y-88481931D01*
X144761073Y-88490204D01*
X144755717Y-88493261D01*
X144505837Y-88557597D01*
X144499721Y-88557521D01*
X143865588Y-88377254D01*
X143858567Y-88371696D01*
X143857533Y-88362801D01*
X143863091Y-88355780D01*
X143865588Y-88354746D01*
X144499721Y-88174477D01*
X144505836Y-88174402D01*
X144755718Y-88238738D01*
G37*
%TD.AperFunction*%
%TD*%
%TA.AperFunction,Conductor*%
%TO.N,Net-(U1-VCAP)*%
G36*
X145443997Y-87794136D02*
G01*
X145821883Y-88118301D01*
X145852741Y-88144773D01*
X145856789Y-88152760D01*
X145855341Y-88159352D01*
X145612998Y-88593830D01*
X145605975Y-88599386D01*
X145600898Y-88599679D01*
X144943818Y-88492599D01*
X144936204Y-88487886D01*
X144934000Y-88481051D01*
X144934000Y-88246198D01*
X144937427Y-88237925D01*
X144937848Y-88237524D01*
X145428541Y-87794333D01*
X145436975Y-87791332D01*
X145443997Y-87794136D01*
G37*
%TD.AperFunction*%
%TD*%
%TA.AperFunction,Conductor*%
%TO.N,+3V3*%
G36*
X145129281Y-88896219D02*
G01*
X146013789Y-89195155D01*
X146020529Y-89201050D01*
X146021126Y-89209985D01*
X146021026Y-89210270D01*
X145861814Y-89644055D01*
X145855746Y-89650641D01*
X145855094Y-89650919D01*
X145394916Y-89831032D01*
X145385963Y-89830856D01*
X145379757Y-89824401D01*
X145136406Y-89199000D01*
X145114633Y-89143045D01*
X145113837Y-89138802D01*
X145113837Y-88907304D01*
X145117264Y-88899031D01*
X145125537Y-88895604D01*
X145129281Y-88896219D01*
G37*
%TD.AperFunction*%
%TD*%
%TA.AperFunction,Conductor*%
%TO.N,+3V3*%
G36*
X126588217Y-90089008D02*
G01*
X127425893Y-90803497D01*
X127429963Y-90811472D01*
X127430000Y-90812398D01*
X127430000Y-91051601D01*
X127426573Y-91059874D01*
X127425893Y-91060503D01*
X126588218Y-91774990D01*
X126579699Y-91777751D01*
X126572357Y-91774366D01*
X125857024Y-91059874D01*
X125737286Y-90940276D01*
X125733855Y-90932007D01*
X125737276Y-90923733D01*
X126572358Y-90089632D01*
X126580632Y-90086211D01*
X126588217Y-90089008D01*
G37*
%TD.AperFunction*%
%TD*%
%TA.AperFunction,Conductor*%
%TO.N,+3V3*%
G36*
X128697655Y-90087122D02*
G01*
X129532688Y-90918722D01*
X129536132Y-90926988D01*
X129532722Y-90935268D01*
X129532700Y-90935290D01*
X128697616Y-91769392D01*
X128689341Y-91772814D01*
X128681786Y-91770042D01*
X127844138Y-91060505D01*
X127840040Y-91052542D01*
X127840000Y-91051577D01*
X127840000Y-90812386D01*
X127843427Y-90804113D01*
X127844081Y-90803506D01*
X128681792Y-90086522D01*
X128690305Y-90083747D01*
X128697655Y-90087122D01*
G37*
%TD.AperFunction*%
%TD*%
%TA.AperFunction,Conductor*%
%TO.N,+3V3*%
G36*
X145854647Y-89646614D02*
G01*
X145861420Y-89652472D01*
X145861760Y-89653212D01*
X146043407Y-90088425D01*
X146043431Y-90097380D01*
X146037341Y-90103633D01*
X145250204Y-90451663D01*
X145241252Y-90451874D01*
X145237200Y-90449235D01*
X145071568Y-90283603D01*
X145068141Y-90275330D01*
X145068991Y-90270951D01*
X145318319Y-89653212D01*
X145379890Y-89500662D01*
X145386164Y-89494275D01*
X145394420Y-89493938D01*
X145854647Y-89646614D01*
G37*
%TD.AperFunction*%
%TD*%
%TA.AperFunction,Conductor*%
%TO.N,+3V3*%
G36*
X144964452Y-90390831D02*
G01*
X145130075Y-90556454D01*
X145133502Y-90564727D01*
X145132540Y-90569374D01*
X144789565Y-91361845D01*
X144783134Y-91368077D01*
X144774370Y-91368016D01*
X144339216Y-91188735D01*
X144332872Y-91182415D01*
X144332592Y-91181674D01*
X144177103Y-90721358D01*
X144177702Y-90712426D01*
X144183703Y-90706811D01*
X144951698Y-90388296D01*
X144960652Y-90388293D01*
X144964452Y-90390831D01*
G37*
%TD.AperFunction*%
%TD*%
%TA.AperFunction,Conductor*%
%TO.N,+3V3*%
G36*
X147643719Y-87639330D02*
G01*
X147643735Y-87639356D01*
X147812684Y-87921374D01*
X147813996Y-87930232D01*
X147810101Y-87936405D01*
X147462459Y-88223740D01*
X147453899Y-88226370D01*
X147446732Y-88222995D01*
X147277483Y-88053746D01*
X147150612Y-87940561D01*
X147146720Y-87932496D01*
X147149670Y-87924041D01*
X147152357Y-87921812D01*
X147627661Y-87635347D01*
X147636513Y-87634013D01*
X147643719Y-87639330D01*
G37*
%TD.AperFunction*%
%TD*%
%TA.AperFunction,Conductor*%
%TO.N,+3V3*%
G36*
X146488545Y-88853924D02*
G01*
X146654168Y-89019547D01*
X146657595Y-89027820D01*
X146656702Y-89032302D01*
X146338190Y-89800293D01*
X146331856Y-89806622D01*
X146323639Y-89806896D01*
X145863338Y-89651411D01*
X145856596Y-89645516D01*
X145856264Y-89644783D01*
X145676983Y-89209629D01*
X145677000Y-89200674D01*
X145683154Y-89194434D01*
X146068129Y-89027820D01*
X146475625Y-88851458D01*
X146484579Y-88851318D01*
X146488545Y-88853924D01*
G37*
%TD.AperFunction*%
%TD*%
%TA.AperFunction,Conductor*%
%TO.N,+3V3*%
G36*
X143895628Y-91003982D02*
G01*
X144330783Y-91183264D01*
X144337127Y-91189584D01*
X144337411Y-91190338D01*
X144492896Y-91650639D01*
X144492297Y-91659573D01*
X144486293Y-91665190D01*
X143718302Y-91983702D01*
X143709347Y-91983706D01*
X143705547Y-91981168D01*
X143539924Y-91815545D01*
X143536497Y-91807272D01*
X143537459Y-91802625D01*
X143880434Y-91010154D01*
X143886865Y-91003922D01*
X143895628Y-91003982D01*
G37*
%TD.AperFunction*%
%TD*%
%TA.AperFunction,Conductor*%
%TO.N,+3V3*%
G36*
X144755718Y-88888738D02*
G01*
X144762875Y-88894119D01*
X144764500Y-88900068D01*
X144764500Y-89131931D01*
X144761073Y-89140204D01*
X144755717Y-89143261D01*
X144505837Y-89207597D01*
X144499721Y-89207521D01*
X143865588Y-89027254D01*
X143858567Y-89021696D01*
X143857533Y-89012801D01*
X143863091Y-89005780D01*
X143865588Y-89004746D01*
X144499721Y-88824477D01*
X144505836Y-88824402D01*
X144755718Y-88888738D01*
G37*
%TD.AperFunction*%
%TD*%
%TA.AperFunction,Conductor*%
%TO.N,+3V3*%
G36*
X148977406Y-85098083D02*
G01*
X148977835Y-85098579D01*
X149305630Y-85499341D01*
X149308216Y-85507915D01*
X149305949Y-85513749D01*
X148972509Y-85960300D01*
X148964813Y-85964879D01*
X148963134Y-85965000D01*
X148728086Y-85965000D01*
X148719813Y-85961573D01*
X148716750Y-85956197D01*
X148586959Y-85448326D01*
X148588231Y-85439462D01*
X148590388Y-85436805D01*
X148960875Y-85097359D01*
X148969290Y-85094298D01*
X148977406Y-85098083D01*
G37*
%TD.AperFunction*%
%TD*%
%TA.AperFunction,Conductor*%
%TO.N,+3V3*%
G36*
X148066948Y-87035685D02*
G01*
X148235053Y-87203790D01*
X148238233Y-87209669D01*
X148278188Y-87400833D01*
X148276526Y-87409633D01*
X148270513Y-87414300D01*
X147646709Y-87627152D01*
X147637773Y-87626581D01*
X147632110Y-87620527D01*
X147516711Y-87339674D01*
X147516736Y-87330721D01*
X147521905Y-87324971D01*
X148053049Y-87033698D01*
X148061951Y-87032726D01*
X148066948Y-87035685D01*
G37*
%TD.AperFunction*%
%TD*%
%TA.AperFunction,Conductor*%
%TO.N,+3V3*%
G36*
X130388038Y-90579435D02*
G01*
X130394364Y-90585773D01*
X130394405Y-90585875D01*
X130717461Y-91389374D01*
X130718206Y-91395266D01*
X130712318Y-91439999D01*
X130732955Y-91596759D01*
X130732958Y-91596768D01*
X130793459Y-91742832D01*
X130793463Y-91742838D01*
X130793464Y-91742841D01*
X130889718Y-91868282D01*
X130916526Y-91888853D01*
X130920259Y-91893769D01*
X131076545Y-92282479D01*
X131076452Y-92291434D01*
X131073963Y-92295117D01*
X130908117Y-92460963D01*
X130899844Y-92464390D01*
X130895479Y-92463545D01*
X129198876Y-91781405D01*
X129192479Y-91775140D01*
X129192386Y-91766185D01*
X129192385Y-91766185D01*
X129537438Y-90930782D01*
X129543761Y-90924447D01*
X130379085Y-90579426D01*
X130388038Y-90579435D01*
G37*
%TD.AperFunction*%
%TD*%
%TA.AperFunction,Conductor*%
%TO.N,+BATT*%
G36*
X139921690Y-93708460D02*
G01*
X139924897Y-93710734D01*
X140091265Y-93877102D01*
X140094692Y-93885375D01*
X140094031Y-93889251D01*
X139595388Y-95309629D01*
X139589415Y-95316300D01*
X139580473Y-95316792D01*
X139579883Y-95316567D01*
X138809785Y-94998562D01*
X138803447Y-94992238D01*
X138485432Y-94222115D01*
X138485441Y-94213161D01*
X138491780Y-94206836D01*
X138492345Y-94206620D01*
X139912748Y-93707968D01*
X139921690Y-93708460D01*
G37*
%TD.AperFunction*%
%TD*%
%TA.AperFunction,Conductor*%
%TO.N,+BATT*%
G36*
X147378661Y-91704588D02*
G01*
X147385403Y-91710483D01*
X147385735Y-91711216D01*
X147565016Y-92146370D01*
X147564999Y-92155325D01*
X147558845Y-92161565D01*
X146766374Y-92504540D01*
X146757420Y-92504681D01*
X146753454Y-92502075D01*
X146587831Y-92336452D01*
X146584404Y-92328179D01*
X146585297Y-92323697D01*
X146652539Y-92161565D01*
X146903811Y-91555703D01*
X146910143Y-91549377D01*
X146918358Y-91549103D01*
X147378661Y-91704588D01*
G37*
%TD.AperFunction*%
%TD*%
%TA.AperFunction,Conductor*%
%TO.N,+BATT*%
G36*
X147727755Y-91278649D02*
G01*
X148301721Y-91578717D01*
X148307465Y-91585587D01*
X148308000Y-91589086D01*
X148308000Y-91824913D01*
X148304573Y-91833186D01*
X148301721Y-91835282D01*
X147727756Y-92135349D01*
X147718836Y-92136145D01*
X147713104Y-92132169D01*
X147387597Y-91714188D01*
X147385218Y-91705556D01*
X147387597Y-91699812D01*
X147713106Y-91281828D01*
X147720891Y-91277408D01*
X147727755Y-91278649D01*
G37*
%TD.AperFunction*%
%TD*%
%TA.AperFunction,Conductor*%
%TO.N,+BATT*%
G36*
X148509930Y-91305923D02*
G01*
X148839033Y-91712135D01*
X148841578Y-91720720D01*
X148839033Y-91726865D01*
X148510141Y-92132815D01*
X148502270Y-92137086D01*
X148495502Y-92135751D01*
X147937652Y-91835313D01*
X147931993Y-91828373D01*
X147931500Y-91825012D01*
X147931500Y-91589264D01*
X147934927Y-91580991D01*
X147938010Y-91578778D01*
X148495650Y-91302801D01*
X148504584Y-91302204D01*
X148509930Y-91305923D01*
G37*
%TD.AperFunction*%
%TD*%
%TA.AperFunction,Conductor*%
%TO.N,Net-(U2-SW)*%
G36*
X149920761Y-88587780D02*
G01*
X149920780Y-88587800D01*
X150191967Y-88873545D01*
X150195176Y-88881905D01*
X150193508Y-88887627D01*
X149979463Y-89243693D01*
X149972263Y-89249018D01*
X149963407Y-89247693D01*
X149961162Y-89245938D01*
X149794930Y-89079706D01*
X149605731Y-88888472D01*
X149602348Y-88880180D01*
X149605819Y-88871926D01*
X149605939Y-88871808D01*
X149904220Y-88587385D01*
X149912571Y-88584157D01*
X149920761Y-88587780D01*
G37*
%TD.AperFunction*%
%TD*%
%TA.AperFunction,Conductor*%
%TO.N,Net-(U2-SW)*%
G36*
X149487937Y-89391574D02*
G01*
X149491529Y-89394024D01*
X149657098Y-89559593D01*
X149660525Y-89567866D01*
X149659430Y-89572809D01*
X149323402Y-90293705D01*
X149316800Y-90299756D01*
X149309110Y-90299866D01*
X148848534Y-90146947D01*
X148841762Y-90141088D01*
X148841305Y-90140053D01*
X148678460Y-89717854D01*
X148678680Y-89708902D01*
X148685102Y-89702753D01*
X149478984Y-89391405D01*
X149487937Y-89391574D01*
G37*
%TD.AperFunction*%
%TD*%
%TA.AperFunction,Conductor*%
%TO.N,C7*%
G36*
X139763018Y-90314427D02*
G01*
X139765225Y-90317499D01*
X140017863Y-90826579D01*
X140018471Y-90835513D01*
X140015287Y-90840407D01*
X139644904Y-91179758D01*
X139636489Y-91182820D01*
X139629096Y-91179758D01*
X139258712Y-90840407D01*
X139254927Y-90832291D01*
X139256135Y-90826580D01*
X139508775Y-90317499D01*
X139515522Y-90311612D01*
X139519255Y-90311000D01*
X139754745Y-90311000D01*
X139763018Y-90314427D01*
G37*
%TD.AperFunction*%
%TD*%
%TA.AperFunction,Conductor*%
%TO.N,C3*%
G36*
X136715719Y-89878110D02*
G01*
X136881198Y-90043589D01*
X136884625Y-90051862D01*
X136883759Y-90056279D01*
X136622610Y-90696829D01*
X136616314Y-90703196D01*
X136609602Y-90703908D01*
X136149523Y-90616885D01*
X136142030Y-90611980D01*
X136140880Y-90609848D01*
X135982562Y-90225315D01*
X135982581Y-90216362D01*
X135988416Y-90210268D01*
X136702484Y-89875787D01*
X136711429Y-89875382D01*
X136715719Y-89878110D01*
G37*
%TD.AperFunction*%
%TD*%
%TA.AperFunction,Conductor*%
%TO.N,C4*%
G36*
X136572705Y-87238833D02*
G01*
X137014548Y-87587487D01*
X137018920Y-87595301D01*
X137019000Y-87596671D01*
X137019000Y-87831517D01*
X137015573Y-87839790D01*
X137009723Y-87842963D01*
X136502072Y-87950392D01*
X136493270Y-87948753D01*
X136491024Y-87946850D01*
X136379186Y-87824785D01*
X136151500Y-87576278D01*
X136148439Y-87567864D01*
X136152224Y-87559748D01*
X136152859Y-87559207D01*
X136558205Y-87238839D01*
X136566819Y-87236398D01*
X136572705Y-87238833D01*
G37*
%TD.AperFunction*%
%TD*%
%TA.AperFunction,Conductor*%
%TO.N,C4*%
G36*
X137429278Y-87524478D02*
G01*
X138063411Y-87704746D01*
X138070432Y-87710304D01*
X138071466Y-87719199D01*
X138065908Y-87726220D01*
X138063411Y-87727254D01*
X137429278Y-87907521D01*
X137423162Y-87907597D01*
X137173283Y-87843261D01*
X137166125Y-87837880D01*
X137164500Y-87831931D01*
X137164500Y-87600068D01*
X137167927Y-87591795D01*
X137173280Y-87588739D01*
X137423163Y-87524402D01*
X137429278Y-87524478D01*
G37*
%TD.AperFunction*%
%TD*%
%TA.AperFunction,Conductor*%
%TO.N,C5*%
G36*
X136618367Y-86081920D02*
G01*
X136622610Y-86087170D01*
X136883759Y-86727720D01*
X136883709Y-86736675D01*
X136881198Y-86740410D01*
X136715719Y-86905889D01*
X136707446Y-86909316D01*
X136702483Y-86908211D01*
X135988418Y-86573732D01*
X135982380Y-86567120D01*
X135982561Y-86558684D01*
X136140879Y-86174154D01*
X136147197Y-86167810D01*
X136149517Y-86167115D01*
X136609603Y-86080091D01*
X136618367Y-86081920D01*
G37*
%TD.AperFunction*%
%TD*%
%TA.AperFunction,Conductor*%
%TO.N,C5*%
G36*
X137429278Y-86874478D02*
G01*
X138063411Y-87054746D01*
X138070432Y-87060304D01*
X138071466Y-87069199D01*
X138065908Y-87076220D01*
X138063411Y-87077254D01*
X137429278Y-87257521D01*
X137423162Y-87257597D01*
X137173283Y-87193261D01*
X137166125Y-87187880D01*
X137164500Y-87181931D01*
X137164500Y-86950068D01*
X137167927Y-86941795D01*
X137173280Y-86938739D01*
X137423163Y-86874402D01*
X137429278Y-86874478D01*
G37*
%TD.AperFunction*%
%TD*%
%TA.AperFunction,Conductor*%
%TO.N,C6*%
G36*
X136618367Y-83033920D02*
G01*
X136622610Y-83039170D01*
X136883759Y-83679720D01*
X136883709Y-83688675D01*
X136881198Y-83692410D01*
X136715719Y-83857889D01*
X136707446Y-83861316D01*
X136702483Y-83860211D01*
X135988418Y-83525732D01*
X135982380Y-83519120D01*
X135982561Y-83510684D01*
X136140879Y-83126154D01*
X136147197Y-83119810D01*
X136149517Y-83119115D01*
X136609603Y-83032091D01*
X136618367Y-83033920D01*
G37*
%TD.AperFunction*%
%TD*%
%TA.AperFunction,Conductor*%
%TO.N,C6*%
G36*
X137316550Y-86186378D02*
G01*
X138102444Y-86215556D01*
X138110583Y-86219287D01*
X138113701Y-86227682D01*
X138113689Y-86227928D01*
X138103279Y-86406866D01*
X138099378Y-86414926D01*
X138092911Y-86417812D01*
X137368419Y-86499579D01*
X137361114Y-86498002D01*
X137147596Y-86370662D01*
X137142246Y-86363481D01*
X137143540Y-86354620D01*
X137145312Y-86352344D01*
X137307859Y-86189797D01*
X137316131Y-86186371D01*
X137316550Y-86186378D01*
G37*
%TD.AperFunction*%
%TD*%
%TA.AperFunction,Conductor*%
%TO.N,SWIM*%
G36*
X130425097Y-86945849D02*
G01*
X130591428Y-87112180D01*
X130594855Y-87120453D01*
X130594705Y-87122322D01*
X130391589Y-88377177D01*
X130386884Y-88384797D01*
X130380049Y-88387008D01*
X129547127Y-88387700D01*
X129538851Y-88384280D01*
X129536303Y-88380466D01*
X129218714Y-87611377D01*
X129218723Y-87602422D01*
X129223889Y-87596660D01*
X130411188Y-86943868D01*
X130420088Y-86942886D01*
X130425097Y-86945849D01*
G37*
%TD.AperFunction*%
%TD*%
%TA.AperFunction,Conductor*%
%TO.N,Net-(J2-Pin_1)*%
G36*
X134204405Y-90558110D02*
G01*
X134204558Y-90558470D01*
X134422249Y-91093650D01*
X134699394Y-91774996D01*
X134847002Y-92137880D01*
X134847864Y-92142288D01*
X134847864Y-92373722D01*
X134844437Y-92381995D01*
X134836164Y-92385422D01*
X134832435Y-92384812D01*
X133036345Y-91780881D01*
X133029596Y-91774996D01*
X133028984Y-91766062D01*
X133029131Y-91765651D01*
X133347269Y-90931536D01*
X133353419Y-90925028D01*
X134188954Y-90552192D01*
X134197904Y-90551952D01*
X134204405Y-90558110D01*
G37*
%TD.AperFunction*%
%TD*%
%TA.AperFunction,Conductor*%
%TO.N,Net-(J2-Pin_1)*%
G36*
X135798407Y-91886712D02*
G01*
X136137758Y-92257096D01*
X136140820Y-92265511D01*
X136137758Y-92272904D01*
X135798407Y-92643287D01*
X135790291Y-92647072D01*
X135784579Y-92645863D01*
X135275499Y-92393225D01*
X135269612Y-92386478D01*
X135269000Y-92382745D01*
X135269000Y-92147254D01*
X135272427Y-92138981D01*
X135275495Y-92136776D01*
X135784580Y-91884135D01*
X135793513Y-91883528D01*
X135798407Y-91886712D01*
G37*
%TD.AperFunction*%
%TD*%
%TA.AperFunction,Conductor*%
%TO.N,Net-(J2-Pin_2)*%
G36*
X135798407Y-88838712D02*
G01*
X136137758Y-89209096D01*
X136140820Y-89217511D01*
X136137758Y-89224904D01*
X135798407Y-89595287D01*
X135790291Y-89599072D01*
X135784579Y-89597863D01*
X135275499Y-89345225D01*
X135269612Y-89338478D01*
X135269000Y-89334745D01*
X135269000Y-89099254D01*
X135272427Y-89090981D01*
X135275495Y-89088776D01*
X135784580Y-88836135D01*
X135793513Y-88835528D01*
X135798407Y-88838712D01*
G37*
%TD.AperFunction*%
%TD*%
%TA.AperFunction,Conductor*%
%TO.N,Net-(J2-Pin_2)*%
G36*
X134134605Y-88065713D02*
G01*
X134140357Y-88070849D01*
X134704738Y-89089354D01*
X134706204Y-89095025D01*
X134706204Y-89329359D01*
X134702777Y-89337632D01*
X134694504Y-89341059D01*
X134693601Y-89341024D01*
X133360784Y-89237834D01*
X133352800Y-89233779D01*
X133349987Y-89226183D01*
X133349009Y-88394831D01*
X133352426Y-88386554D01*
X133356233Y-88384007D01*
X134125653Y-88065709D01*
X134134605Y-88065713D01*
G37*
%TD.AperFunction*%
%TD*%
%TA.AperFunction,Conductor*%
%TO.N,Net-(J2-Pin_3)*%
G36*
X134472319Y-84565156D02*
G01*
X134635265Y-84728102D01*
X134638692Y-84736375D01*
X134638031Y-84740251D01*
X134139388Y-86160629D01*
X134133415Y-86167300D01*
X134124473Y-86167792D01*
X134123883Y-86167567D01*
X133353785Y-85849562D01*
X133347447Y-85843238D01*
X133029432Y-85073115D01*
X133029441Y-85064161D01*
X133035780Y-85057836D01*
X133036345Y-85057620D01*
X133462078Y-84908161D01*
X133465954Y-84907500D01*
X133963884Y-84907500D01*
X133964904Y-84907545D01*
X134007408Y-84911264D01*
X134007409Y-84911264D01*
X134007409Y-84911263D01*
X134007411Y-84911264D01*
X134048657Y-84900211D01*
X134049615Y-84899999D01*
X134091649Y-84892588D01*
X134102910Y-84886085D01*
X134105723Y-84884919D01*
X134118288Y-84881554D01*
X134153254Y-84857069D01*
X134154077Y-84856544D01*
X134191059Y-84835194D01*
X134218500Y-84802489D01*
X134219169Y-84801759D01*
X134455773Y-84565155D01*
X134464046Y-84561729D01*
X134472319Y-84565156D01*
G37*
%TD.AperFunction*%
%TD*%
%TA.AperFunction,Conductor*%
%TO.N,Net-(J2-Pin_3)*%
G36*
X135798407Y-84140712D02*
G01*
X136137758Y-84511096D01*
X136140820Y-84519511D01*
X136137758Y-84526904D01*
X135798407Y-84897287D01*
X135790291Y-84901072D01*
X135784579Y-84899863D01*
X135275499Y-84647225D01*
X135269612Y-84640478D01*
X135269000Y-84636745D01*
X135269000Y-84401254D01*
X135272427Y-84392981D01*
X135275495Y-84390776D01*
X135784580Y-84138135D01*
X135793513Y-84137528D01*
X135798407Y-84140712D01*
G37*
%TD.AperFunction*%
%TD*%
%TA.AperFunction,Conductor*%
%TO.N,Net-(J2-Pin_4)*%
G36*
X134465690Y-82019460D02*
G01*
X134468897Y-82021734D01*
X134635265Y-82188102D01*
X134638692Y-82196375D01*
X134638031Y-82200251D01*
X134139388Y-83620629D01*
X134133415Y-83627300D01*
X134124473Y-83627792D01*
X134123883Y-83627567D01*
X133353785Y-83309562D01*
X133347447Y-83303238D01*
X133029432Y-82533115D01*
X133029441Y-82524161D01*
X133035780Y-82517836D01*
X133036345Y-82517620D01*
X134456748Y-82018968D01*
X134465690Y-82019460D01*
G37*
%TD.AperFunction*%
%TD*%
%TA.AperFunction,Conductor*%
%TO.N,Net-(J2-Pin_4)*%
G36*
X135798407Y-81092712D02*
G01*
X136137758Y-81463096D01*
X136140820Y-81471511D01*
X136137758Y-81478904D01*
X135798407Y-81849287D01*
X135790291Y-81853072D01*
X135784579Y-81851863D01*
X135275499Y-81599225D01*
X135269612Y-81592478D01*
X135269000Y-81588745D01*
X135269000Y-81353254D01*
X135272427Y-81344981D01*
X135275495Y-81342776D01*
X135784580Y-81090135D01*
X135793513Y-81089528D01*
X135798407Y-81092712D01*
G37*
%TD.AperFunction*%
%TD*%
M02*
