%TF.GenerationSoftware,KiCad,Pcbnew,7.0.10*%
%TF.CreationDate,2025-02-23T01:37:13-06:00*%
%TF.ProjectId,Portal_Radio,506f7274-616c-45f5-9261-64696f2e6b69,rev?*%
%TF.SameCoordinates,Original*%
%TF.FileFunction,Profile,NP*%
%FSLAX46Y46*%
G04 Gerber Fmt 4.6, Leading zero omitted, Abs format (unit mm)*
G04 Created by KiCad (PCBNEW 7.0.10) date 2025-02-23 01:37:13*
%MOMM*%
%LPD*%
G01*
G04 APERTURE LIST*
%TA.AperFunction,Profile*%
%ADD10C,0.200000*%
%TD*%
%ADD11C,0.200000*%
%TA.AperFunction,Profile*%
%ADD12C,0.010050*%
%TD*%
G04 APERTURE END LIST*
D10*
X122555000Y-94615000D02*
X122555000Y-108615000D01*
D11*
X137555000Y-70615000D02*
X136783102Y-70646228D01*
X136021337Y-70738909D01*
X135270647Y-70891533D01*
X134531976Y-71102594D01*
X133806266Y-71370583D01*
X133094458Y-71693992D01*
X132397497Y-72071313D01*
X131716323Y-72501038D01*
X131051879Y-72981660D01*
X130405109Y-73511670D01*
X129776954Y-74089560D01*
X129168357Y-74713823D01*
X128580260Y-75382949D01*
X128013607Y-76095433D01*
X127469338Y-76849765D01*
X126948398Y-77644437D01*
X126451728Y-78477942D01*
X125980270Y-79348771D01*
X125534968Y-80255417D01*
X125116764Y-81196371D01*
X124726600Y-82170126D01*
X124365419Y-83175174D01*
X124034162Y-84210007D01*
X123733774Y-85273116D01*
X123465196Y-86362995D01*
X123229370Y-87478134D01*
X123027239Y-88617026D01*
X122859746Y-89778162D01*
X122727833Y-90960036D01*
X122632443Y-92161139D01*
X122574517Y-93379963D01*
X122555000Y-94615000D01*
D12*
X122560025Y-108615000D02*
G75*
G03*
X122549975Y-108615000I-5025J0D01*
G01*
X122549975Y-108615000D02*
G75*
G03*
X122560025Y-108615000I5025J0D01*
G01*
D10*
X152555000Y-108615000D02*
X152555000Y-94615000D01*
X122555000Y-108615000D02*
X152555000Y-108615000D01*
D11*
X152555000Y-94615000D02*
X152535482Y-93379963D01*
X152477556Y-92161139D01*
X152382166Y-90960036D01*
X152250253Y-89778162D01*
X152082760Y-88617026D01*
X151880629Y-87478134D01*
X151644803Y-86362995D01*
X151376225Y-85273116D01*
X151075837Y-84210007D01*
X150744580Y-83175174D01*
X150383399Y-82170126D01*
X149993235Y-81196371D01*
X149575031Y-80255417D01*
X149129729Y-79348771D01*
X148658271Y-78477942D01*
X148161601Y-77644437D01*
X147640661Y-76849765D01*
X147096392Y-76095433D01*
X146529739Y-75382949D01*
X145941642Y-74713823D01*
X145333045Y-74089560D01*
X144704890Y-73511670D01*
X144058120Y-72981660D01*
X143393676Y-72501038D01*
X142712502Y-72071313D01*
X142015541Y-71693992D01*
X141303733Y-71370583D01*
X140578023Y-71102594D01*
X139839352Y-70891533D01*
X139088662Y-70738909D01*
X138326897Y-70646228D01*
X137555000Y-70615000D01*
M02*
