%TF.GenerationSoftware,KiCad,Pcbnew,7.0.10*%
%TF.CreationDate,2025-02-23T01:37:13-06:00*%
%TF.ProjectId,Portal_Radio,506f7274-616c-45f5-9261-64696f2e6b69,rev?*%
%TF.SameCoordinates,Original*%
%TF.FileFunction,Copper,L1,Top*%
%TF.FilePolarity,Positive*%
%FSLAX46Y46*%
G04 Gerber Fmt 4.6, Leading zero omitted, Abs format (unit mm)*
G04 Created by KiCad (PCBNEW 7.0.10) date 2025-02-23 01:37:13*
%MOMM*%
%LPD*%
G01*
G04 APERTURE LIST*
%TA.AperFunction,ComponentPad*%
%ADD10R,1.700000X1.700000*%
%TD*%
%TA.AperFunction,ComponentPad*%
%ADD11O,1.700000X1.700000*%
%TD*%
%TA.AperFunction,SMDPad,CuDef*%
%ADD12C,13.000000*%
%TD*%
%TA.AperFunction,ComponentPad*%
%ADD13R,1.600000X1.600000*%
%TD*%
%TA.AperFunction,ComponentPad*%
%ADD14C,1.600000*%
%TD*%
%TA.AperFunction,ViaPad*%
%ADD15C,0.800000*%
%TD*%
%TA.AperFunction,Conductor*%
%ADD16C,0.250000*%
%TD*%
G04 APERTURE END LIST*
D10*
%TO.P,J3,1,Pin_1*%
%TO.N,+3V3*%
X125730000Y-90932000D03*
D11*
%TO.P,J3,2,Pin_2*%
%TO.N,GND*%
X125730000Y-88392000D03*
%TD*%
D10*
%TO.P,J1,1,Pin_1*%
%TO.N,+3V3*%
X129540000Y-90927000D03*
D11*
%TO.P,J1,2,Pin_2*%
%TO.N,SWIM*%
X129540000Y-88387000D03*
%TO.P,J1,3,Pin_3*%
%TO.N,GND*%
X129540000Y-85847000D03*
%TO.P,J1,4,Pin_4*%
%TO.N,RST*%
X129540000Y-83307000D03*
%TD*%
D10*
%TO.P,J4,1,Pin_1*%
%TO.N,GND*%
X136266000Y-94996000D03*
D11*
%TO.P,J4,2,Pin_2*%
%TO.N,+BATT*%
X138806000Y-94996000D03*
%TD*%
D12*
%TO.P,J5,1,Pin_1*%
%TO.N,GND*%
X129794000Y-101346000D03*
%TD*%
D10*
%TO.P,J2,1,Pin_1*%
%TO.N,Net-(J2-Pin_1)*%
X133350000Y-90927000D03*
D11*
%TO.P,J2,2,Pin_2*%
%TO.N,Net-(J2-Pin_2)*%
X133350000Y-88387000D03*
%TO.P,J2,3,Pin_3*%
%TO.N,Net-(J2-Pin_3)*%
X133350000Y-85847000D03*
%TO.P,J2,4,Pin_4*%
%TO.N,Net-(J2-Pin_4)*%
X133350000Y-83307000D03*
%TD*%
D12*
%TO.P,J6,1,Pin_1*%
%TO.N,+BATT*%
X145288000Y-101346000D03*
%TD*%
D13*
%TO.P,BZ1,1,+*%
%TO.N,Net-(BZ1-+)*%
X138430000Y-81280000D03*
D14*
%TO.P,BZ1,2,-*%
%TO.N,GND*%
X144930000Y-81280000D03*
%TD*%
D15*
%TO.N,GND*%
X133858000Y-107696000D03*
X131572000Y-87376000D03*
X151638000Y-97282000D03*
X148082000Y-88646000D03*
X147320000Y-83820000D03*
X139192000Y-78994000D03*
X150368000Y-84582000D03*
X145796000Y-92202000D03*
X133858000Y-81280000D03*
X151638000Y-107696000D03*
X140462000Y-92202000D03*
X124714000Y-84582000D03*
X133096000Y-72644000D03*
X145542000Y-75438000D03*
X131064000Y-84836000D03*
X129794000Y-81280000D03*
X131318000Y-91440000D03*
X140716000Y-94996000D03*
X137414000Y-90678000D03*
X134366000Y-93980000D03*
X141986000Y-86106000D03*
X130556000Y-93472000D03*
X148336000Y-79502000D03*
X147320000Y-86614000D03*
X137414000Y-71374000D03*
X128016000Y-87122000D03*
X132080000Y-78994000D03*
X135128000Y-78994000D03*
X141986000Y-72644000D03*
X134620000Y-87122000D03*
X123444000Y-91186000D03*
X129540000Y-75438000D03*
X142240000Y-89916000D03*
X126746000Y-79502000D03*
X127762000Y-89662000D03*
X140462000Y-84582000D03*
X128016000Y-84582000D03*
X142240000Y-84074000D03*
X140970000Y-89662000D03*
X137414000Y-92202000D03*
X138938000Y-97028000D03*
X141224000Y-107696000D03*
X123444000Y-97282000D03*
X140970000Y-82804000D03*
X127762000Y-91948000D03*
X151638000Y-91186000D03*
X123444000Y-107696000D03*
%TD*%
D16*
%TO.N,+BATT*%
X145288000Y-101346000D02*
X145156000Y-101346000D01*
X145156000Y-101346000D02*
X138806000Y-94996000D01*
%TD*%
%TA.AperFunction,Conductor*%
%TO.N,GND*%
G36*
X138321879Y-70646525D02*
G01*
X138331837Y-70647331D01*
X139083700Y-70738808D01*
X139093389Y-70740379D01*
X139834515Y-70891060D01*
X139843860Y-70893342D01*
X140573373Y-71101786D01*
X140582261Y-71104692D01*
X140894123Y-71219855D01*
X141299315Y-71369484D01*
X141307638Y-71372906D01*
X142011387Y-71692653D01*
X142019103Y-71696489D01*
X142708617Y-72069778D01*
X142715726Y-72073938D01*
X143390091Y-72499367D01*
X143396567Y-72503746D01*
X144044705Y-72972574D01*
X144054789Y-72979868D01*
X144060710Y-72984429D01*
X144160418Y-73066136D01*
X144701837Y-73509815D01*
X144707186Y-73514461D01*
X145330219Y-74087641D01*
X145335053Y-74092337D01*
X145641762Y-74406940D01*
X145938498Y-74711315D01*
X145939037Y-74711867D01*
X145943381Y-74716559D01*
X145947008Y-74720686D01*
X146527329Y-75380963D01*
X146531239Y-75385638D01*
X147094180Y-76093454D01*
X147097689Y-76098084D01*
X147637524Y-76846272D01*
X147638630Y-76847804D01*
X147641776Y-76852377D01*
X148159725Y-77642488D01*
X148162543Y-77646995D01*
X148166802Y-77654142D01*
X148652446Y-78469145D01*
X148656525Y-78475989D01*
X148659048Y-78480428D01*
X149128124Y-79346858D01*
X149130376Y-79351224D01*
X149133534Y-79357653D01*
X149573521Y-80253477D01*
X149575534Y-80257781D01*
X149991842Y-81194469D01*
X149993633Y-81198710D01*
X150382090Y-82168205D01*
X150383680Y-82172389D01*
X150743373Y-83173295D01*
X150744776Y-83177427D01*
X151074708Y-84208122D01*
X151075939Y-84212209D01*
X151375170Y-85271223D01*
X151376240Y-85275270D01*
X151643819Y-86361095D01*
X151644738Y-86365109D01*
X151879716Y-87476241D01*
X151880491Y-87480228D01*
X152081913Y-88615120D01*
X152082551Y-88619085D01*
X152249473Y-89776259D01*
X152249978Y-89780208D01*
X152381448Y-90958114D01*
X152381824Y-90962052D01*
X152466188Y-92024328D01*
X152476313Y-92151824D01*
X152476902Y-92159234D01*
X152477151Y-92163164D01*
X152534886Y-93377987D01*
X152535011Y-93381914D01*
X152554485Y-94614030D01*
X152554500Y-94615990D01*
X152554500Y-108490500D01*
X152534815Y-108557539D01*
X152482011Y-108603294D01*
X152430500Y-108614500D01*
X122679500Y-108614500D01*
X122612461Y-108594815D01*
X122566706Y-108542011D01*
X122555500Y-108490500D01*
X122555500Y-106472524D01*
X125021029Y-106472524D01*
X125029451Y-106480946D01*
X125426526Y-106822656D01*
X125847998Y-107133716D01*
X125848006Y-107133722D01*
X126291561Y-107412426D01*
X126754673Y-107657187D01*
X127234829Y-107866678D01*
X127729279Y-108039692D01*
X128235261Y-108175270D01*
X128235277Y-108175273D01*
X128749978Y-108272659D01*
X128749990Y-108272661D01*
X129270528Y-108331311D01*
X129793992Y-108350898D01*
X129794008Y-108350898D01*
X130317471Y-108331311D01*
X130838009Y-108272661D01*
X130838021Y-108272659D01*
X131352722Y-108175273D01*
X131352738Y-108175270D01*
X131858720Y-108039692D01*
X132353170Y-107866678D01*
X132833326Y-107657187D01*
X133296438Y-107412426D01*
X133739993Y-107133722D01*
X133740001Y-107133716D01*
X134161480Y-106822651D01*
X134558521Y-106480971D01*
X134558548Y-106480945D01*
X134566969Y-106472524D01*
X134566969Y-106472523D01*
X129794000Y-101699553D01*
X125021029Y-106472524D01*
X122555500Y-106472524D01*
X122555500Y-101733124D01*
X122575185Y-101666085D01*
X122627989Y-101620330D01*
X122697147Y-101610386D01*
X122760703Y-101639411D01*
X122798477Y-101698189D01*
X122803413Y-101728488D01*
X122808688Y-101869471D01*
X122867338Y-102390009D01*
X122867340Y-102390021D01*
X122964726Y-102904722D01*
X122964729Y-102904738D01*
X123100307Y-103410720D01*
X123273321Y-103905170D01*
X123482812Y-104385326D01*
X123727573Y-104848438D01*
X124006277Y-105291993D01*
X124006283Y-105292001D01*
X124317343Y-105713473D01*
X124659053Y-106110548D01*
X124667475Y-106118970D01*
X129440446Y-101346000D01*
X130147553Y-101346000D01*
X134920523Y-106118969D01*
X134920524Y-106118969D01*
X134928945Y-106110548D01*
X134928971Y-106110521D01*
X135270651Y-105713480D01*
X135581716Y-105292001D01*
X135581722Y-105291993D01*
X135860426Y-104848438D01*
X136105187Y-104385326D01*
X136314678Y-103905170D01*
X136487692Y-103410720D01*
X136623270Y-102904738D01*
X136623273Y-102904722D01*
X136720659Y-102390021D01*
X136720661Y-102390009D01*
X136779311Y-101869471D01*
X136798898Y-101346008D01*
X136798898Y-101345991D01*
X136779311Y-100822528D01*
X136720661Y-100301990D01*
X136720659Y-100301978D01*
X136623273Y-99787277D01*
X136623270Y-99787261D01*
X136487692Y-99281279D01*
X136314678Y-98786829D01*
X136105187Y-98306673D01*
X135860426Y-97843561D01*
X135581722Y-97400006D01*
X135581716Y-97399998D01*
X135270656Y-96978526D01*
X134928946Y-96581451D01*
X134920524Y-96573029D01*
X130147553Y-101346000D01*
X129440446Y-101346000D01*
X129440446Y-101345999D01*
X124667475Y-96573029D01*
X124659046Y-96581458D01*
X124317343Y-96978526D01*
X124006283Y-97399998D01*
X124006277Y-97400006D01*
X123727573Y-97843561D01*
X123482812Y-98306673D01*
X123273321Y-98786829D01*
X123100307Y-99281279D01*
X122964729Y-99787261D01*
X122964726Y-99787277D01*
X122867340Y-100301978D01*
X122867338Y-100301990D01*
X122808688Y-100822528D01*
X122803413Y-100963511D01*
X122781236Y-101029768D01*
X122726758Y-101073517D01*
X122657276Y-101080867D01*
X122594850Y-101049486D01*
X122559300Y-100989337D01*
X122555500Y-100958875D01*
X122555500Y-96219475D01*
X125021029Y-96219475D01*
X129793999Y-100992446D01*
X134566970Y-96219475D01*
X134558548Y-96211053D01*
X134189944Y-95893844D01*
X134916000Y-95893844D01*
X134922401Y-95953372D01*
X134922403Y-95953379D01*
X134972645Y-96088086D01*
X134972649Y-96088093D01*
X135058809Y-96203187D01*
X135058812Y-96203190D01*
X135173906Y-96289350D01*
X135173913Y-96289354D01*
X135308620Y-96339596D01*
X135308627Y-96339598D01*
X135368155Y-96345999D01*
X135368172Y-96346000D01*
X136016000Y-96346000D01*
X136016000Y-95431501D01*
X136123685Y-95480680D01*
X136230237Y-95496000D01*
X136301763Y-95496000D01*
X136408315Y-95480680D01*
X136516000Y-95431501D01*
X136516000Y-96346000D01*
X137163828Y-96346000D01*
X137163844Y-96345999D01*
X137223372Y-96339598D01*
X137223379Y-96339596D01*
X137358086Y-96289354D01*
X137358093Y-96289350D01*
X137473187Y-96203190D01*
X137473190Y-96203187D01*
X137559350Y-96088093D01*
X137559354Y-96088086D01*
X137608422Y-95956529D01*
X137650293Y-95900595D01*
X137715757Y-95876178D01*
X137784030Y-95891030D01*
X137812285Y-95912181D01*
X137934599Y-96034495D01*
X138011135Y-96088086D01*
X138128168Y-96170034D01*
X138128170Y-96170035D01*
X138312145Y-96255824D01*
X138317006Y-96258223D01*
X138324926Y-96262350D01*
X138324929Y-96262351D01*
X138326857Y-96263186D01*
X138335393Y-96266665D01*
X138342327Y-96269899D01*
X138342330Y-96269900D01*
X138342337Y-96269903D01*
X138355130Y-96273330D01*
X138364095Y-96276101D01*
X139303277Y-96605813D01*
X139360011Y-96646592D01*
X139385375Y-96708514D01*
X139465923Y-97402400D01*
X139454100Y-97471262D01*
X139447744Y-97482669D01*
X139221147Y-97843298D01*
X139221140Y-97843311D01*
X138976361Y-98306455D01*
X138766854Y-98786650D01*
X138593826Y-99281135D01*
X138458239Y-99787157D01*
X138360845Y-100301903D01*
X138360843Y-100301915D01*
X138302189Y-100822491D01*
X138282601Y-101345992D01*
X138282601Y-101346007D01*
X138302189Y-101869508D01*
X138360843Y-102390084D01*
X138360845Y-102390096D01*
X138458239Y-102904842D01*
X138593826Y-103410864D01*
X138766791Y-103905170D01*
X138766858Y-103905360D01*
X138976354Y-104385529D01*
X138976361Y-104385544D01*
X139221140Y-104848688D01*
X139221147Y-104848699D01*
X139499691Y-105292001D01*
X139499864Y-105292275D01*
X139499869Y-105292283D01*
X139810726Y-105713480D01*
X139810959Y-105713795D01*
X140152679Y-106110881D01*
X140523119Y-106481321D01*
X140920205Y-106823041D01*
X141341718Y-107134132D01*
X141785300Y-107412853D01*
X141785310Y-107412859D01*
X142248455Y-107657638D01*
X142248459Y-107657640D01*
X142248471Y-107657646D01*
X142728640Y-107867142D01*
X143223122Y-108040169D01*
X143223128Y-108040170D01*
X143223135Y-108040173D01*
X143528415Y-108121971D01*
X143729152Y-108175759D01*
X144243899Y-108273154D01*
X144243911Y-108273155D01*
X144243915Y-108273156D01*
X144378908Y-108288365D01*
X144764486Y-108331810D01*
X144982616Y-108339972D01*
X145287993Y-108351399D01*
X145288000Y-108351399D01*
X145288007Y-108351399D01*
X145569892Y-108340851D01*
X145811514Y-108331810D01*
X146274207Y-108279677D01*
X146332084Y-108273156D01*
X146332085Y-108273155D01*
X146332101Y-108273154D01*
X146846848Y-108175759D01*
X147205904Y-108079550D01*
X147352864Y-108040173D01*
X147352867Y-108040171D01*
X147352878Y-108040169D01*
X147847360Y-107867142D01*
X148327529Y-107657646D01*
X148790699Y-107412853D01*
X149234282Y-107134132D01*
X149655795Y-106823041D01*
X150052881Y-106481321D01*
X150423321Y-106110881D01*
X150765041Y-105713795D01*
X151076132Y-105292282D01*
X151354853Y-104848700D01*
X151354860Y-104848688D01*
X151599638Y-104385544D01*
X151599637Y-104385544D01*
X151599646Y-104385529D01*
X151809142Y-103905360D01*
X151982169Y-103410878D01*
X151982212Y-103410720D01*
X152021550Y-103263904D01*
X152117759Y-102904848D01*
X152215154Y-102390101D01*
X152273810Y-101869514D01*
X152293399Y-101346000D01*
X152273810Y-100822486D01*
X152215154Y-100301899D01*
X152117759Y-99787152D01*
X152063971Y-99586415D01*
X151982173Y-99281135D01*
X151982170Y-99281128D01*
X151982169Y-99281122D01*
X151809142Y-98786640D01*
X151599646Y-98306471D01*
X151599638Y-98306455D01*
X151354859Y-97843311D01*
X151128253Y-97482669D01*
X151076132Y-97399718D01*
X150765041Y-96978205D01*
X150423321Y-96581119D01*
X150052881Y-96210679D01*
X149655795Y-95868959D01*
X149234282Y-95557868D01*
X148790700Y-95279147D01*
X148790689Y-95279140D01*
X148327544Y-95034361D01*
X148327533Y-95034356D01*
X148327529Y-95034354D01*
X147847360Y-94824858D01*
X147736756Y-94786156D01*
X147352864Y-94651826D01*
X146846842Y-94516239D01*
X146332096Y-94418845D01*
X146332084Y-94418843D01*
X145811508Y-94360189D01*
X145288007Y-94340601D01*
X145287993Y-94340601D01*
X144764491Y-94360189D01*
X144243915Y-94418843D01*
X144243903Y-94418845D01*
X143729157Y-94516239D01*
X143223135Y-94651826D01*
X142728650Y-94824854D01*
X142728644Y-94824856D01*
X142728640Y-94824858D01*
X142336379Y-94996000D01*
X142248455Y-95034361D01*
X141785310Y-95279140D01*
X141341725Y-95557863D01*
X141341707Y-95557875D01*
X141282642Y-95601467D01*
X141217013Y-95625437D01*
X141197838Y-95625192D01*
X140517406Y-95563636D01*
X140452413Y-95537991D01*
X140411601Y-95481279D01*
X140086101Y-94554095D01*
X140083328Y-94545121D01*
X140079903Y-94532337D01*
X140076659Y-94525380D01*
X140072597Y-94515600D01*
X140067721Y-94502282D01*
X140067479Y-94501648D01*
X140039095Y-94440005D01*
X140035768Y-94434410D01*
X140035996Y-94434273D01*
X140027720Y-94420431D01*
X140027210Y-94419338D01*
X139980035Y-94318171D01*
X139844495Y-94124599D01*
X139844494Y-94124597D01*
X139677402Y-93957506D01*
X139677395Y-93957501D01*
X139483834Y-93821967D01*
X139483830Y-93821965D01*
X139412727Y-93788809D01*
X139269663Y-93722097D01*
X139269659Y-93722096D01*
X139269655Y-93722094D01*
X139041413Y-93660938D01*
X139041403Y-93660936D01*
X138806001Y-93640341D01*
X138805999Y-93640341D01*
X138570596Y-93660936D01*
X138570586Y-93660938D01*
X138342344Y-93722094D01*
X138342335Y-93722098D01*
X138128171Y-93821964D01*
X138128169Y-93821965D01*
X137934600Y-93957503D01*
X137812284Y-94079819D01*
X137750961Y-94113303D01*
X137681269Y-94108319D01*
X137625336Y-94066447D01*
X137608421Y-94035470D01*
X137559354Y-93903913D01*
X137559350Y-93903906D01*
X137473190Y-93788812D01*
X137473187Y-93788809D01*
X137358093Y-93702649D01*
X137358086Y-93702645D01*
X137223379Y-93652403D01*
X137223372Y-93652401D01*
X137163844Y-93646000D01*
X136516000Y-93646000D01*
X136516000Y-94560498D01*
X136408315Y-94511320D01*
X136301763Y-94496000D01*
X136230237Y-94496000D01*
X136123685Y-94511320D01*
X136016000Y-94560498D01*
X136016000Y-93646000D01*
X135368155Y-93646000D01*
X135308627Y-93652401D01*
X135308620Y-93652403D01*
X135173913Y-93702645D01*
X135173906Y-93702649D01*
X135058812Y-93788809D01*
X135058809Y-93788812D01*
X134972649Y-93903906D01*
X134972645Y-93903913D01*
X134922403Y-94038620D01*
X134922401Y-94038627D01*
X134916000Y-94098155D01*
X134916000Y-94746000D01*
X135832314Y-94746000D01*
X135806507Y-94786156D01*
X135766000Y-94924111D01*
X135766000Y-95067889D01*
X135806507Y-95205844D01*
X135832314Y-95246000D01*
X134916000Y-95246000D01*
X134916000Y-95893844D01*
X134189944Y-95893844D01*
X134161473Y-95869343D01*
X133740001Y-95558283D01*
X133739993Y-95558277D01*
X133296438Y-95279573D01*
X132833326Y-95034812D01*
X132353170Y-94825321D01*
X131858720Y-94652307D01*
X131352738Y-94516729D01*
X131352722Y-94516726D01*
X130838021Y-94419340D01*
X130838009Y-94419338D01*
X130317471Y-94360688D01*
X129794008Y-94341102D01*
X129793992Y-94341102D01*
X129270528Y-94360688D01*
X128749990Y-94419338D01*
X128749978Y-94419340D01*
X128235277Y-94516726D01*
X128235261Y-94516729D01*
X127729279Y-94652307D01*
X127234829Y-94825321D01*
X126754673Y-95034812D01*
X126291561Y-95279573D01*
X125848006Y-95558277D01*
X125847998Y-95558283D01*
X125426526Y-95869343D01*
X125029458Y-96211046D01*
X125021029Y-96219475D01*
X122555500Y-96219475D01*
X122555500Y-94615989D01*
X122555515Y-94614030D01*
X122574985Y-93381927D01*
X122575110Y-93377999D01*
X122575352Y-93372916D01*
X122632849Y-92163105D01*
X122633091Y-92159293D01*
X122659253Y-91829870D01*
X124379500Y-91829870D01*
X124379501Y-91829876D01*
X124385908Y-91889483D01*
X124436202Y-92024328D01*
X124436206Y-92024335D01*
X124522452Y-92139544D01*
X124522455Y-92139547D01*
X124637664Y-92225793D01*
X124637671Y-92225797D01*
X124772517Y-92276091D01*
X124772516Y-92276091D01*
X124779444Y-92276835D01*
X124832127Y-92282500D01*
X126627872Y-92282499D01*
X126687483Y-92276091D01*
X126822331Y-92225796D01*
X126937546Y-92139546D01*
X127023796Y-92024331D01*
X127074091Y-91889483D01*
X127080500Y-91829873D01*
X127080499Y-90034128D01*
X127074091Y-89974517D01*
X127023796Y-89839669D01*
X127023795Y-89839668D01*
X127023793Y-89839664D01*
X126937547Y-89724455D01*
X126937544Y-89724452D01*
X126822335Y-89638206D01*
X126822328Y-89638202D01*
X126690401Y-89588997D01*
X126634467Y-89547126D01*
X126610050Y-89481662D01*
X126624902Y-89413389D01*
X126646053Y-89385133D01*
X126768108Y-89263078D01*
X126903600Y-89069578D01*
X127003429Y-88855492D01*
X127003432Y-88855486D01*
X127060636Y-88642000D01*
X126163686Y-88642000D01*
X126189493Y-88601844D01*
X126230000Y-88463889D01*
X126230000Y-88387000D01*
X128184341Y-88387000D01*
X128204936Y-88622403D01*
X128204938Y-88622413D01*
X128266094Y-88850655D01*
X128266096Y-88850659D01*
X128266097Y-88850663D01*
X128268349Y-88855492D01*
X128365965Y-89064830D01*
X128365967Y-89064834D01*
X128474281Y-89219521D01*
X128501501Y-89258396D01*
X128501506Y-89258402D01*
X128623430Y-89380326D01*
X128656915Y-89441649D01*
X128651931Y-89511341D01*
X128610059Y-89567274D01*
X128579083Y-89584189D01*
X128447669Y-89633203D01*
X128447664Y-89633206D01*
X128332455Y-89719452D01*
X128332452Y-89719455D01*
X128246206Y-89834664D01*
X128246202Y-89834671D01*
X128195908Y-89969517D01*
X128189501Y-90029116D01*
X128189501Y-90029123D01*
X128189500Y-90029135D01*
X128189500Y-91824870D01*
X128189501Y-91824876D01*
X128195908Y-91884483D01*
X128246202Y-92019328D01*
X128246206Y-92019335D01*
X128332452Y-92134544D01*
X128332455Y-92134547D01*
X128447664Y-92220793D01*
X128447671Y-92220797D01*
X128582517Y-92271091D01*
X128582516Y-92271091D01*
X128589444Y-92271835D01*
X128642127Y-92277500D01*
X130437872Y-92277499D01*
X130497483Y-92271091D01*
X130632331Y-92220796D01*
X130747546Y-92134546D01*
X130833796Y-92019331D01*
X130884091Y-91884483D01*
X130890500Y-91824873D01*
X130890499Y-90029128D01*
X130885299Y-89980757D01*
X130884091Y-89969516D01*
X130833797Y-89834671D01*
X130833793Y-89834664D01*
X130747547Y-89719455D01*
X130747544Y-89719452D01*
X130632335Y-89633206D01*
X130632328Y-89633202D01*
X130500917Y-89584189D01*
X130444983Y-89542318D01*
X130420566Y-89476853D01*
X130435418Y-89408580D01*
X130456563Y-89380332D01*
X130578495Y-89258401D01*
X130714035Y-89064830D01*
X130813903Y-88850663D01*
X130875063Y-88622408D01*
X130895659Y-88387000D01*
X131994341Y-88387000D01*
X132014936Y-88622403D01*
X132014938Y-88622413D01*
X132076094Y-88850655D01*
X132076096Y-88850659D01*
X132076097Y-88850663D01*
X132078349Y-88855492D01*
X132175965Y-89064830D01*
X132175967Y-89064834D01*
X132284281Y-89219521D01*
X132311501Y-89258396D01*
X132311506Y-89258402D01*
X132433430Y-89380326D01*
X132466915Y-89441649D01*
X132461931Y-89511341D01*
X132420059Y-89567274D01*
X132389083Y-89584189D01*
X132257669Y-89633203D01*
X132257664Y-89633206D01*
X132142455Y-89719452D01*
X132142452Y-89719455D01*
X132056206Y-89834664D01*
X132056202Y-89834671D01*
X132005908Y-89969517D01*
X131999501Y-90029116D01*
X131999501Y-90029123D01*
X131999500Y-90029135D01*
X131999500Y-91824870D01*
X131999501Y-91824876D01*
X132005908Y-91884483D01*
X132056202Y-92019328D01*
X132056206Y-92019335D01*
X132142452Y-92134544D01*
X132142455Y-92134547D01*
X132257664Y-92220793D01*
X132257671Y-92220797D01*
X132392517Y-92271091D01*
X132392516Y-92271091D01*
X132399444Y-92271835D01*
X132452127Y-92277500D01*
X134247872Y-92277499D01*
X134307483Y-92271091D01*
X134442331Y-92220796D01*
X134557546Y-92134546D01*
X134643796Y-92019331D01*
X134694091Y-91884483D01*
X134700500Y-91824873D01*
X134700499Y-90029128D01*
X134695299Y-89980757D01*
X134694091Y-89969516D01*
X134643797Y-89834671D01*
X134643793Y-89834664D01*
X134557547Y-89719455D01*
X134557544Y-89719452D01*
X134442335Y-89633206D01*
X134442328Y-89633202D01*
X134310917Y-89584189D01*
X134254983Y-89542318D01*
X134230566Y-89476853D01*
X134245418Y-89408580D01*
X134266563Y-89380332D01*
X134388495Y-89258401D01*
X134524035Y-89064830D01*
X134623903Y-88850663D01*
X134685063Y-88622408D01*
X134705659Y-88387000D01*
X134685063Y-88151592D01*
X134623903Y-87923337D01*
X134524035Y-87709171D01*
X134388495Y-87515599D01*
X134388494Y-87515597D01*
X134221402Y-87348506D01*
X134221396Y-87348501D01*
X134035842Y-87218575D01*
X133992217Y-87163998D01*
X133985023Y-87094500D01*
X134016546Y-87032145D01*
X134035842Y-87015425D01*
X134058026Y-86999891D01*
X134221401Y-86885495D01*
X134388495Y-86718401D01*
X134524035Y-86524830D01*
X134623903Y-86310663D01*
X134685063Y-86082408D01*
X134705659Y-85847000D01*
X134685063Y-85611592D01*
X134623903Y-85383337D01*
X134524035Y-85169171D01*
X134388495Y-84975599D01*
X134388494Y-84975597D01*
X134221402Y-84808506D01*
X134221396Y-84808501D01*
X134035842Y-84678575D01*
X133992217Y-84623998D01*
X133985023Y-84554500D01*
X134016546Y-84492145D01*
X134035842Y-84475425D01*
X134058026Y-84459891D01*
X134221401Y-84345495D01*
X134388495Y-84178401D01*
X134524035Y-83984830D01*
X134623903Y-83770663D01*
X134685063Y-83542408D01*
X134705659Y-83307000D01*
X134685063Y-83071592D01*
X134623903Y-82843337D01*
X134524035Y-82629171D01*
X134493083Y-82584966D01*
X134388494Y-82435597D01*
X134221402Y-82268506D01*
X134221395Y-82268501D01*
X134027834Y-82132967D01*
X134027830Y-82132965D01*
X134016904Y-82127870D01*
X137129500Y-82127870D01*
X137129501Y-82127876D01*
X137135908Y-82187483D01*
X137186202Y-82322328D01*
X137186206Y-82322335D01*
X137272452Y-82437544D01*
X137272455Y-82437547D01*
X137387664Y-82523793D01*
X137387671Y-82523797D01*
X137522517Y-82574091D01*
X137522516Y-82574091D01*
X137529444Y-82574835D01*
X137582127Y-82580500D01*
X139277872Y-82580499D01*
X139337483Y-82574091D01*
X139472331Y-82523796D01*
X139587546Y-82437546D01*
X139673796Y-82322331D01*
X139724091Y-82187483D01*
X139730500Y-82127873D01*
X139730500Y-81280002D01*
X143625034Y-81280002D01*
X143644858Y-81506599D01*
X143644860Y-81506610D01*
X143703730Y-81726317D01*
X143703735Y-81726331D01*
X143799863Y-81932478D01*
X143850974Y-82005472D01*
X144446923Y-81409523D01*
X144470507Y-81489844D01*
X144548239Y-81610798D01*
X144656900Y-81704952D01*
X144787685Y-81764680D01*
X144797466Y-81766086D01*
X144204526Y-82359025D01*
X144277513Y-82410132D01*
X144277521Y-82410136D01*
X144483668Y-82506264D01*
X144483682Y-82506269D01*
X144703389Y-82565139D01*
X144703400Y-82565141D01*
X144929998Y-82584966D01*
X144930002Y-82584966D01*
X145156599Y-82565141D01*
X145156610Y-82565139D01*
X145376317Y-82506269D01*
X145376331Y-82506264D01*
X145582478Y-82410136D01*
X145655471Y-82359024D01*
X145062533Y-81766086D01*
X145072315Y-81764680D01*
X145203100Y-81704952D01*
X145311761Y-81610798D01*
X145389493Y-81489844D01*
X145413076Y-81409523D01*
X146009024Y-82005471D01*
X146060136Y-81932478D01*
X146156264Y-81726331D01*
X146156269Y-81726317D01*
X146215139Y-81506610D01*
X146215141Y-81506599D01*
X146234966Y-81280002D01*
X146234966Y-81279997D01*
X146215141Y-81053400D01*
X146215139Y-81053389D01*
X146156269Y-80833682D01*
X146156264Y-80833668D01*
X146060136Y-80627521D01*
X146060132Y-80627513D01*
X146009025Y-80554526D01*
X145413076Y-81150475D01*
X145389493Y-81070156D01*
X145311761Y-80949202D01*
X145203100Y-80855048D01*
X145072315Y-80795320D01*
X145062533Y-80793913D01*
X145655472Y-80200974D01*
X145582478Y-80149863D01*
X145376331Y-80053735D01*
X145376317Y-80053730D01*
X145156610Y-79994860D01*
X145156599Y-79994858D01*
X144930002Y-79975034D01*
X144929998Y-79975034D01*
X144703400Y-79994858D01*
X144703389Y-79994860D01*
X144483682Y-80053730D01*
X144483673Y-80053734D01*
X144277516Y-80149866D01*
X144277512Y-80149868D01*
X144204526Y-80200973D01*
X144204526Y-80200974D01*
X144797466Y-80793913D01*
X144787685Y-80795320D01*
X144656900Y-80855048D01*
X144548239Y-80949202D01*
X144470507Y-81070156D01*
X144446923Y-81150475D01*
X143850974Y-80554526D01*
X143850973Y-80554526D01*
X143799868Y-80627512D01*
X143799866Y-80627516D01*
X143703734Y-80833673D01*
X143703730Y-80833682D01*
X143644860Y-81053389D01*
X143644858Y-81053400D01*
X143625034Y-81279997D01*
X143625034Y-81280002D01*
X139730500Y-81280002D01*
X139730499Y-80432128D01*
X139724091Y-80372517D01*
X139681297Y-80257781D01*
X139673797Y-80237671D01*
X139673793Y-80237664D01*
X139587547Y-80122455D01*
X139587544Y-80122452D01*
X139472335Y-80036206D01*
X139472328Y-80036202D01*
X139337482Y-79985908D01*
X139337483Y-79985908D01*
X139277883Y-79979501D01*
X139277881Y-79979500D01*
X139277873Y-79979500D01*
X139277864Y-79979500D01*
X137582129Y-79979500D01*
X137582123Y-79979501D01*
X137522516Y-79985908D01*
X137387671Y-80036202D01*
X137387664Y-80036206D01*
X137272455Y-80122452D01*
X137272452Y-80122455D01*
X137186206Y-80237664D01*
X137186202Y-80237671D01*
X137135908Y-80372517D01*
X137129501Y-80432116D01*
X137129501Y-80432123D01*
X137129500Y-80432135D01*
X137129500Y-82127870D01*
X134016904Y-82127870D01*
X134016891Y-82127864D01*
X133813663Y-82033097D01*
X133813659Y-82033096D01*
X133813655Y-82033094D01*
X133585413Y-81971938D01*
X133585403Y-81971936D01*
X133350001Y-81951341D01*
X133349999Y-81951341D01*
X133114596Y-81971936D01*
X133114586Y-81971938D01*
X132886344Y-82033094D01*
X132886335Y-82033098D01*
X132672171Y-82132964D01*
X132672169Y-82132965D01*
X132478597Y-82268505D01*
X132311505Y-82435597D01*
X132175965Y-82629169D01*
X132175964Y-82629171D01*
X132076098Y-82843335D01*
X132076094Y-82843344D01*
X132014938Y-83071586D01*
X132014936Y-83071596D01*
X131994341Y-83306999D01*
X131994341Y-83307000D01*
X132014936Y-83542403D01*
X132014938Y-83542413D01*
X132076094Y-83770655D01*
X132076096Y-83770659D01*
X132076097Y-83770663D01*
X132175965Y-83984830D01*
X132175967Y-83984834D01*
X132311501Y-84178395D01*
X132311506Y-84178402D01*
X132478597Y-84345493D01*
X132478603Y-84345498D01*
X132664158Y-84475425D01*
X132707783Y-84530002D01*
X132714977Y-84599500D01*
X132683454Y-84661855D01*
X132664158Y-84678575D01*
X132478597Y-84808505D01*
X132311505Y-84975597D01*
X132175965Y-85169169D01*
X132175964Y-85169171D01*
X132076098Y-85383335D01*
X132076094Y-85383344D01*
X132014938Y-85611586D01*
X132014936Y-85611596D01*
X131994341Y-85846999D01*
X131994341Y-85847000D01*
X132014936Y-86082403D01*
X132014938Y-86082413D01*
X132076094Y-86310655D01*
X132076096Y-86310659D01*
X132076097Y-86310663D01*
X132175847Y-86524578D01*
X132175965Y-86524830D01*
X132175967Y-86524834D01*
X132311501Y-86718395D01*
X132311506Y-86718402D01*
X132478597Y-86885493D01*
X132478603Y-86885498D01*
X132664158Y-87015425D01*
X132707783Y-87070002D01*
X132714977Y-87139500D01*
X132683454Y-87201855D01*
X132664158Y-87218575D01*
X132478597Y-87348505D01*
X132311505Y-87515597D01*
X132175965Y-87709169D01*
X132175964Y-87709171D01*
X132076098Y-87923335D01*
X132076094Y-87923344D01*
X132014938Y-88151586D01*
X132014936Y-88151596D01*
X131994341Y-88386999D01*
X131994341Y-88387000D01*
X130895659Y-88387000D01*
X130875063Y-88151592D01*
X130813903Y-87923337D01*
X130714035Y-87709171D01*
X130578495Y-87515599D01*
X130578494Y-87515597D01*
X130411402Y-87348506D01*
X130411401Y-87348505D01*
X130225405Y-87218269D01*
X130181781Y-87163692D01*
X130174588Y-87094193D01*
X130206110Y-87031839D01*
X130225405Y-87015119D01*
X130411082Y-86885105D01*
X130578105Y-86718082D01*
X130713600Y-86524578D01*
X130813429Y-86310492D01*
X130813432Y-86310486D01*
X130870636Y-86097000D01*
X129973686Y-86097000D01*
X129999493Y-86056844D01*
X130040000Y-85918889D01*
X130040000Y-85775111D01*
X129999493Y-85637156D01*
X129973686Y-85597000D01*
X130870636Y-85597000D01*
X130870635Y-85596999D01*
X130813432Y-85383513D01*
X130813429Y-85383507D01*
X130713600Y-85169422D01*
X130713599Y-85169420D01*
X130578113Y-84975926D01*
X130578108Y-84975920D01*
X130411078Y-84808890D01*
X130225405Y-84678879D01*
X130181780Y-84624302D01*
X130174588Y-84554804D01*
X130206110Y-84492449D01*
X130225406Y-84475730D01*
X130225842Y-84475425D01*
X130411401Y-84345495D01*
X130578495Y-84178401D01*
X130714035Y-83984830D01*
X130813903Y-83770663D01*
X130875063Y-83542408D01*
X130895659Y-83307000D01*
X130875063Y-83071592D01*
X130813903Y-82843337D01*
X130714035Y-82629171D01*
X130683083Y-82584966D01*
X130578494Y-82435597D01*
X130411402Y-82268506D01*
X130411395Y-82268501D01*
X130217834Y-82132967D01*
X130217830Y-82132965D01*
X130206891Y-82127864D01*
X130003663Y-82033097D01*
X130003659Y-82033096D01*
X130003655Y-82033094D01*
X129775413Y-81971938D01*
X129775403Y-81971936D01*
X129540001Y-81951341D01*
X129539999Y-81951341D01*
X129304596Y-81971936D01*
X129304586Y-81971938D01*
X129076344Y-82033094D01*
X129076335Y-82033098D01*
X128862171Y-82132964D01*
X128862169Y-82132965D01*
X128668597Y-82268505D01*
X128501505Y-82435597D01*
X128365965Y-82629169D01*
X128365964Y-82629171D01*
X128266098Y-82843335D01*
X128266094Y-82843344D01*
X128204938Y-83071586D01*
X128204936Y-83071596D01*
X128184341Y-83306999D01*
X128184341Y-83307000D01*
X128204936Y-83542403D01*
X128204938Y-83542413D01*
X128266094Y-83770655D01*
X128266096Y-83770659D01*
X128266097Y-83770663D01*
X128365965Y-83984830D01*
X128365967Y-83984834D01*
X128501501Y-84178395D01*
X128501506Y-84178402D01*
X128668597Y-84345493D01*
X128668603Y-84345498D01*
X128854594Y-84475730D01*
X128898219Y-84530307D01*
X128905413Y-84599805D01*
X128873890Y-84662160D01*
X128854595Y-84678880D01*
X128668922Y-84808890D01*
X128668920Y-84808891D01*
X128501891Y-84975920D01*
X128501886Y-84975926D01*
X128366400Y-85169420D01*
X128366399Y-85169422D01*
X128266570Y-85383507D01*
X128266567Y-85383513D01*
X128209364Y-85596999D01*
X128209364Y-85597000D01*
X129106314Y-85597000D01*
X129080507Y-85637156D01*
X129040000Y-85775111D01*
X129040000Y-85918889D01*
X129080507Y-86056844D01*
X129106314Y-86097000D01*
X128209364Y-86097000D01*
X128266567Y-86310486D01*
X128266570Y-86310492D01*
X128366399Y-86524578D01*
X128501894Y-86718082D01*
X128668917Y-86885105D01*
X128854595Y-87015119D01*
X128898219Y-87069696D01*
X128905412Y-87139195D01*
X128873890Y-87201549D01*
X128854595Y-87218269D01*
X128668594Y-87348508D01*
X128501505Y-87515597D01*
X128365965Y-87709169D01*
X128365964Y-87709171D01*
X128266098Y-87923335D01*
X128266094Y-87923344D01*
X128204938Y-88151586D01*
X128204936Y-88151596D01*
X128184341Y-88386999D01*
X128184341Y-88387000D01*
X126230000Y-88387000D01*
X126230000Y-88320111D01*
X126189493Y-88182156D01*
X126163686Y-88142000D01*
X127060636Y-88142000D01*
X127060635Y-88141999D01*
X127003432Y-87928513D01*
X127003429Y-87928507D01*
X126903600Y-87714422D01*
X126903599Y-87714420D01*
X126768113Y-87520926D01*
X126768108Y-87520920D01*
X126601082Y-87353894D01*
X126407578Y-87218399D01*
X126193492Y-87118570D01*
X126193486Y-87118567D01*
X125980000Y-87061364D01*
X125980000Y-87956498D01*
X125872315Y-87907320D01*
X125765763Y-87892000D01*
X125694237Y-87892000D01*
X125587685Y-87907320D01*
X125480000Y-87956498D01*
X125480000Y-87061364D01*
X125479999Y-87061364D01*
X125266513Y-87118567D01*
X125266507Y-87118570D01*
X125052422Y-87218399D01*
X125052420Y-87218400D01*
X124858926Y-87353886D01*
X124858920Y-87353891D01*
X124691891Y-87520920D01*
X124691886Y-87520926D01*
X124556400Y-87714420D01*
X124556399Y-87714422D01*
X124456570Y-87928507D01*
X124456567Y-87928513D01*
X124399364Y-88141999D01*
X124399364Y-88142000D01*
X125296314Y-88142000D01*
X125270507Y-88182156D01*
X125230000Y-88320111D01*
X125230000Y-88463889D01*
X125270507Y-88601844D01*
X125296314Y-88642000D01*
X124399364Y-88642000D01*
X124456567Y-88855486D01*
X124456570Y-88855492D01*
X124556399Y-89069578D01*
X124691894Y-89263082D01*
X124813946Y-89385134D01*
X124847431Y-89446457D01*
X124842447Y-89516149D01*
X124800575Y-89572082D01*
X124769598Y-89588997D01*
X124637671Y-89638202D01*
X124637664Y-89638206D01*
X124522455Y-89724452D01*
X124522452Y-89724455D01*
X124436206Y-89839664D01*
X124436202Y-89839671D01*
X124385908Y-89974517D01*
X124379501Y-90034116D01*
X124379501Y-90034123D01*
X124379500Y-90034135D01*
X124379500Y-91829870D01*
X122659253Y-91829870D01*
X122728175Y-90962032D01*
X122728550Y-90958114D01*
X122728559Y-90958034D01*
X122860027Y-89780144D01*
X122860515Y-89776321D01*
X123027454Y-88619030D01*
X123028076Y-88615165D01*
X123229509Y-87480208D01*
X123230281Y-87476241D01*
X123230514Y-87475141D01*
X123465266Y-86365076D01*
X123466170Y-86361128D01*
X123733768Y-85275227D01*
X123734815Y-85271266D01*
X124034070Y-84212167D01*
X124035276Y-84208165D01*
X124365225Y-83177413D01*
X124366624Y-83173295D01*
X124369620Y-83164960D01*
X124726320Y-82172379D01*
X124727907Y-82168205D01*
X124729285Y-82164767D01*
X125116375Y-81198685D01*
X125118145Y-81194494D01*
X125534483Y-80257738D01*
X125536455Y-80253521D01*
X125979641Y-79351184D01*
X125981849Y-79346903D01*
X126450976Y-78480380D01*
X126453444Y-78476037D01*
X126947467Y-77646973D01*
X126950258Y-77642509D01*
X127468236Y-76852354D01*
X127471331Y-76847856D01*
X128012326Y-76098060D01*
X128015799Y-76093478D01*
X128578769Y-75385625D01*
X128582641Y-75380995D01*
X129166635Y-74716538D01*
X129170933Y-74711896D01*
X129774954Y-74092326D01*
X129779767Y-74087650D01*
X130402847Y-73514429D01*
X130408152Y-73509820D01*
X131049309Y-72984410D01*
X131055207Y-72979868D01*
X131713444Y-72503736D01*
X131719891Y-72499377D01*
X132394277Y-72073934D01*
X132401357Y-72069791D01*
X133090901Y-71696485D01*
X133098593Y-71692661D01*
X133802382Y-71372895D01*
X133810666Y-71369489D01*
X134527763Y-71104681D01*
X134536620Y-71101786D01*
X135266132Y-70893342D01*
X135275460Y-70891064D01*
X136016612Y-70740379D01*
X136026293Y-70738808D01*
X136778161Y-70647331D01*
X136788115Y-70646525D01*
X137550006Y-70615702D01*
X137559992Y-70615702D01*
X138321879Y-70646525D01*
G37*
%TD.AperFunction*%
%TD*%
%TA.AperFunction,Conductor*%
%TO.N,+BATT*%
G36*
X139588838Y-94675441D02*
G01*
X139595163Y-94681780D01*
X139595388Y-94682370D01*
X140094031Y-96102748D01*
X140093539Y-96111690D01*
X140091265Y-96114897D01*
X139924897Y-96281265D01*
X139916624Y-96284692D01*
X139912748Y-96284031D01*
X138492370Y-95785388D01*
X138485699Y-95779415D01*
X138485207Y-95770473D01*
X138485423Y-95769905D01*
X138803438Y-94999783D01*
X138809759Y-94993448D01*
X139579884Y-94675432D01*
X139588838Y-94675441D01*
G37*
%TD.AperFunction*%
%TD*%
%TA.AperFunction,Conductor*%
%TO.N,+BATT*%
G36*
X140017727Y-96025997D02*
G01*
X141388362Y-96149993D01*
X141396292Y-96154150D01*
X141396657Y-96154611D01*
X145243669Y-101286625D01*
X145245889Y-101295301D01*
X145241325Y-101303005D01*
X145232649Y-101305225D01*
X145227524Y-101303176D01*
X139999753Y-97583692D01*
X139994999Y-97576104D01*
X139994914Y-97575508D01*
X139836157Y-96207902D01*
X139838607Y-96199289D01*
X139839497Y-96198289D01*
X140008410Y-96029376D01*
X140016682Y-96025950D01*
X140017727Y-96025997D01*
G37*
%TD.AperFunction*%
%TD*%
M02*
