M48
; DRILL file {KiCad 7.0.10} date Sun Feb 23 01:37:26 2025
; FORMAT={-:-/ absolute / inch / decimal}
; #@! TF.CreationDate,2025-02-23T01:37:26-06:00
; #@! TF.GenerationSoftware,Kicad,Pcbnew,7.0.10
; #@! TF.FileFunction,Plated,1,2,PTH
FMAT,2
INCH
; #@! TA.AperFunction,Plated,PTH,ViaDrill
T1C0.0157
; #@! TA.AperFunction,Plated,PTH,ComponentDrill
T2C0.0394
%
G90
G05
T1
X4.86Y-3.59
X4.86Y-3.83
X4.86Y-4.24
X4.91Y-3.33
X4.99Y-3.13
X5.03Y-3.53
X5.03Y-3.62
X5.04Y-3.33
X5.04Y-3.43
X5.1Y-2.97
X5.11Y-3.2
X5.14Y-3.68
X5.16Y-3.34
X5.17Y-3.6
X5.18Y-3.44
X5.2Y-3.11
X5.24Y-2.86
X5.27Y-3.2
X5.27Y-4.24
X5.29Y-3.7
X5.3Y-3.43
X5.32Y-3.11
X5.41Y-2.81
X5.41Y-3.57
X5.41Y-3.63
X5.47Y-3.82
X5.48Y-3.11
X5.53Y-3.33
X5.53Y-3.63
X5.54Y-3.74
X5.55Y-3.26
X5.55Y-3.53
X5.56Y-4.24
X5.59Y-2.86
X5.59Y-3.39
X5.6Y-3.31
X5.6Y-3.54
X5.73Y-2.97
X5.74Y-3.63
X5.8Y-3.3
X5.8Y-3.41
X5.83Y-3.49
X5.84Y-3.13
X5.92Y-3.33
X5.97Y-3.59
X5.97Y-3.83
X5.97Y-4.24
T2
X4.95Y-3.48
X4.95Y-3.58
X5.1Y-3.2798
X5.1Y-3.3798
X5.1Y-3.4798
X5.1Y-3.5798
X5.25Y-3.2798
X5.25Y-3.3798
X5.25Y-3.4798
X5.25Y-3.5798
X5.3648Y-3.74
X5.45Y-3.2
X5.4648Y-3.74
X5.7059Y-3.2
M30
