%TF.GenerationSoftware,KiCad,Pcbnew,7.0.10*%
%TF.CreationDate,2025-02-23T01:37:13-06:00*%
%TF.ProjectId,Portal_Radio,506f7274-616c-45f5-9261-64696f2e6b69,rev?*%
%TF.SameCoordinates,Original*%
%TF.FileFunction,Paste,Bot*%
%TF.FilePolarity,Positive*%
%FSLAX46Y46*%
G04 Gerber Fmt 4.6, Leading zero omitted, Abs format (unit mm)*
G04 Created by KiCad (PCBNEW 7.0.10) date 2025-02-23 01:37:13*
%MOMM*%
%LPD*%
G01*
G04 APERTURE LIST*
G04 Aperture macros list*
%AMRoundRect*
0 Rectangle with rounded corners*
0 $1 Rounding radius*
0 $2 $3 $4 $5 $6 $7 $8 $9 X,Y pos of 4 corners*
0 Add a 4 corners polygon primitive as box body*
4,1,4,$2,$3,$4,$5,$6,$7,$8,$9,$2,$3,0*
0 Add four circle primitives for the rounded corners*
1,1,$1+$1,$2,$3*
1,1,$1+$1,$4,$5*
1,1,$1+$1,$6,$7*
1,1,$1+$1,$8,$9*
0 Add four rect primitives between the rounded corners*
20,1,$1+$1,$2,$3,$4,$5,0*
20,1,$1+$1,$4,$5,$6,$7,0*
20,1,$1+$1,$6,$7,$8,$9,0*
20,1,$1+$1,$8,$9,$2,$3,0*%
G04 Aperture macros list end*
%ADD10RoundRect,0.150000X0.512500X0.150000X-0.512500X0.150000X-0.512500X-0.150000X0.512500X-0.150000X0*%
%ADD11RoundRect,0.225000X-0.250000X0.225000X-0.250000X-0.225000X0.250000X-0.225000X0.250000X0.225000X0*%
%ADD12RoundRect,0.200000X0.200000X0.275000X-0.200000X0.275000X-0.200000X-0.275000X0.200000X-0.275000X0*%
%ADD13RoundRect,0.200000X-0.275000X0.200000X-0.275000X-0.200000X0.275000X-0.200000X0.275000X0.200000X0*%
%ADD14RoundRect,0.225000X0.250000X-0.225000X0.250000X0.225000X-0.250000X0.225000X-0.250000X-0.225000X0*%
%ADD15RoundRect,0.200000X-0.200000X-0.275000X0.200000X-0.275000X0.200000X0.275000X-0.200000X0.275000X0*%
%ADD16RoundRect,0.225000X0.225000X0.250000X-0.225000X0.250000X-0.225000X-0.250000X0.225000X-0.250000X0*%
%ADD17RoundRect,0.200000X0.275000X-0.200000X0.275000X0.200000X-0.275000X0.200000X-0.275000X-0.200000X0*%
%ADD18RoundRect,0.218750X0.256250X-0.218750X0.256250X0.218750X-0.256250X0.218750X-0.256250X-0.218750X0*%
%ADD19RoundRect,0.100000X0.637500X0.100000X-0.637500X0.100000X-0.637500X-0.100000X0.637500X-0.100000X0*%
G04 APERTURE END LIST*
D10*
%TO.C,U2*%
X149912000Y-86680000D03*
X149912000Y-88580000D03*
X147637000Y-87630000D03*
%TD*%
D11*
%TO.C,C5*%
X145859000Y-89649000D03*
X145859000Y-91199000D03*
%TD*%
D12*
%TO.C,R1*%
X148970000Y-85090000D03*
X147320000Y-85090000D03*
%TD*%
D13*
%TO.C,R3*%
X136144000Y-90615000D03*
X136144000Y-92265000D03*
%TD*%
%TO.C,R4*%
X136144000Y-87567000D03*
X136144000Y-89217000D03*
%TD*%
D14*
%TO.C,C1*%
X145859000Y-85116000D03*
X145859000Y-83566000D03*
%TD*%
%TO.C,C4*%
X147383000Y-90157000D03*
X147383000Y-91707000D03*
%TD*%
D15*
%TO.C,R2*%
X139637000Y-91186000D03*
X141287000Y-91186000D03*
%TD*%
D16*
%TO.C,C3*%
X144335000Y-91186000D03*
X142785000Y-91186000D03*
%TD*%
D17*
%TO.C,R6*%
X136144000Y-83121000D03*
X136144000Y-81471000D03*
%TD*%
D18*
%TO.C,L1*%
X148844000Y-90144500D03*
X148844000Y-91719500D03*
%TD*%
D19*
%TO.C,U1*%
X143827000Y-83816000D03*
X143827000Y-84466000D03*
X143827000Y-85116000D03*
X143827000Y-85766000D03*
X143827000Y-86416000D03*
X143827000Y-87066000D03*
X143827000Y-87716000D03*
X143827000Y-88366000D03*
X143827000Y-89016000D03*
X143827000Y-89666000D03*
X138102000Y-89666000D03*
X138102000Y-89016000D03*
X138102000Y-88366000D03*
X138102000Y-87716000D03*
X138102000Y-87066000D03*
X138102000Y-86416000D03*
X138102000Y-85766000D03*
X138102000Y-85116000D03*
X138102000Y-84466000D03*
X138102000Y-83816000D03*
%TD*%
D17*
%TO.C,R5*%
X136144000Y-86169000D03*
X136144000Y-84519000D03*
%TD*%
D14*
%TO.C,C2*%
X145859000Y-88151000D03*
X145859000Y-86601000D03*
%TD*%
M02*
